<svg width="42" height="42" viewBox="0 0 42 42" fill="none" xmlns="http://www.w3.org/2000/svg">
<g clip-path="url(#clip0)">
<mask id="path-1-outside-1" maskUnits="userSpaceOnUse" x="-1" y="-1" width="44" height="44" fill="black">
<rect fill="white" x="-1" y="-1" width="44" height="44"/>
<path d="M26.8584 12.6C26.6172 12.4652 26.8211 12.0966 27.0623 12.2314L38.8794 18.8146C39.0861 18.9301 39.1721 18.9646 39.3756 18.8262L41.4191 17.3321C41.6135 17.2019 41.5745 17.1329 41.3943 17.0325L29.4266 10.4451L26.8886 12.2111V13.3862L37.7432 19.5031C37.9732 19.6327 38.2218 19.7799 38.223 20.0826L38.2865 35.2216L38.7121 35.4741C38.9213 35.5983 38.8818 35.6088 38.8818 35.36V19.5489C38.8713 19.2954 38.8902 19.2987 38.6755 19.1832L26.8584 12.6ZM6.03908 29.7779C8.17286 29.7779 11.6255 30.9439 11.4269 33.599L11.4004 34.3746C12.2346 34.9986 12.8551 35.9091 12.7739 36.9945L12.7267 38.3738C12.6878 39.3958 12.0914 40.3224 11.1166 40.9833C9.0502 42.3842 5.70966 42.3017 3.63722 40.9559C2.6353 40.3052 1.98594 39.4027 1.9914 38.3973L1.99693 37.382C1.19049 36.7694 0.688508 35.971 0.647003 35.0896C0.621417 34.545 0.644212 33.9604 0.644212 33.4108C0.644212 30.8566 3.96345 29.7779 6.03908 29.7779ZM10.9624 34.9039C10.6855 35.3194 10.2962 35.6927 9.82012 36.0069C7.72522 37.3894 4.35296 37.3894 2.25806 36.0069C1.75198 35.6729 1.34396 35.2721 1.06477 34.8249C1.06441 34.9467 1.0635 35.0615 1.07609 35.1837C1.15693 35.9688 1.68136 36.6808 2.48827 37.2133C4.41811 38.4869 7.57387 38.5163 9.50481 37.2287C10.3186 36.6861 10.9277 35.9167 10.9624 34.9039ZM6.03908 30.201C4.24396 30.201 1.2087 31.0808 1.06938 33.2794C1.06618 34.3505 1.6139 35.0762 2.48826 35.6532C4.44334 36.9434 7.63483 36.9434 9.58991 35.6532C10.4278 35.1002 10.9611 34.3538 11.0094 33.5328C11.0911 31.1511 7.9242 30.201 6.03908 30.201ZM11.3823 34.9005C11.3424 36.0675 10.6803 36.9516 9.73665 37.5808C7.77239 38.8906 4.7215 38.9187 2.66087 37.8074C2.9455 38.3627 3.45998 38.8528 4.13154 39.2297C6.0837 40.3251 9.05992 40.2874 10.9369 39.0487C11.7748 38.4958 12.3081 37.7493 12.3564 36.9283C12.3852 36.0909 11.9953 35.434 11.3823 34.9005ZM12.3094 38.2994C12.0325 38.7149 11.6432 39.0883 11.1671 39.4024C9.15821 40.7282 6.01721 40.7708 3.92764 39.5982C3.27175 39.2302 2.74842 38.7586 2.41206 38.2195C2.41176 38.2797 2.41146 38.339 2.41239 38.3983C2.42597 39.25 2.98228 40.0278 3.86412 40.6005C5.79479 41.8542 8.95515 41.9388 10.8814 40.6329C11.6923 40.0832 12.2748 39.3089 12.3094 38.2994ZM8.5808 1.32386L10.4823 0.196345C11.0196 -0.122251 11.2887 -0.0191834 11.8021 0.263409L41.6064 16.6686C41.8848 16.8306 42 17.0486 42 17.3675V34.1097C42 34.5419 41.9398 34.5549 41.6005 34.8203L39.8338 36.0666C39.5593 36.2602 39.3499 36.3431 39.0327 36.1548L38.2886 35.7133L38.2931 36.7963C38.2955 37.3555 38.2738 37.4069 37.7261 37.7886L36.0717 38.9415C35.7769 39.147 35.5437 39.2233 35.2064 39.0219L34.4376 38.5628L34.4418 39.463C34.4442 39.9748 34.4316 40.2219 33.9669 40.5247L32.0496 41.7738C31.7623 41.9609 31.6322 41.9499 31.3301 41.774L18.7834 34.4706C18.6449 34.6737 18.3037 34.4368 18.1596 34.3523L14.123 31.986C13.7902 31.791 13.5067 31.7335 13.4876 31.3085C13.4428 31.3145 13.3958 31.3061 13.3538 31.2815L1.47864 24.3054C0.115279 23.5045 -5.34404e-05 23.4004 1.85618e-08 21.779L0.000395618 6.83564C0.000406309 6.5092 0.0554156 6.367 0.386476 6.18272L2.16504 5.12811C2.87173 4.70905 2.99879 4.67849 3.71444 5.08732L4.14856 5.33535V4.46899C4.14856 4.13592 4.13805 3.94548 4.5021 3.74235L6.30852 2.67123C6.94266 2.29523 7.13265 2.25306 7.7919 2.62457L8.22222 2.86707V1.96686C8.22222 1.6579 8.30478 1.48752 8.5808 1.32386ZM8.64317 2.67437V3.10426L21.6046 10.4085V9.32898C21.6046 9.28966 21.6259 9.25534 21.6576 9.23711L24.1743 7.55407L11.6103 0.638494C11.2425 0.436056 11.0965 0.322531 10.6961 0.559973L8.84554 1.65726C8.55851 1.82746 8.5856 1.88957 8.8621 2.04505L21.6046 9.10757C21.8457 9.24237 21.6419 9.61095 21.4007 9.47616L8.9201 2.56088C8.62654 2.39154 8.63871 2.36122 8.64317 2.67437ZM4.82197 4.47813L17.7855 11.6608C18.0255 11.7978 17.8184 12.1647 17.5783 12.0278L4.72266 4.90639C4.56447 4.81643 4.56951 4.89578 4.56951 5.06679V5.57581L17.575 13.0061V11.9104C17.575 11.8656 17.6027 11.8272 17.6419 11.8119L20.2343 10.1206L7.59239 2.99651C7.0679 2.70089 7.0288 2.73448 6.52575 3.03277L4.79108 4.06135C4.4572 4.26634 4.54714 4.33341 4.82197 4.47813ZM35.0719 38.2953V22.4306C35.0719 22.1824 35.0402 22.1366 34.7845 22.0023L22.837 14.948C22.597 14.811 22.8041 14.4441 23.0442 14.5811L35.0339 21.6594C35.2629 21.7896 35.2894 21.8026 35.5229 21.6423L37.6326 20.194C37.8266 20.0506 37.7668 20.0012 37.5654 19.8874L25.4806 13.0772L22.837 14.8394V16.0124L33.9161 22.3421C34.2455 22.5303 34.3628 22.6511 34.3647 23.0508L34.4353 38.0701L34.9601 38.3835C35.1024 38.4685 35.0719 38.4681 35.0719 38.2953ZM33.9467 23.3178L31.9664 24.7748C31.7173 24.9666 31.6424 24.9874 31.6424 25.2428V41.3258C31.6424 41.4609 31.6959 41.5007 31.8697 41.3884L33.7585 40.1578C34.0738 39.9524 34.0243 39.8429 34.0227 39.5077C33.9974 34.1111 33.972 28.7145 33.9467 23.3178ZM14.5787 15.2675C14.5283 15.2385 13.6988 14.7507 13.7276 14.7C12.3187 13.5283 14.6327 15.0551 14.6831 15.084L18.6068 17.2165C18.7267 17.2855 18.6223 17.4689 18.5024 17.4L14.5787 15.2675ZM21.8151 9.6C21.6945 9.53208 21.7972 9.34777 21.9178 9.41571L26.6627 12.0268C26.7833 12.0947 26.6805 12.279 26.5599 12.2111L21.8151 9.6ZM17.7855 11.9696C17.6654 11.9012 17.769 11.7177 17.8891 11.7862L22.532 14.4871C22.652 14.5556 22.5485 14.739 22.4284 14.6706L17.7855 11.9696ZM21.8151 10.5271L26.6782 13.2676V12.2374C26.6782 12.1773 26.6676 12.1083 26.7238 12.0693L29.2208 10.3318L24.3823 7.66854L21.8151 9.38538V10.5271ZM17.7855 11.9696V13.1264L22.6266 15.8922V14.8335C22.6266 14.7801 22.621 14.73 22.6738 14.6949L25.2747 12.9611L20.441 10.2372L17.7855 11.9696ZM18.6956 17.3568L21.2978 15.6183L16.4436 12.845L13.6997 14.6352C13.6984 20.1014 13.7273 25.5761 13.6952 31.0413C13.6918 31.6096 13.7154 31.5028 14.21 31.7927L18.2648 34.1696C18.654 34.3996 18.649 34.4326 18.6435 33.9055L18.6474 17.4935C18.6474 17.4411 18.645 17.3905 18.6956 17.3568ZM18.857 17.5024L18.8532 33.9047C18.8548 34.1654 18.8395 34.0154 18.9834 34.0992L31.1093 41.1576C31.2438 41.2359 31.2215 41.2483 31.2215 41.0919V25.2293C31.2237 25.0154 31.229 24.9981 30.9488 24.8364L18.8015 17.7669C18.5618 17.629 18.7706 17.2621 19.0104 17.4L31.1632 24.4726C31.4423 24.6338 31.4508 24.6309 31.718 24.4343L33.6566 23.0081C33.9556 22.8227 33.8654 22.7984 33.6257 22.6615L21.5023 15.7351L18.857 17.5024ZM13.4862 30.8693L13.4901 14.582C13.4887 14.5461 13.5056 14.5104 13.5377 14.4894L16.2382 12.7276L3.50432 5.45253C2.93126 5.12513 2.95186 5.1519 2.37724 5.49265L0.654423 6.5142C0.342126 6.70707 0.378275 6.70696 0.678458 6.88018L13.5946 14.2151C13.8344 14.3529 13.6256 14.7199 13.3858 14.582L0.732345 7.39871C0.376896 7.1936 0.419706 7.13756 0.419695 7.53756L0.419321 21.7386C0.419289 23.1825 0.417172 23.192 1.66273 23.9236L13.4862 30.8693ZM35.4929 22.4261V38.527C35.484 38.809 35.6407 38.7446 35.844 38.5869L37.4957 37.4359C37.8359 37.1988 37.8756 37.2072 37.8738 36.7895L37.8058 20.5863L35.7597 21.991C35.49 22.1631 35.4734 22.2063 35.4929 22.4261ZM39.5927 35.7207L41.3424 34.4864C41.5111 34.3543 41.5791 34.3572 41.5791 34.1096V17.7376L39.6223 19.1683C39.4155 19.3068 39.3179 19.411 39.325 19.6743L39.3028 35.633C39.3005 35.8625 39.3717 35.8766 39.5927 35.7207Z"/>
</mask>
<path d="M26.8584 12.6C26.6172 12.4652 26.8211 12.0966 27.0623 12.2314L38.8794 18.8146C39.0861 18.9301 39.1721 18.9646 39.3756 18.8262L41.4191 17.3321C41.6135 17.2019 41.5745 17.1329 41.3943 17.0325L29.4266 10.4451L26.8886 12.2111V13.3862L37.7432 19.5031C37.9732 19.6327 38.2218 19.7799 38.223 20.0826L38.2865 35.2216L38.7121 35.4741C38.9213 35.5983 38.8818 35.6088 38.8818 35.36V19.5489C38.8713 19.2954 38.8902 19.2987 38.6755 19.1832L26.8584 12.6ZM6.03908 29.7779C8.17286 29.7779 11.6255 30.9439 11.4269 33.599L11.4004 34.3746C12.2346 34.9986 12.8551 35.9091 12.7739 36.9945L12.7267 38.3738C12.6878 39.3958 12.0914 40.3224 11.1166 40.9833C9.0502 42.3842 5.70966 42.3017 3.63722 40.9559C2.6353 40.3052 1.98594 39.4027 1.9914 38.3973L1.99693 37.382C1.19049 36.7694 0.688508 35.971 0.647003 35.0896C0.621417 34.545 0.644212 33.9604 0.644212 33.4108C0.644212 30.8566 3.96345 29.7779 6.03908 29.7779ZM10.9624 34.9039C10.6855 35.3194 10.2962 35.6927 9.82012 36.0069C7.72522 37.3894 4.35296 37.3894 2.25806 36.0069C1.75198 35.6729 1.34396 35.2721 1.06477 34.8249C1.06441 34.9467 1.0635 35.0615 1.07609 35.1837C1.15693 35.9688 1.68136 36.6808 2.48827 37.2133C4.41811 38.4869 7.57387 38.5163 9.50481 37.2287C10.3186 36.6861 10.9277 35.9167 10.9624 34.9039ZM6.03908 30.201C4.24396 30.201 1.2087 31.0808 1.06938 33.2794C1.06618 34.3505 1.6139 35.0762 2.48826 35.6532C4.44334 36.9434 7.63483 36.9434 9.58991 35.6532C10.4278 35.1002 10.9611 34.3538 11.0094 33.5328C11.0911 31.1511 7.9242 30.201 6.03908 30.201ZM11.3823 34.9005C11.3424 36.0675 10.6803 36.9516 9.73665 37.5808C7.77239 38.8906 4.7215 38.9187 2.66087 37.8074C2.9455 38.3627 3.45998 38.8528 4.13154 39.2297C6.0837 40.3251 9.05992 40.2874 10.9369 39.0487C11.7748 38.4958 12.3081 37.7493 12.3564 36.9283C12.3852 36.0909 11.9953 35.434 11.3823 34.9005ZM12.3094 38.2994C12.0325 38.7149 11.6432 39.0883 11.1671 39.4024C9.15821 40.7282 6.01721 40.7708 3.92764 39.5982C3.27175 39.2302 2.74842 38.7586 2.41206 38.2195C2.41176 38.2797 2.41146 38.339 2.41239 38.3983C2.42597 39.25 2.98228 40.0278 3.86412 40.6005C5.79479 41.8542 8.95515 41.9388 10.8814 40.6329C11.6923 40.0832 12.2748 39.3089 12.3094 38.2994ZM8.5808 1.32386L10.4823 0.196345C11.0196 -0.122251 11.2887 -0.0191834 11.8021 0.263409L41.6064 16.6686C41.8848 16.8306 42 17.0486 42 17.3675V34.1097C42 34.5419 41.9398 34.5549 41.6005 34.8203L39.8338 36.0666C39.5593 36.2602 39.3499 36.3431 39.0327 36.1548L38.2886 35.7133L38.2931 36.7963C38.2955 37.3555 38.2738 37.4069 37.7261 37.7886L36.0717 38.9415C35.7769 39.147 35.5437 39.2233 35.2064 39.0219L34.4376 38.5628L34.4418 39.463C34.4442 39.9748 34.4316 40.2219 33.9669 40.5247L32.0496 41.7738C31.7623 41.9609 31.6322 41.9499 31.3301 41.774L18.7834 34.4706C18.6449 34.6737 18.3037 34.4368 18.1596 34.3523L14.123 31.986C13.7902 31.791 13.5067 31.7335 13.4876 31.3085C13.4428 31.3145 13.3958 31.3061 13.3538 31.2815L1.47864 24.3054C0.115279 23.5045 -5.34404e-05 23.4004 1.85618e-08 21.779L0.000395618 6.83564C0.000406309 6.5092 0.0554156 6.367 0.386476 6.18272L2.16504 5.12811C2.87173 4.70905 2.99879 4.67849 3.71444 5.08732L4.14856 5.33535V4.46899C4.14856 4.13592 4.13805 3.94548 4.5021 3.74235L6.30852 2.67123C6.94266 2.29523 7.13265 2.25306 7.7919 2.62457L8.22222 2.86707V1.96686C8.22222 1.6579 8.30478 1.48752 8.5808 1.32386ZM8.64317 2.67437V3.10426L21.6046 10.4085V9.32898C21.6046 9.28966 21.6259 9.25534 21.6576 9.23711L24.1743 7.55407L11.6103 0.638494C11.2425 0.436056 11.0965 0.322531 10.6961 0.559973L8.84554 1.65726C8.55851 1.82746 8.5856 1.88957 8.8621 2.04505L21.6046 9.10757C21.8457 9.24237 21.6419 9.61095 21.4007 9.47616L8.9201 2.56088C8.62654 2.39154 8.63871 2.36122 8.64317 2.67437ZM4.82197 4.47813L17.7855 11.6608C18.0255 11.7978 17.8184 12.1647 17.5783 12.0278L4.72266 4.90639C4.56447 4.81643 4.56951 4.89578 4.56951 5.06679V5.57581L17.575 13.0061V11.9104C17.575 11.8656 17.6027 11.8272 17.6419 11.8119L20.2343 10.1206L7.59239 2.99651C7.0679 2.70089 7.0288 2.73448 6.52575 3.03277L4.79108 4.06135C4.4572 4.26634 4.54714 4.33341 4.82197 4.47813ZM35.0719 38.2953V22.4306C35.0719 22.1824 35.0402 22.1366 34.7845 22.0023L22.837 14.948C22.597 14.811 22.8041 14.4441 23.0442 14.5811L35.0339 21.6594C35.2629 21.7896 35.2894 21.8026 35.5229 21.6423L37.6326 20.194C37.8266 20.0506 37.7668 20.0012 37.5654 19.8874L25.4806 13.0772L22.837 14.8394V16.0124L33.9161 22.3421C34.2455 22.5303 34.3628 22.6511 34.3647 23.0508L34.4353 38.0701L34.9601 38.3835C35.1024 38.4685 35.0719 38.4681 35.0719 38.2953ZM33.9467 23.3178L31.9664 24.7748C31.7173 24.9666 31.6424 24.9874 31.6424 25.2428V41.3258C31.6424 41.4609 31.6959 41.5007 31.8697 41.3884L33.7585 40.1578C34.0738 39.9524 34.0243 39.8429 34.0227 39.5077C33.9974 34.1111 33.972 28.7145 33.9467 23.3178ZM14.5787 15.2675C14.5283 15.2385 13.6988 14.7507 13.7276 14.7C12.3187 13.5283 14.6327 15.0551 14.6831 15.084L18.6068 17.2165C18.7267 17.2855 18.6223 17.4689 18.5024 17.4L14.5787 15.2675ZM21.8151 9.6C21.6945 9.53208 21.7972 9.34777 21.9178 9.41571L26.6627 12.0268C26.7833 12.0947 26.6805 12.279 26.5599 12.2111L21.8151 9.6ZM17.7855 11.9696C17.6654 11.9012 17.769 11.7177 17.8891 11.7862L22.532 14.4871C22.652 14.5556 22.5485 14.739 22.4284 14.6706L17.7855 11.9696ZM21.8151 10.5271L26.6782 13.2676V12.2374C26.6782 12.1773 26.6676 12.1083 26.7238 12.0693L29.2208 10.3318L24.3823 7.66854L21.8151 9.38538V10.5271ZM17.7855 11.9696V13.1264L22.6266 15.8922V14.8335C22.6266 14.7801 22.621 14.73 22.6738 14.6949L25.2747 12.9611L20.441 10.2372L17.7855 11.9696ZM18.6956 17.3568L21.2978 15.6183L16.4436 12.845L13.6997 14.6352C13.6984 20.1014 13.7273 25.5761 13.6952 31.0413C13.6918 31.6096 13.7154 31.5028 14.21 31.7927L18.2648 34.1696C18.654 34.3996 18.649 34.4326 18.6435 33.9055L18.6474 17.4935C18.6474 17.4411 18.645 17.3905 18.6956 17.3568ZM18.857 17.5024L18.8532 33.9047C18.8548 34.1654 18.8395 34.0154 18.9834 34.0992L31.1093 41.1576C31.2438 41.2359 31.2215 41.2483 31.2215 41.0919V25.2293C31.2237 25.0154 31.229 24.9981 30.9488 24.8364L18.8015 17.7669C18.5618 17.629 18.7706 17.2621 19.0104 17.4L31.1632 24.4726C31.4423 24.6338 31.4508 24.6309 31.718 24.4343L33.6566 23.0081C33.9556 22.8227 33.8654 22.7984 33.6257 22.6615L21.5023 15.7351L18.857 17.5024ZM13.4862 30.8693L13.4901 14.582C13.4887 14.5461 13.5056 14.5104 13.5377 14.4894L16.2382 12.7276L3.50432 5.45253C2.93126 5.12513 2.95186 5.1519 2.37724 5.49265L0.654423 6.5142C0.342126 6.70707 0.378275 6.70696 0.678458 6.88018L13.5946 14.2151C13.8344 14.3529 13.6256 14.7199 13.3858 14.582L0.732345 7.39871C0.376896 7.1936 0.419706 7.13756 0.419695 7.53756L0.419321 21.7386C0.419289 23.1825 0.417172 23.192 1.66273 23.9236L13.4862 30.8693ZM35.4929 22.4261V38.527C35.484 38.809 35.6407 38.7446 35.844 38.5869L37.4957 37.4359C37.8359 37.1988 37.8756 37.2072 37.8738 36.7895L37.8058 20.5863L35.7597 21.991C35.49 22.1631 35.4734 22.2063 35.4929 22.4261ZM39.5927 35.7207L41.3424 34.4864C41.5111 34.3543 41.5791 34.3572 41.5791 34.1096V17.7376L39.6223 19.1683C39.4155 19.3068 39.3179 19.411 39.325 19.6743L39.3028 35.633C39.3005 35.8625 39.3717 35.8766 39.5927 35.7207Z" fill="#000"/>
<path d="M26.8584 12.6L26.6632 12.9492L26.6637 12.9494L26.8584 12.6ZM27.0623 12.2314L26.8671 12.5806L26.8676 12.5809L27.0623 12.2314ZM38.8794 18.8146L39.0745 18.4654L39.0741 18.4652L38.8794 18.8146ZM39.3756 18.8262L39.6006 19.1572L39.6117 19.1491L39.3756 18.8262ZM41.4191 17.3321L41.1965 16.9998L41.1897 17.0043L41.183 17.0092L41.4191 17.3321ZM41.3943 17.0325L41.589 16.683L41.5872 16.6821L41.3943 17.0325ZM29.4266 10.4451L29.6195 10.0947L29.4019 9.97494L29.1981 10.1168L29.4266 10.4451ZM26.8886 12.2111L26.6602 11.8827L26.4886 12.0021V12.2111H26.8886ZM26.8886 13.3862H26.4886V13.6199L26.6923 13.7347L26.8886 13.3862ZM37.7432 19.5031L37.5469 19.8516V19.8516L37.7432 19.5031ZM38.223 20.0826L37.823 20.0842V20.0843L38.223 20.0826ZM38.2865 35.2216L37.8865 35.2233L37.8875 35.4499L38.0824 35.5656L38.2865 35.2216ZM38.7121 35.4741L38.508 35.8181H38.508L38.7121 35.4741ZM38.8818 19.5489H39.2818V19.5406L39.2815 19.5324L38.8818 19.5489ZM38.6755 19.1832L38.4808 19.5327L38.4861 19.5355L38.6755 19.1832ZM11.4269 33.599L11.028 33.5691L11.0274 33.5772L11.0272 33.5853L11.4269 33.599ZM11.4004 34.3746L11.0006 34.3609L10.9934 34.5697L11.1608 34.6949L11.4004 34.3746ZM12.7739 36.9945L12.375 36.9647L12.3744 36.9727L12.3742 36.9808L12.7739 36.9945ZM12.7267 38.3738L13.1264 38.389L13.1264 38.3875L12.7267 38.3738ZM11.1166 40.9833L11.341 41.3144L11.1166 40.9833ZM3.63722 40.9559L3.41937 41.2913H3.41937L3.63722 40.9559ZM1.9914 38.3973L1.5914 38.3951V38.3951L1.9914 38.3973ZM1.99693 37.382L2.39692 37.3842L2.39801 37.1844L2.23889 37.0635L1.99693 37.382ZM0.647003 35.0896L0.247444 35.1084L0.247446 35.1084L0.647003 35.0896ZM10.9624 34.9039L11.3622 34.9176L11.4105 33.5106L10.6296 34.6821L10.9624 34.9039ZM9.82012 36.0069L9.5998 35.6731L9.82012 36.0069ZM2.25806 36.0069L2.03774 36.3408H2.03774L2.25806 36.0069ZM1.06477 34.8249L1.40408 34.6131L0.66892 33.4355L0.664776 34.8237L1.06477 34.8249ZM1.07609 35.1837L0.678189 35.2247L0.67819 35.2247L1.07609 35.1837ZM2.48827 37.2133L2.70859 36.8794H2.70859L2.48827 37.2133ZM9.50481 37.2287L9.28289 36.8959H9.28289L9.50481 37.2287ZM1.06938 33.2794L0.670182 33.2541L0.66942 33.2661L0.669384 33.2782L1.06938 33.2794ZM2.48826 35.6532L2.26793 35.9871L2.26793 35.9871L2.48826 35.6532ZM9.58991 35.6532L9.36959 35.3194L9.58991 35.6532ZM11.0094 33.5328L11.4089 33.5563L11.4092 33.5465L11.0094 33.5328ZM11.3823 34.9005L11.645 34.5988L11.0113 34.0472L10.9826 34.8868L11.3823 34.9005ZM9.73665 37.5808L9.51474 37.248H9.51473L9.73665 37.5808ZM2.66087 37.8074L2.85074 37.4553L1.7178 36.8443L2.30489 37.9898L2.66087 37.8074ZM4.13154 39.2297L3.9358 39.5785H3.9358L4.13154 39.2297ZM10.9369 39.0487L11.1572 39.3826L10.9369 39.0487ZM12.3564 36.9283L12.7559 36.9518L12.7562 36.9421L12.3564 36.9283ZM12.3094 38.2994L12.7092 38.3131L12.7575 36.9061L11.9766 38.0776L12.3094 38.2994ZM11.1671 39.4024L11.3874 39.7363V39.7363L11.1671 39.4024ZM3.92764 39.5982L3.73189 39.9471H3.7319L3.92764 39.5982ZM2.41206 38.2195L2.75142 38.0077L2.01894 36.8338L2.01206 38.2175L2.41206 38.2195ZM2.41239 38.3983L2.01244 38.4046L2.01244 38.4047L2.41239 38.3983ZM3.86412 40.6005L3.64627 40.936H3.64627L3.86412 40.6005ZM10.8814 40.6329L11.1059 40.964H11.1059L10.8814 40.6329ZM8.5808 1.32386L8.78481 1.66792L8.78481 1.66792L8.5808 1.32386ZM10.4823 0.196345L10.6863 0.540408L10.6863 0.540406L10.4823 0.196345ZM11.8021 0.263409L11.995 -0.0870137L11.995 -0.0870162L11.8021 0.263409ZM41.6064 16.6686L41.8076 16.3228L41.7993 16.3182L41.6064 16.6686ZM41.6005 34.8203L41.8311 35.1471L41.8391 35.1414L41.8469 35.1353L41.6005 34.8203ZM39.8338 36.0666L40.0643 36.3934L40.0643 36.3934L39.8338 36.0666ZM39.0327 36.1548L38.8285 36.4988L38.8285 36.4988L39.0327 36.1548ZM38.2886 35.7133L38.4927 35.3693L37.8856 35.0091L37.8886 35.715L38.2886 35.7133ZM38.2931 36.7963L38.6931 36.7946V36.7946L38.2931 36.7963ZM37.7261 37.7886L37.9548 38.1168L37.9548 38.1168L37.7261 37.7886ZM36.0717 38.9415L35.843 38.6133L35.843 38.6133L36.0717 38.9415ZM35.2064 39.0219L35.0013 39.3653H35.0013L35.2064 39.0219ZM34.4376 38.5628L34.6427 38.2193L34.0343 37.856L34.0376 38.5646L34.4376 38.5628ZM34.4418 39.463L34.0418 39.4648V39.4649L34.4418 39.463ZM33.9669 40.5247L33.7485 40.1895L33.7485 40.1895L33.9669 40.5247ZM32.0496 41.7738L32.2679 42.109L32.2679 42.109L32.0496 41.7738ZM31.3301 41.774L31.1288 42.1197L31.1288 42.1197L31.3301 41.774ZM18.7834 34.4706L18.9847 34.1249L18.6628 33.9375L18.453 34.2452L18.7834 34.4706ZM18.1596 34.3523L17.9573 34.6974L17.9573 34.6974L18.1596 34.3523ZM14.123 31.986L14.3252 31.641L14.3252 31.641L14.123 31.986ZM13.4876 31.3085L13.8872 31.2906L13.8676 30.8538L13.4343 30.9121L13.4876 31.3085ZM13.3538 31.2815L13.1512 31.6264L13.1514 31.6265L13.3538 31.2815ZM1.47864 24.3054L1.68125 23.9605H1.68125L1.47864 24.3054ZM1.85618e-08 21.779L0.4 21.779V21.779L1.85618e-08 21.779ZM0.000395618 6.83564L-0.399604 6.83563V6.83563L0.000395618 6.83564ZM0.386476 6.18272L0.581099 6.53235L0.590489 6.52678L0.386476 6.18272ZM2.16504 5.12811L2.36906 5.47217L2.36906 5.47216L2.16504 5.12811ZM3.71444 5.08732L3.91288 4.74001L3.91286 4.74L3.71444 5.08732ZM4.14856 5.33535L3.95013 5.68266L4.54856 6.02457V5.33535H4.14856ZM4.5021 3.74235L4.69707 4.09177L4.70611 4.08641L4.5021 3.74235ZM6.30852 2.67123L6.10451 2.32716L6.10451 2.32716L6.30852 2.67123ZM7.7919 2.62457L7.59551 2.97305L7.59552 2.97305L7.7919 2.62457ZM8.22222 2.86707L8.02585 3.21555L8.62222 3.55161V2.86707H8.22222ZM8.64317 2.67437H9.04321L9.04313 2.66867L8.64317 2.67437ZM8.64317 3.10426H8.24317V3.33799L8.44679 3.45274L8.64317 3.10426ZM21.6046 10.4085L21.4082 10.7569L22.0046 11.093V10.4085H21.6046ZM21.6576 9.23711L21.8571 9.58385L21.8688 9.57712L21.88 9.56961L21.6576 9.23711ZM24.1743 7.55407L24.3966 7.88656L24.9435 7.52086L24.3672 7.20364L24.1743 7.55407ZM11.6103 0.638494L11.8032 0.288071L11.8032 0.288068L11.6103 0.638494ZM10.6961 0.559973L10.9001 0.904036L10.9001 0.904033L10.6961 0.559973ZM8.84554 1.65726L8.64153 1.3132V1.3132L8.84554 1.65726ZM8.8621 2.04505L8.66604 2.39371L8.66819 2.39491L8.8621 2.04505ZM21.6046 9.10757L21.7997 8.75841L21.7985 8.75772L21.6046 9.10757ZM21.4007 9.47616L21.5958 9.12699L21.5946 9.12627L21.4007 9.47616ZM8.9201 2.56088L8.7202 2.90742L8.72624 2.91076L8.9201 2.56088ZM4.82197 4.47813L5.01588 4.12816L5.00834 4.12419L4.82197 4.47813ZM17.7855 11.6608L17.9837 11.3134L17.9793 11.311L17.7855 11.6608ZM17.5783 12.0278L17.7765 11.6803L17.7721 11.6779L17.5783 12.0278ZM4.72266 4.90639L4.52491 5.25412L4.52883 5.25629L4.72266 4.90639ZM4.56951 5.57581H4.16951V5.80796L4.37108 5.92313L4.56951 5.57581ZM17.575 13.0061L17.3766 13.3534L17.975 13.6953V13.0061H17.575ZM17.6419 11.8119L17.7882 12.1842L17.8262 12.1692L17.8605 12.1469L17.6419 11.8119ZM20.2343 10.1206L20.4528 10.4556L21.0047 10.0956L20.4306 9.77216L20.2343 10.1206ZM7.59239 2.99651L7.39598 3.34497L7.39601 3.34498L7.59239 2.99651ZM6.52575 3.03277L6.72977 3.37683L6.72977 3.37683L6.52575 3.03277ZM4.79108 4.06135L4.58704 3.71725L4.58179 3.72047L4.79108 4.06135ZM34.7845 22.0023L34.5811 22.3468L34.5897 22.3519L34.5986 22.3565L34.7845 22.0023ZM22.837 14.948L23.0404 14.6035L23.0353 14.6006L22.837 14.948ZM23.0442 14.5811L23.2476 14.2366L23.2424 14.2336L23.0442 14.5811ZM35.0339 21.6594L34.8305 22.0039L34.8361 22.0071L35.0339 21.6594ZM35.5229 21.6423L35.2965 21.3125L35.2965 21.3125L35.5229 21.6423ZM37.6326 20.194L37.8591 20.5239L37.8703 20.5157L37.6326 20.194ZM37.5654 19.8874L37.7622 19.5391L37.7618 19.5389L37.5654 19.8874ZM25.4806 13.0772L25.677 12.7287L25.4631 12.6081L25.2588 12.7443L25.4806 13.0772ZM22.837 14.8394L22.6152 14.5066L22.437 14.6253V14.8394H22.837ZM22.837 16.0124H22.437V16.2446L22.6386 16.3598L22.837 16.0124ZM33.9161 22.3421L34.1145 21.9948L34.1145 21.9948L33.9161 22.3421ZM34.3647 23.0508L34.7647 23.0489V23.0489L34.3647 23.0508ZM34.4353 38.0701L34.0353 38.072L34.0364 38.2978L34.2302 38.4135L34.4353 38.0701ZM34.9601 38.3835L34.755 38.7269L34.755 38.7269L34.9601 38.3835ZM33.9467 23.3178L34.3467 23.3159L34.343 22.5297L33.7096 22.9956L33.9467 23.3178ZM31.9664 24.7748L31.7293 24.4525L31.7223 24.4579L31.9664 24.7748ZM31.8697 41.3884L32.0868 41.7243L32.0881 41.7235L31.8697 41.3884ZM33.7585 40.1578L33.9769 40.4929L33.9769 40.4929L33.7585 40.1578ZM34.0227 39.5077L34.4227 39.5058V39.5058L34.0227 39.5077ZM14.5787 15.2675L14.3793 15.6144L14.3877 15.6189L14.5787 15.2675ZM13.7276 14.7L14.0753 14.8978L14.2409 14.6066L13.9834 14.3924L13.7276 14.7ZM14.6831 15.084L14.4837 15.4309L14.4921 15.4355L14.6831 15.084ZM18.6068 17.2165L18.8063 16.8697L18.7978 16.8651L18.6068 17.2165ZM18.5024 17.4L18.7019 17.0531L18.6934 17.0486L18.5024 17.4ZM21.8151 9.6L21.6187 9.94852L21.6222 9.95044L21.8151 9.6ZM21.9178 9.41571L21.7215 9.76422L21.725 9.76616L21.9178 9.41571ZM26.6627 12.0268L26.8591 11.6783L26.8556 11.6763L26.6627 12.0268ZM26.5599 12.2111L26.7563 11.8626L26.7528 11.8606L26.5599 12.2111ZM17.8891 11.7862L18.0902 11.4404L18.0873 11.4387L17.8891 11.7862ZM22.532 14.4871L22.3309 14.8328L22.3338 14.8345L22.532 14.4871ZM22.4284 14.6706L22.2273 15.0163L22.2302 15.018L22.4284 14.6706ZM21.8151 10.5271H21.4151V10.7608L21.6187 10.8755L21.8151 10.5271ZM26.6782 13.2676L26.4818 13.6161L27.0782 13.9522V13.2676H26.6782ZM26.7238 12.0693L26.9519 12.3979L26.9523 12.3976L26.7238 12.0693ZM29.2208 10.3318L29.4493 10.6601L29.9782 10.2921L29.4137 9.98139L29.2208 10.3318ZM24.3823 7.66854L24.5751 7.31812L24.3621 7.20083L24.1599 7.33604L24.3823 7.66854ZM21.8151 9.38538L21.5927 9.05289L21.4151 9.17168V9.38538H21.8151ZM17.7855 13.1264H17.3855V13.3585L17.587 13.4737L17.7855 13.1264ZM22.6266 15.8922L22.4282 16.2395L23.0266 16.5814V15.8922H22.6266ZM22.6738 14.6949L22.8954 15.0279L22.8957 15.0277L22.6738 14.6949ZM25.2747 12.9611L25.4966 13.294L26.0388 12.9325L25.4711 12.6126L25.2747 12.9611ZM20.441 10.2372L20.6374 9.88869L20.4259 9.76947L20.2225 9.90216L20.441 10.2372ZM18.6956 17.3568L18.9172 17.6899L18.9178 17.6894L18.6956 17.3568ZM21.2978 15.6183L21.52 15.9509L22.0576 15.5918L21.4962 15.271L21.2978 15.6183ZM16.4436 12.845L16.6421 12.4977L16.4298 12.3765L16.2251 12.51L16.4436 12.845ZM13.6997 14.6352L13.4811 14.3002L13.2997 14.4185L13.2997 14.6351L13.6997 14.6352ZM13.6952 31.0413L14.0952 31.0437V31.0436L13.6952 31.0413ZM14.21 31.7927L14.4122 31.4476L14.4122 31.4476L14.21 31.7927ZM18.2648 34.1696L18.4683 33.8253L18.4671 33.8245L18.2648 34.1696ZM18.6435 33.9055L18.2435 33.9054L18.2436 33.9097L18.6435 33.9055ZM18.6474 17.4935L19.0474 17.4935V17.4935L18.6474 17.4935ZM18.857 17.5024L18.6348 17.1698L18.4571 17.2886L18.457 17.5023L18.857 17.5024ZM18.8532 33.9047L18.4532 33.9046L18.4532 33.9071L18.8532 33.9047ZM18.9834 34.0992L18.7822 34.4449L18.7822 34.4449L18.9834 34.0992ZM31.1093 41.1576L30.9081 41.5033H30.9081L31.1093 41.1576ZM31.2215 25.2293L30.8215 25.2252V25.2293H31.2215ZM30.9488 24.8364L30.7476 25.1821L30.7488 25.1828L30.9488 24.8364ZM18.8015 17.7669L19.0027 17.4212L19.0009 17.4202L18.8015 17.7669ZM19.0104 17.4L19.2116 17.0543L19.2098 17.0532L19.0104 17.4ZM31.1632 24.4726L30.962 24.8184L30.9633 24.8191L31.1632 24.4726ZM31.718 24.4343L31.481 24.1121L31.481 24.1121L31.718 24.4343ZM33.6566 23.0081L33.4458 22.6681L33.4323 22.6765L33.4195 22.6859L33.6566 23.0081ZM33.6257 22.6615L33.4273 23.0088L33.4273 23.0088L33.6257 22.6615ZM21.5023 15.7351L21.7008 15.3878L21.4859 15.2651L21.2801 15.4025L21.5023 15.7351ZM13.4862 30.8693L13.2836 31.2142L13.886 31.5681L13.8862 30.8694L13.4862 30.8693ZM13.4901 14.582L13.8901 14.5821L13.8901 14.5744L13.8898 14.5667L13.4901 14.582ZM13.5377 14.4894L13.3192 14.1544L13.319 14.1545L13.5377 14.4894ZM16.2382 12.7276L16.4568 13.0627L17.0049 12.705L16.4366 12.3803L16.2382 12.7276ZM3.50432 5.45253L3.70275 5.10522L3.70275 5.10521L3.50432 5.45253ZM2.37724 5.49265L2.58126 5.83671L2.58127 5.8367L2.37724 5.49265ZM0.654423 6.5142L0.450377 6.17008L0.444238 6.17387L0.654423 6.5142ZM0.678458 6.88018L0.478526 7.22664L0.480933 7.22801L0.678458 6.88018ZM13.5946 14.2151L13.794 13.8683L13.7922 13.8672L13.5946 14.2151ZM13.3858 14.582L13.5852 14.2352L13.5833 14.2341L13.3858 14.582ZM0.732345 7.39871L0.532416 7.74518L0.53487 7.74657L0.732345 7.39871ZM0.419695 7.53756L0.0196954 7.53755V7.53755L0.419695 7.53756ZM0.419321 21.7386L0.0193212 21.7386V21.7386L0.419321 21.7386ZM1.66273 23.9236L1.86534 23.5787L1.86533 23.5787L1.66273 23.9236ZM35.4929 22.4261H35.8929V22.4084L35.8913 22.3908L35.4929 22.4261ZM35.4929 38.527L35.8929 38.5396V38.527H35.4929ZM35.844 38.5869L35.6153 38.2588L35.6069 38.2646L35.5989 38.2708L35.844 38.5869ZM37.4957 37.4359L37.267 37.1077L37.267 37.1077L37.4957 37.4359ZM37.8738 36.7895L37.4738 36.7912V36.7912L37.8738 36.7895ZM37.8058 20.5863L38.2058 20.5846L38.2026 19.8287L37.5794 20.2565L37.8058 20.5863ZM35.7597 21.991L35.975 22.3283L35.986 22.3208L35.7597 21.991ZM39.5927 35.7207L39.3621 35.3938L39.3621 35.3938L39.5927 35.7207ZM41.3424 34.4864L41.5729 34.8132L41.5811 34.8075L41.5889 34.8014L41.3424 34.4864ZM41.5791 17.7376H41.9791V16.9496L41.343 17.4147L41.5791 17.7376ZM39.6223 19.1683L39.8449 19.5007L39.8517 19.4961L39.8584 19.4912L39.6223 19.1683ZM39.325 19.6743L39.7252 19.6748L39.7249 19.6634L39.325 19.6743ZM39.3028 35.633L39.7028 35.6369L39.7028 35.6336L39.3028 35.633ZM27.0535 12.2508C27.09 12.2712 27.1317 12.3175 27.1457 12.3827C27.1575 12.4377 27.1444 12.4812 27.1295 12.5082C27.1146 12.5352 27.0843 12.5701 27.0301 12.5896C26.9659 12.6127 26.9036 12.601 26.8671 12.5806L27.2574 11.8823C27.1004 11.7945 26.9221 11.7783 26.7595 11.8368C26.6067 11.8917 26.4953 12.0019 26.4294 12.121C26.3635 12.2401 26.3296 12.3926 26.3635 12.5505C26.3995 12.7185 26.5062 12.8614 26.6632 12.9492L27.0535 12.2508ZM26.8676 12.5809L38.6848 19.1641L39.0741 18.4652L27.2569 11.882L26.8676 12.5809ZM38.6844 19.1638C38.7715 19.2125 38.9218 19.3005 39.0971 19.3144C39.3038 19.3307 39.4695 19.2461 39.6005 19.157L39.1508 18.4954C39.115 18.5197 39.1023 18.524 39.1054 18.5228C39.1081 18.5219 39.1153 18.5195 39.1262 18.518C39.1373 18.5163 39.1491 18.516 39.1603 18.5169C39.1821 18.5186 39.1899 18.5242 39.1734 18.5171C39.1652 18.5136 39.1535 18.508 39.1364 18.4991C39.1192 18.4902 39.0994 18.4793 39.0745 18.4654L38.6844 19.1638ZM39.6117 19.1491L41.6552 17.655L41.183 17.0092L39.1395 18.5033L39.6117 19.1491ZM41.6417 17.6644C41.7027 17.6236 41.777 17.5675 41.8362 17.4928C41.8998 17.4125 41.9713 17.2759 41.9413 17.1029C41.9144 16.9471 41.8184 16.8489 41.7643 16.8018C41.7063 16.7512 41.6407 16.7119 41.589 16.6831L41.1996 17.3819C41.238 17.4033 41.2449 17.4102 41.2388 17.4049C41.2366 17.403 41.172 17.349 41.153 17.2393C41.1311 17.1124 41.1871 17.0237 41.209 16.9961C41.2264 16.9742 41.2327 16.9755 41.1965 16.9998L41.6417 17.6644ZM41.5872 16.6821L29.6195 10.0947L29.2337 10.7955L41.2014 17.3829L41.5872 16.6821ZM29.1981 10.1168L26.6602 11.8827L27.1171 12.5394L29.6551 10.7734L29.1981 10.1168ZM26.4886 12.2111V13.3862H27.2886V12.2111H26.4886ZM26.6923 13.7347L37.5469 19.8516L37.9396 19.1547L27.085 13.0377L26.6923 13.7347ZM37.5469 19.8516C37.6681 19.92 37.7398 19.9647 37.7864 20.0111C37.8192 20.0439 37.8229 20.0599 37.823 20.0842L38.623 20.081C38.6207 19.5129 38.1288 19.2613 37.9396 19.1547L37.5469 19.8516ZM37.823 20.0843L37.8865 35.2233L38.6865 35.2199L38.623 20.0809L37.823 20.0843ZM38.0824 35.5656L38.508 35.8181L38.9162 35.1301L38.4906 34.8776L38.0824 35.5656ZM38.508 35.8181C38.5333 35.8331 38.6061 35.8783 38.6298 35.8918C38.6451 35.9004 38.6898 35.9259 38.7457 35.9422C38.7966 35.957 38.9667 35.9956 39.1246 35.8698C39.2567 35.7647 39.2755 35.6206 39.2791 35.5958C39.2854 35.5522 39.2849 35.5118 39.2847 35.4948C39.2838 35.4338 39.2818 35.4276 39.2818 35.36H38.4818C38.4818 35.4168 38.4847 35.5025 38.4848 35.5057C38.485 35.5207 38.4838 35.5054 38.4874 35.4806C38.4894 35.4669 38.4948 35.4355 38.5107 35.397C38.5271 35.3573 38.5606 35.2963 38.6262 35.244C38.776 35.1248 38.9347 35.164 38.9698 35.1742C39.0099 35.1859 39.0344 35.2015 39.024 35.1956C39.0191 35.1928 39.0106 35.1877 38.9895 35.1746C38.9707 35.163 38.9457 35.1476 38.9162 35.1301L38.508 35.8181ZM39.2818 35.36V19.5489H38.4818V35.36H39.2818ZM39.2815 19.5324C39.2795 19.4846 39.2779 19.416 39.274 19.3682C39.2696 19.3155 39.2592 19.2246 39.2105 19.1305C39.158 19.029 39.0836 18.9657 39.0253 18.9251C38.9741 18.8895 38.9131 18.8568 38.865 18.8309L38.4861 19.5355C38.513 19.55 38.5321 19.5604 38.5472 19.569C38.5544 19.5731 38.5596 19.5762 38.5633 19.5785C38.5671 19.5808 38.5685 19.5819 38.5684 19.5818C38.5682 19.5816 38.5657 19.5799 38.5617 19.5766C38.5577 19.5732 38.5517 19.568 38.5446 19.5607C38.5375 19.5533 38.5296 19.5441 38.5216 19.5332C38.5136 19.5222 38.5063 19.5104 38.4999 19.498C38.4869 19.4729 38.4809 19.4516 38.4782 19.4396C38.4769 19.4338 38.4764 19.4302 38.4763 19.4294C38.4762 19.4287 38.4764 19.43 38.4767 19.4339C38.477 19.4378 38.4774 19.4434 38.4778 19.4514C38.4782 19.4593 38.4786 19.4686 38.479 19.48C38.4794 19.4917 38.4798 19.5036 38.4804 19.5184C38.4809 19.5326 38.4814 19.5484 38.4821 19.5655L39.2815 19.5324ZM38.8702 18.8338L27.053 12.2506L26.6637 12.9494L38.4809 19.5327L38.8702 18.8338ZM6.03908 30.1779C7.04764 30.1779 8.37456 30.4564 9.4111 31.0412C10.4449 31.6244 11.1111 32.4579 11.028 33.5691L11.8258 33.6288C11.9413 32.0849 10.9805 31.008 9.80416 30.3444C8.63058 29.6823 7.1643 29.3779 6.03908 29.3779V30.1779ZM11.0272 33.5853L11.0006 34.3609L11.8001 34.3883L11.8267 33.6127L11.0272 33.5853ZM11.1608 34.6949C11.9314 35.2713 12.4424 36.0642 12.375 36.9647L13.1728 37.0243C13.2678 35.7541 12.5378 34.7259 11.6399 34.0543L11.1608 34.6949ZM12.3742 36.9808L12.3269 38.3601L13.1264 38.3875L13.1737 37.0082L12.3742 36.9808ZM12.327 38.3586C12.294 39.2243 11.7883 40.0447 10.8921 40.6522L11.341 41.3144C12.3946 40.6002 13.0815 39.5673 13.1264 38.389L12.327 38.3586ZM10.8921 40.6522C9.9413 41.2968 8.67451 41.6127 7.38324 41.5996C6.09236 41.5865 4.81656 41.2448 3.85507 40.6204L3.41937 41.2913C4.53032 42.0128 5.96101 42.3852 7.37511 42.3996C8.78882 42.4139 10.2255 42.0707 11.341 41.3144L10.8921 40.6522ZM3.85507 40.6204C2.91731 40.0114 2.38694 39.2181 2.39139 38.3994L1.5914 38.3951C1.58493 39.5873 2.35329 40.599 3.41937 41.2913L3.85507 40.6204ZM2.39139 38.3994L2.39692 37.3842L1.59693 37.3799L1.5914 38.3951L2.39139 38.3994ZM2.23889 37.0635C1.49911 36.5016 1.08105 35.8031 1.04656 35.0708L0.247446 35.1084C0.295972 36.1389 0.881862 37.0373 1.75496 37.7006L2.23889 37.0635ZM1.04656 35.0708C1.02152 34.5379 1.04421 33.9832 1.04421 33.4108H0.244212C0.244212 33.9376 0.221312 34.5522 0.247444 35.1084L1.04656 35.0708ZM1.04421 33.4108C1.04421 32.3393 1.73205 31.5407 2.75353 30.9884C3.77592 30.4356 5.05739 30.1779 6.03908 30.1779V29.3779C4.94514 29.3779 3.52917 29.6595 2.37304 30.2846C1.21599 30.9102 0.244212 31.9281 0.244212 33.4108H1.04421ZM10.6296 34.6821C10.387 35.0461 10.0389 35.3833 9.5998 35.6731L10.0404 36.3408C10.5536 36.0021 10.984 35.5927 11.2953 35.1258L10.6296 34.6821ZM9.5998 35.6731C8.63068 36.3126 7.34465 36.6438 6.03909 36.6438C4.73353 36.6438 3.4475 36.3126 2.47838 35.6731L2.03774 36.3408C3.16352 37.0837 4.61107 37.4438 6.03909 37.4438C7.46711 37.4438 8.91466 37.0837 10.0404 36.3408L9.5998 35.6731ZM2.47839 35.6731C2.01152 35.365 1.64773 35.0034 1.40408 34.6131L0.725464 35.0367C1.04019 35.5409 1.49244 35.9809 2.03774 36.3408L2.47839 35.6731ZM0.664776 34.8237C0.664426 34.9408 0.663041 35.0776 0.678189 35.2247L1.47398 35.1428C1.46396 35.0454 1.46439 34.9526 1.46477 34.8261L0.664776 34.8237ZM0.67819 35.2247C0.77523 36.1671 1.39791 36.973 2.26795 37.5471L2.70859 36.8794C1.96481 36.3886 1.53862 35.7705 1.47398 35.1428L0.67819 35.2247ZM2.26795 37.5471C3.31076 38.2353 4.6623 38.5756 5.99436 38.5814C7.32627 38.5873 8.68068 38.2591 9.72672 37.5615L9.28289 36.8959C8.398 37.486 7.20906 37.7868 5.99789 37.7814C4.78688 37.7761 3.59562 37.4648 2.70859 36.8794L2.26795 37.5471ZM9.72672 37.5615C10.6045 36.9762 11.3215 36.1035 11.3622 34.9176L10.5627 34.8902C10.5339 35.7298 10.0326 36.396 9.28289 36.8959L9.72672 37.5615ZM6.03908 29.801C5.08921 29.801 3.81944 30.0313 2.75601 30.5571C1.69747 31.0805 0.752942 31.948 0.670182 33.2541L1.46858 33.3047C1.52514 32.4122 2.16789 31.7404 3.1106 31.2743C4.04841 30.8105 5.19383 30.601 6.03908 30.601V29.801ZM0.669384 33.2782C0.665661 34.5255 1.32053 35.3618 2.26793 35.9871L2.70858 35.3194C1.90727 34.7905 1.46671 34.1756 1.46938 33.2806L0.669384 33.2782ZM2.26793 35.9871C3.32452 36.6843 4.69227 37.0209 6.03908 37.0209C7.3859 37.0209 8.75365 36.6843 9.81023 35.9871L9.36959 35.3194C8.4711 35.9123 7.26556 36.2209 6.03908 36.2209C4.81261 36.2209 3.60707 35.9123 2.70858 35.3194L2.26793 35.9871ZM9.81023 35.9871C10.7134 35.391 11.3506 34.5443 11.4087 33.5563L10.6101 33.5093C10.5717 34.1632 10.1423 34.8094 9.36959 35.3194L9.81023 35.9871ZM11.4092 33.5465C11.4575 32.1379 10.5327 31.1905 9.44807 30.6198C8.36385 30.0492 7.03471 29.801 6.03908 29.801V30.601C6.92857 30.601 8.12544 30.8278 9.07553 31.3277C10.0252 31.8274 10.643 32.546 10.6097 33.5191L11.4092 33.5465ZM10.9826 34.8868C10.9483 35.888 10.3862 36.6669 9.51474 37.248L9.95856 37.9136C10.9744 37.2363 11.7365 36.247 11.7821 34.9142L10.9826 34.8868ZM9.51473 37.248C7.6846 38.4684 4.79317 38.5029 2.85074 37.4553L2.47099 38.1594C4.64984 39.3345 7.86019 39.3128 9.95856 37.9136L9.51473 37.248ZM2.30489 37.9898C2.63436 38.6326 3.21499 39.174 3.9358 39.5785L4.32728 38.8808C3.70497 38.5316 3.25665 38.0928 3.01684 37.6249L2.30489 37.9898ZM3.9358 39.5785C4.985 40.1672 6.29043 40.443 7.57135 40.4144C8.85195 40.3858 10.1428 40.0521 11.1572 39.3826L10.7166 38.7149C9.85402 39.2841 8.71828 39.5886 7.55348 39.6146C6.389 39.6406 5.23024 39.3875 4.32728 38.8808L3.9358 39.5785ZM11.1572 39.3826C12.0604 38.7866 12.6976 37.9399 12.7557 36.9518L11.9571 36.9049C11.9187 37.5587 11.4893 38.205 10.7166 38.7149L11.1572 39.3826ZM12.7562 36.9421C12.7902 35.9511 12.3204 35.1867 11.645 34.5988L11.1197 35.2022C11.6701 35.6813 11.9801 36.2308 11.9567 36.9146L12.7562 36.9421ZM11.9766 38.0776C11.734 38.4416 11.3859 38.7788 10.9468 39.0686L11.3874 39.7363C11.9006 39.3977 12.331 38.9882 12.6423 38.5213L11.9766 38.0776ZM10.9468 39.0686C10.0174 39.6819 8.8071 40.0089 7.56844 40.0373C6.33004 40.0657 5.0956 39.7949 4.12338 39.2494L3.7319 39.9471C4.84925 40.574 6.23009 40.8682 7.58681 40.8371C8.94327 40.8059 10.3079 40.4487 11.3874 39.7363L10.9468 39.0686ZM4.12338 39.2494C3.51344 38.9071 3.04521 38.4786 2.75142 38.0077L2.0727 38.4312C2.45163 39.0385 3.03007 39.5532 3.73189 39.9471L4.12338 39.2494ZM2.01206 38.2175C2.01177 38.277 2.01143 38.3404 2.01244 38.4046L2.81234 38.392C2.81148 38.3375 2.81175 38.2824 2.81205 38.2215L2.01206 38.2175ZM2.01244 38.4047C2.02891 39.4381 2.70069 40.3219 3.64627 40.936L4.08197 40.265C3.26387 39.7337 2.82302 39.062 2.81234 38.3919L2.01244 38.4047ZM3.64627 40.936C4.68682 41.6117 6.0371 41.9612 7.36983 41.9765C8.70205 41.9918 10.0593 41.6735 11.1059 40.964L10.657 40.3018C9.77728 40.8982 8.59122 41.1905 7.37902 41.1766C6.16732 41.1627 4.97209 40.843 4.08197 40.265L3.64627 40.936ZM11.1059 40.964C11.9857 40.3675 12.6688 39.4891 12.7092 38.3131L11.9097 38.2857C11.8807 39.1288 11.3988 39.7989 10.657 40.3018L11.1059 40.964ZM8.78481 1.66792L10.6863 0.540408L10.2783 -0.147718L8.37679 0.979793L8.78481 1.66792ZM10.6863 0.540406C10.9129 0.406079 11.0267 0.393393 11.1086 0.402158C11.216 0.413658 11.3448 0.468281 11.6092 0.613834L11.995 -0.0870162C11.746 -0.224055 11.4836 -0.362262 11.1938 -0.393295C10.8784 -0.427064 10.5891 -0.331985 10.2783 -0.147715L10.6863 0.540406ZM11.6092 0.613832L41.4135 17.019L41.7993 16.3182L11.995 -0.0870137L11.6092 0.613832ZM41.4053 17.0143C41.4962 17.0673 41.5363 17.1145 41.5578 17.1533C41.5801 17.1934 41.6 17.2563 41.6 17.3675H42.4C42.4 17.1598 42.3623 16.9543 42.2574 16.7652C42.1517 16.5747 41.995 16.4319 41.8076 16.3229L41.4053 17.0143ZM41.6 17.3675V34.1097H42.4V17.3675H41.6ZM41.6 34.1097C41.6 34.3293 41.5785 34.331 41.5899 34.313C41.5926 34.3087 41.5882 34.3183 41.5472 34.3531C41.502 34.3915 41.4487 34.4312 41.354 34.5052L41.8469 35.1353C41.922 35.0767 42.0034 35.0152 42.0649 34.963C42.1306 34.9072 42.2049 34.8368 42.2651 34.742C42.3914 34.5432 42.4 34.3223 42.4 34.1097H41.6ZM41.3699 34.4934L39.6032 35.7397L40.0643 36.3934L41.8311 35.1471L41.3699 34.4934ZM39.6032 35.7397C39.4738 35.831 39.4149 35.854 39.3825 35.8595C39.3712 35.8614 39.3351 35.8691 39.2368 35.8108L38.8285 36.4988C39.0475 36.6288 39.2747 36.6892 39.5161 36.6483C39.7363 36.611 39.9193 36.4957 40.0643 36.3934L39.6032 35.7397ZM39.2368 35.8108L38.4927 35.3693L38.0844 36.0573L38.8285 36.4988L39.2368 35.8108ZM37.8886 35.715L37.8931 36.7979L38.6931 36.7946L38.6886 35.7116L37.8886 35.715ZM37.8931 36.7979C37.8944 37.1059 37.8791 37.1419 37.8675 37.1625C37.8626 37.1711 37.8468 37.1955 37.7869 37.2465C37.7246 37.2995 37.6357 37.364 37.4974 37.4604L37.9548 38.1168C38.2046 37.9427 38.4366 37.782 38.5643 37.5555C38.6998 37.3151 38.6942 37.0458 38.6931 36.7946L37.8931 36.7979ZM37.4974 37.4604L35.843 38.6133L36.3004 39.2697L37.9548 38.1168L37.4974 37.4604ZM35.843 38.6133C35.7096 38.7063 35.6407 38.7322 35.5985 38.7383C35.573 38.7419 35.5221 38.7445 35.4115 38.6784L35.0013 39.3653C35.228 39.5006 35.4623 39.5658 35.7114 39.5303C35.9438 39.4971 36.139 39.3822 36.3004 39.2697L35.843 38.6133ZM35.4115 38.6784L34.6427 38.2193L34.2325 38.9062L35.0013 39.3653L35.4115 38.6784ZM34.0376 38.5646L34.0418 39.4648L34.8418 39.4611L34.8376 38.5609L34.0376 38.5646ZM34.0418 39.4649C34.0431 39.7373 34.0355 39.8499 34.0047 39.9326C33.9841 39.9878 33.9393 40.0652 33.7485 40.1895L34.1852 40.8598C34.4592 40.6813 34.653 40.4839 34.7543 40.2119C34.8454 39.9674 34.8429 39.7005 34.8418 39.4611L34.0418 39.4649ZM33.7485 40.1895L31.8312 41.4387L32.2679 42.109L34.1852 40.8598L33.7485 40.1895ZM31.8312 41.4387C31.7045 41.5212 31.6839 41.5098 31.7005 41.5101C31.7073 41.5101 31.6784 41.5139 31.5313 41.4283L31.1288 42.1197C31.2839 42.2099 31.4711 42.3072 31.6903 42.31C31.9193 42.3129 32.1074 42.2135 32.2679 42.109L31.8312 41.4387ZM31.5313 41.4283L18.9847 34.1249L18.5822 34.8163L31.1288 42.1197L31.5313 41.4283ZM18.453 34.2452C18.4686 34.2223 18.4934 34.1973 18.5275 34.1782C18.5605 34.1597 18.5908 34.1532 18.6105 34.1514C18.6422 34.1484 18.6472 34.1569 18.6117 34.1439C18.5811 34.1326 18.5423 34.1135 18.4959 34.0872C18.4736 34.0745 18.4516 34.0614 18.4292 34.0478C18.409 34.0355 18.3831 34.0197 18.3618 34.0072L17.9573 34.6974C18.0004 34.7227 18.1708 34.8341 18.3354 34.8947C18.4206 34.926 18.5459 34.9609 18.6851 34.9479C18.8437 34.9331 19.0048 34.8559 19.1139 34.696L18.453 34.2452ZM18.3618 34.0072L14.3252 31.641L13.9207 32.3311L17.9573 34.6974L18.3618 34.0072ZM14.3252 31.641C14.2333 31.5871 14.1364 31.538 14.0749 31.505C14.0043 31.4673 13.9646 31.4428 13.9375 31.4211C13.915 31.4031 13.9086 31.3927 13.9051 31.3858C13.9011 31.3778 13.89 31.3522 13.8872 31.2906L13.088 31.3264C13.0948 31.4773 13.1262 31.6182 13.1911 31.7466C13.2566 31.8762 13.3455 31.972 13.4378 32.0458C13.5256 32.1161 13.6203 32.1691 13.6971 32.2103C13.7829 32.2562 13.8462 32.2875 13.9207 32.3311L14.3252 31.641ZM13.4343 30.9121C13.4751 30.9066 13.5185 30.9144 13.5562 30.9365L13.1514 31.6265C13.2731 31.6979 13.4106 31.7224 13.5409 31.7049L13.4343 30.9121ZM13.5564 30.9366L1.68125 23.9605L1.27604 24.6503L13.1512 31.6264L13.5564 30.9366ZM1.68125 23.9605C1.33621 23.7578 1.09159 23.6114 0.90814 23.4776C0.729009 23.347 0.632148 23.2449 0.570137 23.1426C0.439425 22.9269 0.399972 22.6172 0.4 21.779L-0.4 21.7789C-0.400026 22.5621 -0.381839 23.1153 -0.114058 23.5572C0.0231782 23.7837 0.210778 23.9592 0.436715 24.124C0.65833 24.2856 0.939396 24.4526 1.27604 24.6503L1.68125 23.9605ZM0.4 21.779L0.400396 6.83566L-0.399604 6.83563L-0.4 21.7789L0.4 21.779ZM0.400396 6.83566C0.400401 6.68335 0.41644 6.65466 0.419076 6.64991C0.420035 6.64818 0.438269 6.61168 0.581026 6.53222L0.191926 5.83322C0.00362215 5.93804 -0.171178 6.06478 -0.280491 6.26183C-0.388129 6.45586 -0.399599 6.6615 -0.399604 6.83563L0.400396 6.83566ZM0.590489 6.52678L2.36906 5.47217L1.96103 4.78405L0.182463 5.83866L0.590489 6.52678ZM2.36906 5.47216C2.74709 5.248 2.86411 5.2007 2.95339 5.1969C3.03116 5.19359 3.14515 5.22277 3.51603 5.43464L3.91286 4.74C3.56808 4.54304 3.26072 4.38309 2.91937 4.39762C2.58954 4.41166 2.28968 4.58916 1.96102 4.78405L2.36906 5.47216ZM3.51601 5.43463L3.95013 5.68266L4.34699 4.98804L3.91288 4.74001L3.51601 5.43463ZM4.54856 5.33535V4.46899H3.74856V5.33535H4.54856ZM4.54856 4.46899C4.54856 4.37834 4.54816 4.32159 4.55165 4.27116C4.55488 4.22457 4.56047 4.20507 4.56346 4.19708C4.56503 4.1929 4.56741 4.18659 4.58002 4.17363C4.59551 4.15771 4.62865 4.12979 4.69701 4.09165L4.30719 3.39305C4.07547 3.52235 3.9015 3.68333 3.81416 3.91681C3.74004 4.11498 3.74856 4.33202 3.74856 4.46899H4.54856ZM4.70611 4.08641L6.51253 3.01529L6.10451 2.32716L4.29809 3.39828L4.70611 4.08641ZM6.51252 3.01529C6.84176 2.82008 6.96588 2.77212 7.062 2.76702C7.1464 2.76254 7.26988 2.78954 7.59551 2.97305L7.98828 2.2761C7.65467 2.08809 7.35353 1.95042 7.01959 1.96814C6.69736 1.98525 6.40941 2.14638 6.10451 2.32716L6.51252 3.01529ZM7.59552 2.97305L8.02585 3.21555L8.41859 2.51859L7.98827 2.27609L7.59552 2.97305ZM8.62222 2.86707V1.96686H7.82222V2.86707H8.62222ZM8.62222 1.96686C8.62222 1.84452 8.63937 1.80046 8.64962 1.78157C8.65845 1.76529 8.68333 1.72809 8.78481 1.66792L8.37679 0.979791C8.20226 1.08328 8.04784 1.2131 7.94639 1.40017C7.84635 1.58463 7.82222 1.78024 7.82222 1.96686H8.62222ZM8.24317 2.67437V3.10426H9.04317V2.67437H8.24317ZM8.44679 3.45274L21.4082 10.7569L21.801 10.06L8.83954 2.75579L8.44679 3.45274ZM22.0046 10.4085V9.32898H21.2046V10.4085H22.0046ZM22.0046 9.32898C22.0046 9.43785 21.945 9.53327 21.8571 9.58385L21.4582 8.89038C21.3069 8.97741 21.2046 9.14146 21.2046 9.32898H22.0046ZM21.88 9.56961L24.3966 7.88656L23.9519 7.22157L21.4353 8.90461L21.88 9.56961ZM24.3672 7.20364L11.8032 0.288071L11.4174 0.988917L23.9814 7.90449L24.3672 7.20364ZM11.8032 0.288068C11.657 0.207582 11.4518 0.0796363 11.2367 0.0406834C10.9717 -0.00732275 10.7347 0.072027 10.4921 0.215914L10.9001 0.904033C11.0579 0.810477 11.0941 0.827868 11.0941 0.827873C11.1078 0.830349 11.1349 0.838104 11.1915 0.866061C11.2525 0.896225 11.3149 0.932481 11.4174 0.98892L11.8032 0.288068ZM10.4921 0.215911L8.64153 1.3132L9.04955 2.00133L10.9001 0.904036L10.4921 0.215911ZM8.64153 1.3132C8.56541 1.35834 8.47966 1.41341 8.41104 1.47933C8.3476 1.54028 8.22375 1.68286 8.24437 1.89531C8.26325 2.08995 8.39355 2.20666 8.44858 2.25187C8.51506 2.30649 8.59572 2.35416 8.66604 2.39371L9.05816 1.69639C8.99024 1.6582 8.96381 1.6398 8.95642 1.63373C8.95395 1.63169 8.9686 1.64293 8.98642 1.66818C9.00566 1.69543 9.03368 1.74647 9.04063 1.81804C9.04784 1.89236 9.02905 1.95479 9.00729 1.99701C8.98794 2.03456 8.96756 2.05405 8.96527 2.05625C8.96366 2.0578 8.98216 2.04129 9.04955 2.00132L8.64153 1.3132ZM8.66819 2.39491L21.4107 9.45743L21.7985 8.75772L9.05601 1.69519L8.66819 2.39491ZM21.4094 9.45673C21.373 9.43637 21.3313 9.39005 21.3173 9.32491C21.3055 9.26982 21.3186 9.22635 21.3335 9.19934C21.3484 9.17239 21.3787 9.13745 21.4329 9.11796C21.497 9.09491 21.5594 9.1066 21.5958 9.127L21.2055 9.82532C21.3626 9.91311 21.5408 9.92927 21.7035 9.87081C21.8562 9.81591 21.9676 9.70568 22.0335 9.58658C22.0994 9.46743 22.1334 9.31495 22.0995 9.15707C22.0634 8.98912 21.9568 8.84618 21.7997 8.75842L21.4094 9.45673ZM21.5946 9.12627L9.11397 2.211L8.72624 2.91076L21.2068 9.82604L21.5946 9.12627ZM9.11998 2.2144C9.06503 2.1827 8.9871 2.13544 8.94327 2.11163C8.91839 2.09812 8.87709 2.07652 8.82946 2.06055C8.79006 2.04734 8.68009 2.01421 8.55001 2.05507C8.39178 2.10477 8.31309 2.22528 8.28022 2.30719C8.2523 2.37673 8.24652 2.44176 8.24434 2.47153C8.23985 2.53293 8.24231 2.61712 8.24321 2.68006L9.04313 2.66867C9.04252 2.62601 9.04191 2.5969 9.04174 2.57005C9.04166 2.55752 9.0417 2.54806 9.04184 2.54076C9.04191 2.5372 9.04199 2.53454 9.04207 2.53262C9.04215 2.53069 9.04221 2.52984 9.04221 2.52989C9.04221 2.52991 9.04211 2.5313 9.04181 2.5338C9.04152 2.53626 9.04097 2.54048 9.03996 2.54608C9.03818 2.55594 9.03368 2.57768 9.02264 2.6052C8.99822 2.66603 8.93143 2.77381 8.78974 2.81831C8.67621 2.85397 8.58745 2.82318 8.57514 2.81905C8.55458 2.81216 8.54626 2.80639 8.56145 2.81464C8.57397 2.82143 8.59129 2.83153 8.62002 2.84853C8.64684 2.8644 8.68112 2.8848 8.72023 2.90737L9.11998 2.2144ZM4.62811 4.82801L17.5916 12.0107L17.9793 11.311L5.01583 4.12824L4.62811 4.82801ZM17.5872 12.0083C17.551 11.9876 17.5097 11.941 17.4963 11.8757C17.485 11.8206 17.4985 11.7772 17.5136 11.7504C17.5288 11.7235 17.5593 11.6889 17.6137 11.6699C17.678 11.6474 17.7402 11.6596 17.7765 11.6803L17.3801 12.3752C17.5364 12.4644 17.7145 12.4821 17.8777 12.4251C18.0309 12.3715 18.1433 12.2622 18.2102 12.1437C18.2772 12.0251 18.3125 11.8729 18.2799 11.7147C18.2454 11.5464 18.1399 11.4025 17.9837 11.3134L17.5872 12.0083ZM17.7721 11.6779L4.91649 4.55649L4.52883 5.25629L17.3845 12.3777L17.7721 11.6779ZM4.92039 4.55868C4.87297 4.53171 4.78466 4.48454 4.67833 4.47215C4.61752 4.46505 4.53306 4.4671 4.44382 4.50629C4.3508 4.54715 4.28669 4.61339 4.24646 4.6785C4.18066 4.78502 4.17426 4.89758 4.17207 4.9304C4.16895 4.97746 4.16951 5.03249 4.16951 5.06679H4.96951C4.96951 5.01558 4.96944 4.99658 4.97031 4.98346C4.97063 4.97876 4.97043 4.98698 4.9671 5.00225C4.96411 5.016 4.95472 5.05418 4.92706 5.09896C4.8961 5.14909 4.84372 5.20441 4.76555 5.23875C4.69117 5.27142 4.6247 5.27131 4.58566 5.26676C4.52288 5.25944 4.49326 5.23609 4.52492 5.2541L4.92039 4.55868ZM4.16951 5.06679V5.57581H4.96951V5.06679H4.16951ZM4.37108 5.92313L17.3766 13.3534L17.7734 12.6588L4.76794 5.2285L4.37108 5.92313ZM17.975 13.0061V11.9104H17.175V13.0061H17.975ZM17.975 11.9104C17.975 12.0345 17.8979 12.1411 17.7882 12.1842L17.4957 11.4395C17.3076 11.5134 17.175 11.6966 17.175 11.9104H17.975ZM17.8605 12.1469L20.4528 10.4556L20.0157 9.78562L17.4234 11.4768L17.8605 12.1469ZM20.4306 9.77216L7.78877 2.64803L7.39601 3.34498L20.0379 10.4691L20.4306 9.77216ZM7.78879 2.64805C7.55127 2.51417 7.30369 2.37516 7.02582 2.39272C6.8826 2.40176 6.76009 2.44894 6.65487 2.5005C6.55427 2.54979 6.44047 2.61831 6.32174 2.68871L6.72977 3.37683C6.86257 3.29809 6.94229 3.25054 7.0069 3.21888C7.06688 3.18949 7.08125 3.19081 7.07625 3.19113C7.06798 3.19165 7.077 3.18725 7.12796 3.20743C7.18507 3.23004 7.26452 3.27087 7.39598 3.34497L7.78879 2.64805ZM6.32174 2.68871L4.58706 3.71729L4.99509 4.40541L6.72977 3.37683L6.32174 2.68871ZM4.58179 3.72047C4.49123 3.77607 4.39478 3.84233 4.3214 3.92247C4.24676 4.00398 4.13548 4.17022 4.19018 4.38926C4.23484 4.56808 4.36862 4.6684 4.42207 4.7065C4.48923 4.75437 4.56992 4.79747 4.63561 4.83206L5.00834 4.12419C4.93662 4.08643 4.903 4.06687 4.88643 4.05506C4.87951 4.05012 4.88907 4.05583 4.90395 4.07277C4.91934 4.0903 4.95028 4.13111 4.96634 4.19542C4.98386 4.26557 4.97601 4.33293 4.95605 4.386C4.93853 4.43257 4.91568 4.45807 4.91141 4.46273C4.90648 4.46812 4.92398 4.44913 5.00036 4.40223L4.58179 3.72047ZM35.4719 38.2953V22.4306H34.6719V38.2953H35.4719ZM35.4719 22.4306C35.4719 22.3139 35.4719 22.1225 35.3559 21.9503C35.2504 21.7936 35.0822 21.7069 34.9704 21.6482L34.5986 22.3565C34.6283 22.3721 34.6517 22.3848 34.6707 22.3958C34.6898 22.4068 34.7018 22.4144 34.7091 22.4195C34.7237 22.4296 34.7094 22.4225 34.6923 22.3971C34.6838 22.3844 34.6775 22.3716 34.6733 22.3603C34.6693 22.3496 34.6684 22.3433 34.6686 22.3444C34.6688 22.3459 34.6698 22.3528 34.6706 22.368C34.6715 22.3833 34.6719 22.4032 34.6719 22.4306H35.4719ZM34.9879 21.6579L23.0404 14.6036L22.6337 15.2924L34.5811 22.3468L34.9879 21.6579ZM23.0353 14.6006C23.0715 14.6212 23.1128 14.6679 23.1262 14.7331C23.1375 14.7883 23.124 14.8316 23.1089 14.8585C23.0937 14.8853 23.0632 14.92 23.0088 14.939C22.9445 14.9615 22.8823 14.9492 22.846 14.9285L23.2424 14.2336C23.0861 14.1445 22.908 14.1267 22.7448 14.1838C22.5916 14.2373 22.4792 14.3466 22.4123 14.4652C22.3453 14.5837 22.31 14.7359 22.3426 14.8941C22.3771 15.0624 22.4826 15.2063 22.6388 15.2954L23.0353 14.6006ZM22.8409 14.9255L34.8305 22.0039L35.2372 21.315L23.2476 14.2366L22.8409 14.9255ZM34.8361 22.0071C34.8877 22.0364 34.9514 22.073 35.0118 22.0998C35.0774 22.1289 35.1687 22.1607 35.28 22.1598C35.4885 22.1581 35.6562 22.036 35.7493 21.9721L35.2965 21.3125C35.2693 21.3312 35.2485 21.345 35.2319 21.3554C35.2151 21.3659 35.2061 21.3707 35.2025 21.3725C35.1991 21.3742 35.2048 21.371 35.2176 21.3674C35.2315 21.3635 35.2508 21.36 35.2734 21.3598C35.3203 21.3594 35.3474 21.3735 35.3364 21.3686C35.3307 21.3661 35.3202 21.361 35.3015 21.3509C35.2827 21.3407 35.2609 21.3284 35.2316 21.3117L34.8361 22.0071ZM35.7493 21.9721L37.8589 20.5237L37.4062 19.8642L35.2965 21.3125L35.7493 21.9721ZM37.8703 20.5157C37.9271 20.4737 38.0032 20.4123 38.0603 20.3304C38.1278 20.2336 38.1882 20.0754 38.1241 19.8953C38.0742 19.7554 37.9704 19.6744 37.9262 19.6417C37.8728 19.6021 37.8108 19.5666 37.7622 19.5391L37.3687 20.2356C37.4208 20.2651 37.4418 20.2784 37.4501 20.2846C37.453 20.2867 37.4435 20.2802 37.4297 20.2649C37.4157 20.2494 37.3891 20.216 37.3705 20.1638C37.3502 20.1069 37.3455 20.0441 37.3578 19.9838C37.3692 19.9282 37.3917 19.8906 37.4042 19.8727C37.4242 19.844 37.435 19.8426 37.3949 19.8722L37.8703 20.5157ZM37.7618 19.5389L25.677 12.7287L25.2843 13.4256L37.3691 20.2358L37.7618 19.5389ZM25.2588 12.7443L22.6152 14.5066L23.0589 15.1722L25.7025 13.41L25.2588 12.7443ZM22.437 14.8394V16.0124H23.237V14.8394H22.437ZM22.6386 16.3598L33.7177 22.6894L34.1145 21.9948L23.0355 15.6651L22.6386 16.3598ZM33.7176 22.6894C33.8813 22.7829 33.9187 22.8219 33.9328 22.8426C33.9384 22.8508 33.964 22.8872 33.9647 23.0527L34.7647 23.0489C34.7636 22.8147 34.7295 22.5909 34.5936 22.3917C34.4663 22.205 34.2803 22.0896 34.1145 21.9948L33.7176 22.6894ZM33.9647 23.0527L34.0353 38.072L34.8353 38.0682L34.7647 23.0489L33.9647 23.0527ZM34.2302 38.4135L34.755 38.7269L35.1652 38.0401L34.6404 37.7267L34.2302 38.4135ZM34.755 38.7269C34.7716 38.7368 34.8213 38.7677 34.8483 38.7823C34.8606 38.7888 34.9102 38.8161 34.9754 38.8299C35.053 38.8463 35.2278 38.8549 35.364 38.7066C35.461 38.601 35.4702 38.4793 35.472 38.4624C35.4756 38.427 35.4746 38.3946 35.4743 38.3829C35.4733 38.345 35.4719 38.3319 35.4719 38.2953H34.6719C34.6719 38.3451 34.6744 38.3969 34.6746 38.405C34.6749 38.4162 34.674 38.4022 34.6762 38.3807C34.6774 38.3689 34.6807 38.3425 34.6911 38.3096C34.7014 38.277 34.7241 38.2207 34.7747 38.1656C34.8307 38.1046 34.9035 38.064 34.9816 38.0475C35.0519 38.0325 35.1094 38.0405 35.1406 38.0471C35.1726 38.0539 35.1959 38.0632 35.2062 38.0676C35.2176 38.0725 35.2251 38.0765 35.2269 38.0775C35.2292 38.0787 35.2276 38.078 35.2138 38.0695C35.2029 38.0629 35.1849 38.0519 35.1652 38.0401L34.755 38.7269ZM33.7096 22.9956L31.7293 24.4526L32.2034 25.0969L34.1837 23.64L33.7096 22.9956ZM31.7223 24.4579C31.6808 24.4898 31.5993 24.5504 31.5641 24.5779C31.5167 24.6151 31.4551 24.6658 31.4011 24.732C31.2672 24.896 31.2424 25.074 31.2424 25.2428H32.0424C32.0424 25.1952 32.0463 25.1851 32.0444 25.1921C32.0404 25.2071 32.0311 25.2253 32.0209 25.2378C32.0167 25.243 32.0206 25.2366 32.0573 25.2079C32.0745 25.1944 32.0945 25.1793 32.1211 25.1594C32.1467 25.1401 32.1771 25.1174 32.2105 25.0916L31.7223 24.4579ZM31.2424 25.2428V41.3258H32.0424V25.2428H31.2424ZM31.2424 41.3258C31.2424 41.3782 31.2465 41.4609 31.2782 41.5468C31.3137 41.643 31.395 41.7677 31.5539 41.8257C31.6939 41.8767 31.8201 41.8472 31.8889 41.8239C31.9628 41.799 32.0303 41.7609 32.0868 41.7243L31.6526 41.0524C31.6222 41.072 31.6178 41.0711 31.6329 41.066C31.6427 41.0627 31.723 41.0358 31.8279 41.0741C31.9517 41.1192 32.0087 41.2157 32.0288 41.27C32.045 41.3139 32.0424 41.3409 32.0424 41.3258H31.2424ZM32.0881 41.7235L33.9769 40.4929L33.5402 39.8226L31.6514 41.0532L32.0881 41.7235ZM33.9769 40.4929C34.1646 40.3706 34.3284 40.2237 34.3944 39.9902C34.4229 39.8893 34.4264 39.7939 34.4265 39.7223C34.4265 39.6857 34.4255 39.6475 34.4246 39.6135C34.4238 39.5778 34.4229 39.5432 34.4227 39.5058L33.6227 39.5096C33.623 39.556 33.624 39.5982 33.6249 39.6335C33.6258 39.6704 33.6265 39.6973 33.6265 39.7214C33.6264 39.7709 33.6228 39.7786 33.6245 39.7726C33.6286 39.7581 33.6364 39.7483 33.6348 39.7501C33.628 39.7578 33.6041 39.781 33.5402 39.8227L33.9769 40.4929ZM34.4227 39.5058C34.3974 34.1092 34.372 28.7126 34.3467 23.3159L33.5467 23.3197C33.572 28.7163 33.5974 34.113 33.6227 39.5096L34.4227 39.5058ZM14.7781 14.9207C14.7568 14.9085 14.5413 14.782 14.3362 14.6531C14.2327 14.5882 14.1385 14.5267 14.0741 14.4807C14.0585 14.4695 14.0461 14.4603 14.0367 14.4529C14.0267 14.4452 14.0229 14.4417 14.0233 14.4421C14.0236 14.4424 14.0268 14.4453 14.0317 14.4505C14.036 14.4551 14.0463 14.4663 14.0583 14.4833C14.068 14.4969 14.0935 14.5345 14.1104 14.5907C14.1276 14.6478 14.1481 14.7698 14.0753 14.8978L13.3799 14.5022C13.3053 14.6334 13.3257 14.7594 13.3444 14.8214C13.3627 14.8824 13.3912 14.9255 13.4054 14.9455C13.4351 14.9875 13.4679 15.0184 13.4844 15.0334C13.5224 15.068 13.5682 15.1024 13.6086 15.1313C13.6932 15.1918 13.8041 15.2637 13.9107 15.3306C14.1257 15.4656 14.3502 15.5975 14.3794 15.6143L14.7781 14.9207ZM13.9834 14.3924C13.8091 14.2476 13.7017 14.152 13.6427 14.0938C13.6107 14.0624 13.6058 14.0544 13.6119 14.0628C13.6127 14.0639 13.6355 14.0938 13.6527 14.1434C13.6641 14.1762 13.7229 14.367 13.569 14.5333C13.4391 14.6737 13.275 14.6583 13.2623 14.6575C13.2224 14.6548 13.196 14.646 13.1945 14.6456C13.1872 14.6432 13.1944 14.6451 13.2233 14.659C13.2764 14.6848 13.3563 14.7287 13.4563 14.7871C13.6536 14.9024 13.898 15.0558 14.0993 15.1842C14.2854 15.303 14.4608 15.4176 14.4838 15.4308L14.8825 14.7372C14.8882 14.7405 14.8629 14.7243 14.7869 14.6752C14.7214 14.6328 14.6316 14.5749 14.5296 14.5098C14.3268 14.3804 14.0714 14.22 13.86 14.0964C13.7556 14.0354 13.6539 13.9787 13.5718 13.9389C13.5329 13.9201 13.484 13.898 13.435 13.8826C13.4127 13.8755 13.3691 13.8629 13.316 13.8593C13.2901 13.8576 13.1167 13.8443 12.9818 13.99C12.823 14.1616 12.8814 14.3609 12.8969 14.4057C12.9183 14.4673 12.9499 14.5127 12.9647 14.533C12.9987 14.5798 13.042 14.6251 13.0815 14.664C13.1654 14.7465 13.2939 14.8595 13.4719 15.0075L13.9834 14.3924ZM14.4921 15.4355L18.4158 17.568L18.7978 16.8651L14.8741 14.7326L14.4921 15.4355ZM18.4075 17.5633C18.3412 17.5252 18.2842 17.4539 18.2658 17.3629C18.2495 17.282 18.2687 17.2117 18.2969 17.1621C18.3251 17.1126 18.3761 17.0596 18.4552 17.0322C18.5443 17.0013 18.6355 17.0151 18.7018 17.0532L18.303 17.7468C18.4293 17.8193 18.5785 17.8361 18.7171 17.7881C18.8458 17.7435 18.9379 17.6532 18.9922 17.5578C19.0465 17.4624 19.0768 17.3376 19.0501 17.205C19.0214 17.0624 18.9324 16.9423 18.8062 16.8698L18.4075 17.5633ZM18.6934 17.0486L14.7697 14.916L14.3877 15.6189L18.3114 17.7514L18.6934 17.0486ZM22.0114 9.2515C22.0778 9.28891 22.1355 9.35954 22.1547 9.4504C22.1717 9.53119 22.1532 9.6018 22.1254 9.6517C22.0976 9.70156 22.0469 9.75512 21.968 9.78317C21.8791 9.81476 21.7879 9.80164 21.7215 9.7642L22.1142 9.06722C21.9874 8.99582 21.8382 8.98025 21.6999 9.02941C21.5716 9.07504 21.4801 9.16618 21.4266 9.26211C21.3731 9.35808 21.344 9.48326 21.3719 9.61559C21.402 9.75799 21.492 9.87713 21.6187 9.9485L22.0114 9.2515ZM21.725 9.76616L26.4699 12.3772L26.8556 11.6763L22.1107 9.06527L21.725 9.76616ZM26.4664 12.3753C26.4 12.3379 26.3423 12.2672 26.3231 12.1764C26.3061 12.0956 26.3246 12.025 26.3524 11.9751C26.3802 11.9252 26.4309 11.8717 26.5098 11.8436C26.5987 11.812 26.6899 11.8251 26.7563 11.8626L26.3636 12.5596C26.4903 12.631 26.6396 12.6465 26.7778 12.5974C26.9062 12.5517 26.9976 12.4606 27.0511 12.3647C27.1046 12.2687 27.1338 12.1435 27.1059 12.0112C27.0758 11.8688 26.9857 11.7497 26.859 11.6783L26.4664 12.3753ZM26.7528 11.8606L22.0079 9.24956L21.6222 9.95044L26.3671 12.5615L26.7528 11.8606ZM17.9837 11.6222C18.0499 11.66 18.1072 11.7309 18.1259 11.8219C18.1426 11.9029 18.1237 11.9734 18.0956 12.0232C18.0675 12.0729 18.0164 12.1263 17.9373 12.1539C17.8483 12.185 17.7571 12.1714 17.6909 12.1336L18.0873 11.4387C17.961 11.3667 17.8118 11.3503 17.6733 11.3987C17.5448 11.4436 17.4529 11.5343 17.3989 11.6299C17.3449 11.7255 17.3151 11.8505 17.3423 11.983C17.3716 12.1255 17.461 12.2451 17.5873 12.3171L17.9837 11.6222ZM17.6879 12.1319L22.3309 14.8328L22.7331 14.1413L18.0902 11.4404L17.6879 12.1319ZM22.3338 14.8345C22.2676 14.7967 22.2102 14.7258 22.1915 14.6348C22.1749 14.5539 22.1938 14.4833 22.2219 14.4335C22.25 14.3838 22.301 14.3305 22.3801 14.3028C22.4692 14.2717 22.5603 14.2853 22.6266 14.3231L22.2302 15.018C22.3565 15.09 22.5056 15.1064 22.6441 15.058C22.7726 15.0131 22.8646 14.9224 22.9186 14.8268C22.9726 14.7312 23.0024 14.6062 22.9751 14.4737C22.9459 14.3312 22.8564 14.2117 22.7302 14.1396L22.3338 14.8345ZM22.6295 14.3248L17.9866 11.6239L17.5843 12.3154L22.2273 15.0163L22.6295 14.3248ZM21.6187 10.8755L26.4818 13.6161L26.8746 12.9191L22.0114 10.1786L21.6187 10.8755ZM27.0782 13.2676V12.2374H26.2782V13.2676H27.0782ZM27.0782 12.2374C27.0782 12.2246 27.0779 12.2127 27.0777 12.2052C27.0775 12.1962 27.0774 12.1921 27.0774 12.1883C27.0773 12.1801 27.0779 12.1885 27.0756 12.2039C27.0732 12.2204 27.0663 12.2537 27.0455 12.2925C27.0232 12.3342 26.9909 12.3708 26.9519 12.3979L26.4958 11.7406C26.3488 11.8426 26.299 11.987 26.2842 12.087C26.2776 12.132 26.2773 12.1714 26.2774 12.1942C26.2775 12.2059 26.2778 12.2174 26.278 12.2239C26.2781 12.2317 26.2782 12.2351 26.2782 12.2374H27.0782ZM26.9523 12.3976L29.4493 10.6601L28.9923 10.0035L26.4954 11.7409L26.9523 12.3976ZM29.4137 9.98139L24.5751 7.31812L24.1894 8.01896L29.0279 10.6822L29.4137 9.98139ZM24.1599 7.33604L21.5927 9.05289L22.0374 9.71788L24.6046 8.00104L24.1599 7.33604ZM21.4151 9.38538V10.5271H22.2151V9.38538H21.4151ZM17.3855 11.9696V13.1264H18.1855V11.9696H17.3855ZM17.587 13.4737L22.4282 16.2395L22.825 15.5449L17.9839 12.779L17.587 13.4737ZM23.0266 15.8922V14.8335H22.2266V15.8922H23.0266ZM23.0266 14.8335C23.0266 14.8249 23.0265 14.8142 23.0264 14.8107C23.0264 14.8052 23.0264 14.8038 23.0264 14.8038C23.0264 14.8041 23.0263 14.808 23.0257 14.8144C23.0251 14.8208 23.0238 14.831 23.021 14.8436C23.0151 14.8701 23.003 14.9064 22.9781 14.9441C22.9529 14.9822 22.9228 15.0097 22.8954 15.0279L22.4522 14.3619C22.3315 14.4422 22.2651 14.5565 22.2398 14.671C22.2293 14.7187 22.2272 14.76 22.2267 14.7847C22.2263 14.7975 22.2264 14.8091 22.2265 14.8167C22.2265 14.8263 22.2266 14.8288 22.2266 14.8335H23.0266ZM22.8957 15.0277L25.4966 13.294L25.0529 12.6283L22.452 14.362L22.8957 15.0277ZM25.4711 12.6126L20.6374 9.88869L20.2447 10.5856L25.0784 13.3096L25.4711 12.6126ZM20.2225 9.90216L17.5669 11.6346L18.004 12.3046L20.6596 10.5722L20.2225 9.90216ZM18.9178 17.6894L21.52 15.9509L21.0756 15.2857L18.4733 17.0242L18.9178 17.6894ZM21.4962 15.271L16.6421 12.4977L16.2452 13.1923L21.0994 15.9656L21.4962 15.271ZM16.2251 12.51L13.4811 14.3002L13.9182 14.9702L16.6622 13.18L16.2251 12.51ZM13.2997 14.6351C13.2984 20.1044 13.3273 25.5751 13.2952 31.0389L14.0952 31.0436C14.1273 25.5772 14.0984 20.0984 14.0997 14.6353L13.2997 14.6351ZM13.2952 31.0389C13.2944 31.1746 13.2944 31.3024 13.3078 31.4081C13.3228 31.5257 13.3586 31.6579 13.4589 31.7778C13.5456 31.8817 13.6565 31.944 13.7269 31.983C13.8148 32.0315 13.8883 32.0678 14.0077 32.1377L14.4122 31.4476C14.2843 31.3726 14.1694 31.3135 14.1139 31.2828C14.0409 31.2425 14.0534 31.2417 14.0728 31.265C14.1057 31.3044 14.1054 31.3386 14.1014 31.3073C14.096 31.2641 14.0943 31.1922 14.0952 31.0437L13.2952 31.0389ZM14.0077 32.1377L18.0625 34.5147L18.4671 33.8245L14.4122 31.4476L14.0077 32.1377ZM18.0613 34.514C18.1436 34.5626 18.239 34.6216 18.3095 34.657C18.3457 34.6752 18.4051 34.703 18.4752 34.7176C18.5484 34.7329 18.6806 34.7433 18.8126 34.6616C18.9396 34.5831 18.9898 34.466 19.01 34.4025C19.0306 34.3377 19.0372 34.2742 19.0404 34.2301C19.0467 34.1418 19.0448 34.0235 19.0435 33.9013L18.2436 33.9097C18.2443 33.977 18.2449 34.0309 18.2448 34.0768C18.2447 34.1234 18.2438 34.1533 18.2424 34.1728C18.2408 34.1962 18.2395 34.1855 18.2475 34.1602C18.2552 34.1362 18.2881 34.0454 18.3918 33.9813C18.5004 33.9141 18.6031 33.9271 18.6391 33.9346C18.6719 33.9415 18.6864 33.9511 18.6684 33.942C18.6543 33.9349 18.6325 33.9228 18.5963 33.9014C18.5789 33.8911 18.56 33.8799 18.5384 33.8669C18.5171 33.8542 18.4936 33.8402 18.4683 33.8253L18.0613 34.514ZM19.0435 33.9056L19.0474 17.4935L18.2474 17.4934L18.2435 33.9054L19.0435 33.9056ZM19.0474 17.4935C19.0474 17.4837 19.0474 17.4814 19.0474 17.4761C19.0474 17.4722 19.0475 17.4716 19.0474 17.4727C19.0474 17.474 19.0467 17.4901 19.0411 17.5131C19.035 17.538 19.0229 17.5719 18.9992 17.6074C18.975 17.6435 18.9457 17.6709 18.9172 17.6899L18.474 17.0238C18.3549 17.1031 18.2904 17.2149 18.264 17.3231C18.2441 17.4045 18.2474 17.488 18.2474 17.4934L19.0474 17.4935ZM18.457 17.5023L18.4532 33.9046L19.2532 33.9048L19.257 17.5025L18.457 17.5023ZM18.4532 33.9071C18.4535 33.9563 18.4529 34.0173 18.4544 34.0508C18.4549 34.064 18.4567 34.1191 18.4758 34.1795C18.487 34.2148 18.5088 34.2679 18.5529 34.3209C18.6006 34.3782 18.6598 34.4179 18.7208 34.4414C18.7753 34.4625 18.8221 34.4671 18.8445 34.4686C18.8664 34.4701 18.8854 34.4695 18.887 34.4695C18.8968 34.4693 18.8817 34.4699 18.8648 34.4683C18.8212 34.4642 18.792 34.4506 18.7822 34.4449L19.1847 33.7535C19.103 33.7059 19.0216 33.6796 18.9404 33.6719C18.9046 33.6685 18.8743 33.6696 18.8718 33.6697C18.8673 33.6697 18.8808 33.6693 18.898 33.6704C18.9156 33.6716 18.9582 33.6755 19.0091 33.6952C19.0665 33.7174 19.1226 33.7549 19.1678 33.8091C19.2093 33.8591 19.229 33.9081 19.2385 33.9379C19.2478 33.9673 19.251 33.9903 19.2521 33.9995C19.2528 34.005 19.2531 34.0092 19.2533 34.0117C19.2535 34.0141 19.2536 34.0156 19.2536 34.0159C19.2536 34.016 19.2535 34.0138 19.2534 34.0078C19.2534 34.0019 19.2533 33.9944 19.2533 33.9842C19.2533 33.9645 19.2534 33.9363 19.2532 33.9023L18.4532 33.9071ZM18.7822 34.4449L30.9081 41.5033L31.3105 40.8119L19.1847 33.7535L18.7822 34.4449ZM30.9081 41.5033C30.9208 41.5108 30.9321 41.5176 30.9435 41.5246C30.9525 41.5302 30.969 41.5404 30.9833 41.5487C30.9934 41.5545 31.0292 41.5755 31.0744 41.591C31.1066 41.602 31.2593 41.6521 31.42 41.5567C31.578 41.4629 31.6084 41.308 31.6143 41.2771C31.623 41.2315 31.6228 41.191 31.6228 41.1794C31.6229 41.1632 31.6223 41.1438 31.622 41.1333C31.6217 41.1199 31.6215 41.1067 31.6215 41.0919H30.8215C30.8215 41.1162 30.8219 41.1368 30.8223 41.1524C30.8227 41.1708 30.8228 41.1755 30.8228 41.1789C30.8228 41.1869 30.8219 41.1616 30.8285 41.127C30.8323 41.1072 30.8592 40.9593 31.0116 40.8688C31.1667 40.7767 31.3116 40.8266 31.3333 40.834C31.3538 40.841 31.3684 40.8481 31.3741 40.851C31.3775 40.8527 31.3801 40.8541 31.3815 40.8548C31.3823 40.8553 31.3828 40.8556 31.3832 40.8558C31.3835 40.856 31.3837 40.8561 31.3838 40.8561C31.3838 40.8561 31.3833 40.8558 31.3822 40.8552C31.3811 40.8545 31.3797 40.8536 31.3777 40.8525C31.3733 40.8498 31.369 40.8471 31.3619 40.8428C31.3488 40.8348 31.3314 40.8241 31.3105 40.8119L30.9081 41.5033ZM31.6215 41.0919V25.2293H30.8215V41.0919H31.6215ZM31.6214 25.2335C31.6219 25.1917 31.6236 25.1218 31.6171 25.059C31.6091 24.9824 31.5874 24.8888 31.5262 24.7949C31.4701 24.7089 31.3988 24.6506 31.3421 24.6102C31.2857 24.57 31.2181 24.53 31.1488 24.4899L30.7488 25.1828C30.7827 25.2023 30.8097 25.2182 30.8318 25.2318C30.8541 25.2455 30.8685 25.255 30.8778 25.2616C30.8988 25.2767 30.8785 25.2664 30.8559 25.2316C30.8437 25.2129 30.8346 25.1929 30.8285 25.1738C30.8229 25.1559 30.8215 25.1437 30.8214 25.1418C30.8212 25.1408 30.8218 25.1454 30.8219 25.1612C30.822 25.1775 30.8218 25.1959 30.8215 25.2252L31.6214 25.2335ZM31.15 24.4906L19.0027 17.4212L18.6003 18.1126L30.7476 25.1821L31.15 24.4906ZM19.0009 17.4202C19.0372 17.441 19.0783 17.4879 19.0914 17.5531C19.1025 17.6082 19.0889 17.6513 19.0738 17.6779C19.0587 17.7045 19.0281 17.7389 18.9738 17.7577C18.9095 17.78 18.8473 17.7676 18.811 17.7468L19.2098 17.0532C19.0536 16.9634 18.8753 16.9452 18.7119 17.0018C18.5585 17.055 18.4458 17.1639 18.3785 17.2822C18.3111 17.4005 18.2753 17.5526 18.3072 17.711C18.3411 17.8795 18.446 18.0239 18.6021 18.1137L19.0009 17.4202ZM18.8092 17.7457L30.962 24.8184L31.3644 24.1269L19.2116 17.0543L18.8092 17.7457ZM30.9633 24.8191C31.0276 24.8562 31.1011 24.8988 31.17 24.9288C31.2446 24.9614 31.3487 24.9957 31.4743 24.9865C31.5979 24.9775 31.695 24.9297 31.7622 24.8897C31.8256 24.8521 31.8938 24.8016 31.9551 24.7565L31.481 24.1121C31.447 24.1371 31.4209 24.1562 31.3984 24.1721C31.3759 24.188 31.3621 24.1969 31.3535 24.202C31.3353 24.2129 31.3628 24.1926 31.4159 24.1887C31.4711 24.1846 31.504 24.2017 31.4902 24.1957C31.4831 24.1926 31.4702 24.1864 31.4475 24.174C31.425 24.1617 31.3983 24.1465 31.3632 24.1262L30.9633 24.8191ZM31.9551 24.7565L33.8936 23.3303L33.4195 22.6859L31.481 24.1121L31.9551 24.7565ZM33.8673 23.3481C33.944 23.3006 34.0309 23.2428 34.0975 23.1748C34.1597 23.1112 34.3022 22.9338 34.2234 22.6924C34.192 22.5962 34.1355 22.5315 34.098 22.4952C34.0597 22.4581 34.0201 22.4304 33.9921 22.4122C33.9415 22.3793 33.8691 22.3398 33.8241 22.3142L33.4273 23.0088C33.5021 23.0516 33.5309 23.0665 33.5553 23.0824C33.5648 23.0886 33.5561 23.0841 33.5413 23.0697C33.5273 23.0561 33.4868 23.0138 33.4629 22.9408C33.4353 22.8563 33.4432 22.7721 33.4695 22.7058C33.4915 22.6503 33.521 22.62 33.5258 22.6152C33.5326 22.6082 33.5187 22.6229 33.4458 22.6681L33.8673 23.3481ZM33.8241 22.3142L21.7008 15.3878L21.3039 16.0825L33.4273 23.0088L33.8241 22.3142ZM21.2801 15.4025L18.6348 17.1698L19.0792 17.835L21.7245 16.0678L21.2801 15.4025ZM13.8862 30.8694L13.8901 14.5821L13.0901 14.5819L13.0862 30.8692L13.8862 30.8694ZM13.8898 14.5667C13.8935 14.6648 13.8473 14.765 13.7565 14.8243L13.319 14.1545C13.1639 14.2558 13.0839 14.4274 13.0903 14.5972L13.8898 14.5667ZM13.7563 14.8244L16.4568 13.0627L16.0196 12.3926L13.3192 14.1544L13.7563 14.8244ZM16.4366 12.3803L3.70275 5.10522L3.30589 5.79984L16.0398 13.075L16.4366 12.3803ZM3.70275 5.10521C3.56497 5.0265 3.43862 4.9547 3.32712 4.90609C3.20892 4.85456 3.07365 4.81331 2.91723 4.82276C2.76575 4.83192 2.6378 4.88641 2.53178 4.94111C2.43006 4.99359 2.30617 5.06975 2.17322 5.14859L2.58127 5.8367C2.73563 5.74517 2.82464 5.69021 2.89858 5.65207C2.96821 5.61614 2.97868 5.62051 2.9655 5.62131C2.94739 5.6224 2.95033 5.61455 3.0074 5.63943C3.07117 5.66723 3.15714 5.71486 3.30589 5.79984L3.70275 5.10521ZM2.17323 5.14859L0.45041 6.17014L0.858436 6.85826L2.58126 5.83671L2.17323 5.14859ZM0.444238 6.17387C0.371866 6.21857 0.289972 6.26966 0.228375 6.32091C0.197249 6.34681 0.147751 6.39156 0.107288 6.45573C0.0619342 6.52766 0.0203443 6.63744 0.0420653 6.76949C0.0620398 6.89091 0.126543 6.97259 0.167035 7.01508C0.207955 7.05801 0.251761 7.08937 0.281058 7.10905C0.336789 7.1465 0.415677 7.19036 0.47853 7.22663L0.878386 6.53373C0.791147 6.48339 0.752948 6.46231 0.727234 6.44503C0.715809 6.43735 0.727803 6.4439 0.746151 6.46315C0.764072 6.48195 0.815243 6.54107 0.831456 6.63963C0.849416 6.74881 0.813634 6.83542 0.783989 6.88243C0.770405 6.90398 0.757698 6.91828 0.750973 6.92535C0.747342 6.92916 0.74449 6.93188 0.74276 6.93347C0.741869 6.93429 0.741187 6.9349 0.740747 6.93528C0.740306 6.93567 0.740067 6.93587 0.740056 6.93588C0.740044 6.93589 0.740225 6.93574 0.740621 6.93542C0.741017 6.9351 0.741596 6.93465 0.742378 6.93405C0.743964 6.93283 0.746205 6.93115 0.749216 6.92897C0.755358 6.92454 0.763643 6.9188 0.774694 6.91146C0.797285 6.89647 0.826264 6.87821 0.864608 6.85453L0.444238 6.17387ZM0.480933 7.22801L13.3971 14.5629L13.7922 13.8672L0.875983 6.53236L0.480933 7.22801ZM13.3952 14.5618C13.359 14.541 13.3179 14.4941 13.3047 14.4289C13.2936 14.3738 13.3073 14.3307 13.3224 14.3041C13.3375 14.2775 13.368 14.2431 13.4224 14.2242C13.4867 14.202 13.5489 14.2143 13.5852 14.2352L13.1864 14.9287C13.3426 15.0186 13.5208 15.0368 13.6842 14.9802C13.8376 14.927 13.9504 14.8181 14.0177 14.6998C14.085 14.5814 14.1209 14.4294 14.089 14.271C14.0551 14.1025 13.9502 13.9581 13.794 13.8683L13.3952 14.5618ZM13.5833 14.2341L0.92982 7.05086L0.53487 7.74657L13.1883 14.9298L13.5833 14.2341ZM0.932269 7.05226C0.845829 7.00238 0.80383 6.97369 0.740785 6.9355C0.717237 6.92124 0.676954 6.89717 0.632779 6.87853C0.605448 6.86699 0.478374 6.81187 0.325381 6.85882C0.129948 6.91879 0.0615307 7.08203 0.0413372 7.15028C0.021989 7.21568 0.0196618 7.27787 0.0187745 7.30537C0.017047 7.35891 0.0196974 7.46296 0.0196954 7.53755L0.819695 7.53757C0.819697 7.48434 0.818981 7.43843 0.818519 7.40311C0.818019 7.36484 0.817933 7.34436 0.818358 7.33117C0.819013 7.31088 0.820336 7.33713 0.808468 7.37724C0.801682 7.40018 0.785269 7.44666 0.74647 7.496C0.703098 7.55114 0.639864 7.59913 0.560081 7.62362C0.486552 7.64618 0.424251 7.64103 0.388937 7.63488C0.354132 7.62881 0.330006 7.61907 0.321662 7.61555C0.307182 7.60944 0.303871 7.60617 0.326295 7.61975C0.355193 7.63726 0.441136 7.69249 0.532421 7.74517L0.932269 7.05226ZM0.0196954 7.53755L0.0193212 21.7386L0.819321 21.7386L0.819695 7.53757L0.0196954 7.53755ZM0.0193212 21.7386C0.0193133 22.0922 0.018798 22.3845 0.0400236 22.6219C0.061755 22.8649 0.108651 23.0881 0.225768 23.2951C0.343083 23.5025 0.510364 23.6576 0.7088 23.8009C0.902466 23.9407 1.15457 24.089 1.46013 24.2685L1.86533 23.5787C1.54811 23.3924 1.3334 23.2651 1.17715 23.1523C1.02567 23.0429 0.959939 22.9682 0.922092 22.9013C0.884046 22.834 0.85363 22.7384 0.836844 22.5506C0.819552 22.3573 0.819313 22.107 0.819321 21.7386L0.0193212 21.7386ZM1.46013 24.2685L13.2836 31.2142L13.6888 30.5244L1.86534 23.5787L1.46013 24.2685ZM35.0929 22.4261V38.527H35.8929V22.4261H35.0929ZM35.0931 38.5144C35.0902 38.6064 35.0959 38.741 35.1625 38.8658C35.1997 38.9356 35.2582 39.0062 35.3442 39.0566C35.4298 39.1067 35.518 39.1225 35.5925 39.1218C35.7255 39.1206 35.8353 39.0671 35.8954 39.0339C35.9649 38.9956 36.0315 38.9477 36.0891 38.903L35.5989 38.2708C35.5549 38.305 35.5257 38.3242 35.5089 38.3335C35.4827 38.348 35.5157 38.3225 35.5853 38.3219C35.628 38.3215 35.6878 38.3307 35.7487 38.3664C35.81 38.4023 35.8477 38.4506 35.8683 38.4892C35.9017 38.5518 35.8911 38.5886 35.8927 38.5396L35.0931 38.5144ZM36.0727 38.9151L37.7244 37.764L37.267 37.1077L35.6153 38.2588L36.0727 38.9151ZM37.7244 37.764C37.7976 37.713 37.8803 37.6578 37.9403 37.6123C38.005 37.5632 38.0844 37.4961 38.1476 37.3995C38.2764 37.2028 38.2746 36.9741 38.2738 36.7878L37.4738 36.7912C37.4742 36.895 37.4716 36.9469 37.4673 36.9769C37.4642 36.9989 37.4635 36.9839 37.4783 36.9613C37.4894 36.9444 37.4951 36.9458 37.4569 36.9749C37.4138 37.0076 37.3639 37.0402 37.267 37.1077L37.7244 37.764ZM38.2738 36.7878L38.2058 20.5846L37.4058 20.588L37.4738 36.7912L38.2738 36.7878ZM37.5794 20.2565L35.5333 21.6612L35.986 22.3208L38.0322 20.9161L37.5794 20.2565ZM35.5444 21.6538C35.4273 21.7286 35.2664 21.8304 35.1737 21.9868C35.0639 22.172 35.0859 22.3652 35.0944 22.4613L35.8913 22.3908C35.8891 22.3655 35.8879 22.3485 35.8874 22.3357C35.8869 22.3231 35.8873 22.3196 35.8871 22.3217C35.8869 22.3245 35.8859 22.3348 35.8816 22.3495C35.877 22.3649 35.8704 22.3804 35.862 22.3946C35.8461 22.4213 35.8333 22.4276 35.853 22.4117C35.8737 22.395 35.9092 22.3701 35.9749 22.3282L35.5444 21.6538ZM39.8233 36.0475L41.5729 34.8132L41.1118 34.1595L39.3621 35.3938L39.8233 36.0475ZM41.5889 34.8014C41.6258 34.7725 41.6436 34.7612 41.6877 34.7287C41.722 34.7035 41.7812 34.6589 41.8341 34.594C41.9612 34.4381 41.9791 34.2606 41.9791 34.1096H41.1791C41.1791 34.1569 41.1754 34.1669 41.1774 34.1588C41.1788 34.153 41.1822 34.1417 41.1892 34.1274C41.1964 34.1127 41.2051 34.0995 41.2139 34.0886C41.2223 34.0784 41.2286 34.0729 41.2289 34.0726C41.2291 34.0725 41.2281 34.0734 41.2254 34.0755C41.2227 34.0776 41.2189 34.0805 41.2133 34.0845C41.1994 34.0948 41.1896 34.1016 41.1664 34.1185C41.1463 34.133 41.1224 34.1506 41.0958 34.1714L41.5889 34.8014ZM41.9791 34.1096V17.7376H41.1791V34.1096H41.9791ZM41.343 17.4147L39.3862 18.8454L39.8584 19.4912L41.8152 18.0605L41.343 17.4147ZM39.3997 18.836C39.2908 18.9089 39.1545 19.0074 39.0576 19.1572C38.9516 19.321 38.9201 19.4998 38.9252 19.6852L39.7249 19.6634C39.7238 19.6223 39.7272 19.6018 39.729 19.5942C39.7298 19.5906 39.7304 19.5896 39.7301 19.5902C39.73 19.5904 39.7298 19.5908 39.7296 19.5912C39.7295 19.5914 39.7294 19.5915 39.7294 19.5916C39.7293 19.5918 39.7293 19.5918 39.7293 19.5918C39.7293 19.5918 39.7293 19.5917 39.7294 19.5916C39.7296 19.5914 39.7298 19.5911 39.7301 19.5907C39.7307 19.59 39.7317 19.5887 39.7333 19.5869C39.7365 19.5833 39.742 19.5777 39.751 19.5698C39.7702 19.553 39.7988 19.5315 39.8449 19.5007L39.3997 18.836ZM38.925 19.6737L38.9028 35.6325L39.7028 35.6336L39.725 19.6748L38.925 19.6737ZM38.9028 35.6292C38.9021 35.6975 38.9053 35.7927 38.9345 35.8856C38.9664 35.987 39.0535 36.1495 39.2555 36.2064C39.4188 36.2524 39.5589 36.1965 39.6184 36.1696C39.6912 36.1368 39.7617 36.091 39.8233 36.0475L39.3621 35.3938C39.3394 35.4099 39.3218 35.4215 39.3084 35.4296C39.2945 35.4381 39.2887 35.4407 39.2893 35.4405C39.2899 35.4402 39.2935 35.4386 39.2998 35.4365C39.3061 35.4344 39.3165 35.4312 39.3307 35.4286C39.3578 35.4236 39.4094 35.4186 39.4725 35.4364C39.5408 35.4556 39.5982 35.4948 39.6393 35.5428C39.6764 35.5863 39.6918 35.6269 39.6976 35.6454C39.7072 35.6759 39.7023 35.6833 39.7028 35.6369L38.9028 35.6292Z" fill="#000" mask="url(#path-1-outside-1)"/>
</g>
<defs>
<clipPath id="clip0">
<rect width="42" height="42" fill="white"/>
</clipPath>
</defs>
</svg>
