<svg width="42" height="42" viewBox="0 0 42 42" fill="none" xmlns="http://www.w3.org/2000/svg">
<rect width="42" height="42" fill="#E5E5E5"/>
<g clip-path="url(#clip0)">
<rect width="320" height="5043" transform="translate(-55 -3201)" fill="white"/>
<rect x="-55" y="-363" width="320" height="617" fill="#F8F9FB"/>
<rect x="-55" y="-363" width="320" height="617" fill="url(#paint0_linear)"/>
<g filter="url(#filter0_d)">
<rect x="-40" y="-323" width="290" height="517" rx="10" fill="white"/>
</g>
<rect x="-19" y="-19" width="248" height="80" rx="4" fill="white" stroke="#D2D3D3" stroke-width="2"/>
<g clip-path="url(#clip1)">
<mask id="path-4-outside-1" maskUnits="userSpaceOnUse" x="30.1992" y="12.8008" width="12" height="11" fill="black">
<rect fill="white" x="30.1992" y="12.8008" width="12" height="11"/>
<path d="M31.8127 22.7935C31.7864 22.7941 31.7607 22.7854 31.7395 22.7686C31.7183 22.7519 31.7029 22.7281 31.6956 22.701C31.6883 22.6739 31.6896 22.6449 31.6992 22.6187C31.7088 22.5924 31.7263 22.5703 31.7488 22.5558C31.9702 22.4095 37.1567 18.9757 38.5193 18.3722C39.3113 18.0201 39.7968 17.0416 40.1672 16.2598C40.3239 15.8174 40.5816 15.4243 40.9167 15.1167C41.0316 15.0497 41.1177 14.9373 41.1566 14.8033C41.1956 14.6692 41.1844 14.5242 41.1253 14.3989C41.0957 14.3276 41.0529 14.2636 40.9995 14.2107C40.9461 14.1577 40.8833 14.117 40.8148 14.0909C40.7463 14.0648 40.6736 14.0539 40.6011 14.0589C40.5285 14.0639 40.4577 14.0847 40.3929 14.12C39.4688 14.5543 38.5909 15.0938 37.7741 15.7294L37.3483 16.022C36.156 16.8633 31.438 20.137 31.3869 20.137C31.3598 20.1558 31.3268 20.1623 31.2953 20.155C31.2637 20.1477 31.2362 20.1273 31.2187 20.0982C31.2012 20.0691 31.1952 20.0337 31.2019 19.9998C31.2087 19.966 31.2278 19.9364 31.2549 19.9176C31.3017 19.8856 36.0198 16.621 37.2163 15.8026L37.6421 15.5099C38.4625 14.8665 39.3447 14.3193 40.2737 13.8776C40.3668 13.8316 40.4674 13.8057 40.5698 13.8014C40.6722 13.7972 40.7744 13.8146 40.8706 13.8529C40.9667 13.8911 41.0548 13.9493 41.13 14.0242C41.2051 14.099 41.2657 14.1891 41.3084 14.2891C41.4005 14.4707 41.4236 14.6836 41.3728 14.883C41.322 15.0825 41.2013 15.2531 41.0359 15.359C40.7497 15.6489 40.5272 16.0034 40.3844 16.3969C39.9841 17.22 39.4859 18.2258 38.613 18.6328C37.2717 19.2272 31.9319 22.7478 31.8766 22.7981C31.8553 22.8029 31.8332 22.8013 31.8127 22.7935Z"/>
</mask>
<path d="M31.8127 22.7935C31.7864 22.7941 31.7607 22.7854 31.7395 22.7686C31.7183 22.7519 31.7029 22.7281 31.6956 22.701C31.6883 22.6739 31.6896 22.6449 31.6992 22.6187C31.7088 22.5924 31.7263 22.5703 31.7488 22.5558C31.9702 22.4095 37.1567 18.9757 38.5193 18.3722C39.3113 18.0201 39.7968 17.0416 40.1672 16.2598C40.3239 15.8174 40.5816 15.4243 40.9167 15.1167C41.0316 15.0497 41.1177 14.9373 41.1566 14.8033C41.1956 14.6692 41.1844 14.5242 41.1253 14.3989C41.0957 14.3276 41.0529 14.2636 40.9995 14.2107C40.9461 14.1577 40.8833 14.117 40.8148 14.0909C40.7463 14.0648 40.6736 14.0539 40.6011 14.0589C40.5285 14.0639 40.4577 14.0847 40.3929 14.12C39.4688 14.5543 38.5909 15.0938 37.7741 15.7294L37.3483 16.022C36.156 16.8633 31.438 20.137 31.3869 20.137C31.3598 20.1558 31.3268 20.1623 31.2953 20.155C31.2637 20.1477 31.2362 20.1273 31.2187 20.0982C31.2012 20.0691 31.1952 20.0337 31.2019 19.9998C31.2087 19.966 31.2278 19.9364 31.2549 19.9176C31.3017 19.8856 36.0198 16.621 37.2163 15.8026L37.6421 15.5099C38.4625 14.8665 39.3447 14.3193 40.2737 13.8776C40.3668 13.8316 40.4674 13.8057 40.5698 13.8014C40.6722 13.7972 40.7744 13.8146 40.8706 13.8529C40.9667 13.8911 41.0548 13.9493 41.13 14.0242C41.2051 14.099 41.2657 14.1891 41.3084 14.2891C41.4005 14.4707 41.4236 14.6836 41.3728 14.883C41.322 15.0825 41.2013 15.2531 41.0359 15.359C40.7497 15.6489 40.5272 16.0034 40.3844 16.3969C39.9841 17.22 39.4859 18.2258 38.613 18.6328C37.2717 19.2272 31.9319 22.7478 31.8766 22.7981C31.8553 22.8029 31.8332 22.8013 31.8127 22.7935Z" fill="#000"/>
<path d="M31.8127 22.7935C31.7864 22.7941 31.7607 22.7854 31.7395 22.7686C31.7183 22.7519 31.7029 22.7281 31.6956 22.701C31.6883 22.6739 31.6896 22.6449 31.6992 22.6187C31.7088 22.5924 31.7263 22.5703 31.7488 22.5558C31.9702 22.4095 37.1567 18.9757 38.5193 18.3722C39.3113 18.0201 39.7968 17.0416 40.1672 16.2598C40.3239 15.8174 40.5816 15.4243 40.9167 15.1167C41.0316 15.0497 41.1177 14.9373 41.1566 14.8033C41.1956 14.6692 41.1844 14.5242 41.1253 14.3989C41.0957 14.3276 41.0529 14.2636 40.9995 14.2107C40.9461 14.1577 40.8833 14.117 40.8148 14.0909C40.7463 14.0648 40.6736 14.0539 40.6011 14.0589C40.5285 14.0639 40.4577 14.0847 40.3929 14.12C39.4688 14.5543 38.5909 15.0938 37.7741 15.7294L37.3483 16.022C36.156 16.8633 31.438 20.137 31.3869 20.137C31.3598 20.1558 31.3268 20.1623 31.2953 20.155C31.2637 20.1477 31.2362 20.1273 31.2187 20.0982C31.2012 20.0691 31.1952 20.0337 31.2019 19.9998C31.2087 19.966 31.2278 19.9364 31.2549 19.9176C31.3017 19.8856 36.0198 16.621 37.2163 15.8026L37.6421 15.5099C38.4625 14.8665 39.3447 14.3193 40.2737 13.8776C40.3668 13.8316 40.4674 13.8057 40.5698 13.8014C40.6722 13.7972 40.7744 13.8146 40.8706 13.8529C40.9667 13.8911 41.0548 13.9493 41.13 14.0242C41.2051 14.099 41.2657 14.1891 41.3084 14.2891C41.4005 14.4707 41.4236 14.6836 41.3728 14.883C41.322 15.0825 41.2013 15.2531 41.0359 15.359C40.7497 15.6489 40.5272 16.0034 40.3844 16.3969C39.9841 17.22 39.4859 18.2258 38.613 18.6328C37.2717 19.2272 31.9319 22.7478 31.8766 22.7981C31.8553 22.8029 31.8332 22.8013 31.8127 22.7935Z" stroke="#000" stroke-width="0.4" mask="url(#path-4-outside-1)"/>
<mask id="path-5-outside-2" maskUnits="userSpaceOnUse" x="38.5996" y="14" width="3" height="6" fill="black">
<rect fill="white" x="38.5996" y="14" width="3" height="6"/>
<path d="M40.7486 19.8H40.6678C40.605 19.7868 40.5473 19.7629 40.4991 19.7302C40.4509 19.6974 40.4135 19.6567 40.3901 19.6113L39.6023 16.6642C39.5987 16.6503 39.5987 16.6361 39.6024 16.6222C39.6062 16.6083 39.6135 16.5952 39.6241 16.5834C39.6346 16.5717 39.6482 16.5616 39.6639 16.5538C39.6797 16.546 39.6974 16.5405 39.7159 16.5378C39.7345 16.5351 39.7536 16.5351 39.7721 16.5379C39.7907 16.5407 39.8083 16.5462 39.824 16.5541C39.8397 16.562 39.8532 16.5721 39.8637 16.5838C39.8742 16.5956 39.8814 16.6088 39.8851 16.6227L40.6678 19.5509C40.6678 19.5509 40.6981 19.5887 40.7385 19.5925C40.7789 19.5962 40.8799 19.566 40.9809 19.4981C41.198 19.3019 41.1273 17.1133 40.9354 15.1133C40.934 15.0994 40.9363 15.0855 40.9422 15.0722C40.9481 15.059 40.9574 15.0468 40.9696 15.0363C40.9818 15.0258 40.9966 15.0172 41.0133 15.0109C41.03 15.0047 41.0481 15.001 41.0667 15.0001C41.1039 14.999 41.1403 15.0085 41.1684 15.0267C41.1966 15.045 41.2144 15.0705 41.2182 15.0982C41.3141 16.0906 41.5969 19.3585 41.1727 19.6528C41.0615 19.7403 40.9098 19.793 40.7486 19.8Z"/>
</mask>
<path d="M40.7486 19.8H40.6678C40.605 19.7868 40.5473 19.7629 40.4991 19.7302C40.4509 19.6974 40.4135 19.6567 40.3901 19.6113L39.6023 16.6642C39.5987 16.6503 39.5987 16.6361 39.6024 16.6222C39.6062 16.6083 39.6135 16.5952 39.6241 16.5834C39.6346 16.5717 39.6482 16.5616 39.6639 16.5538C39.6797 16.546 39.6974 16.5405 39.7159 16.5378C39.7345 16.5351 39.7536 16.5351 39.7721 16.5379C39.7907 16.5407 39.8083 16.5462 39.824 16.5541C39.8397 16.562 39.8532 16.5721 39.8637 16.5838C39.8742 16.5956 39.8814 16.6088 39.8851 16.6227L40.6678 19.5509C40.6678 19.5509 40.6981 19.5887 40.7385 19.5925C40.7789 19.5962 40.8799 19.566 40.9809 19.4981C41.198 19.3019 41.1273 17.1133 40.9354 15.1133C40.934 15.0994 40.9363 15.0855 40.9422 15.0722C40.9481 15.059 40.9574 15.0468 40.9696 15.0363C40.9818 15.0258 40.9966 15.0172 41.0133 15.0109C41.03 15.0047 41.0481 15.001 41.0667 15.0001C41.1039 14.999 41.1403 15.0085 41.1684 15.0267C41.1966 15.045 41.2144 15.0705 41.2182 15.0982C41.3141 16.0906 41.5969 19.3585 41.1727 19.6528C41.0615 19.7403 40.9098 19.793 40.7486 19.8Z" fill="#000"/>
<path d="M40.7486 19.8H40.6678C40.605 19.7868 40.5473 19.7629 40.4991 19.7302C40.4509 19.6974 40.4135 19.6567 40.3901 19.6113L39.6023 16.6642C39.5987 16.6503 39.5987 16.6361 39.6024 16.6222C39.6062 16.6083 39.6135 16.5952 39.6241 16.5834C39.6346 16.5717 39.6482 16.5616 39.6639 16.5538C39.6797 16.546 39.6974 16.5405 39.7159 16.5378C39.7345 16.5351 39.7536 16.5351 39.7721 16.5379C39.7907 16.5407 39.8083 16.5462 39.824 16.5541C39.8397 16.562 39.8532 16.5721 39.8637 16.5838C39.8742 16.5956 39.8814 16.6088 39.8851 16.6227L40.6678 19.5509C40.6678 19.5509 40.6981 19.5887 40.7385 19.5925C40.7789 19.5962 40.8799 19.566 40.9809 19.4981C41.198 19.3019 41.1273 17.1133 40.9354 15.1133C40.934 15.0994 40.9363 15.0855 40.9422 15.0722C40.9481 15.059 40.9574 15.0468 40.9696 15.0363C40.9818 15.0258 40.9966 15.0172 41.0133 15.0109C41.03 15.0047 41.0481 15.001 41.0667 15.0001C41.1039 14.999 41.1403 15.0085 41.1684 15.0267C41.1966 15.045 41.2144 15.0705 41.2182 15.0982C41.3141 16.0906 41.5969 19.3585 41.1727 19.6528C41.0615 19.7403 40.9098 19.793 40.7486 19.8Z" stroke="#000" stroke-width="0.4" mask="url(#path-5-outside-2)"/>
<mask id="path-6-outside-3" maskUnits="userSpaceOnUse" x="0.800781" y="9.19922" width="23" height="7" fill="black">
<rect fill="white" x="0.800781" y="9.19922" width="23" height="7"/>
<path d="M6.5921 15.5984C6.5612 15.6019 6.53005 15.5942 6.505 15.5768C6.47995 15.5594 6.4629 15.5337 6.45734 15.5048C6.45177 15.476 6.45811 15.4462 6.47505 15.4217C6.492 15.3971 6.51828 15.3795 6.54851 15.3726C6.60081 15.3726 11.8575 13.4757 13.7361 13.0898C14.4032 12.9309 14.9896 12.5559 15.3925 12.0305C15.885 11.5009 16.3514 11.0041 17.4106 11.2299C18.2824 11.4146 19.2064 12.2276 20.1087 13.0118C21.0981 13.8699 22.1225 14.7567 22.7632 14.4939C22.8817 14.4571 22.984 14.3843 23.0542 14.2871C23.1243 14.1898 23.1584 14.0735 23.1511 13.9561C23.1163 13.3197 21.9089 11.9032 17.6068 10.6099C16.9636 10.4163 16.2804 10.3713 15.6148 10.4785L11.1252 11.3695C10.0225 11.5953 2.06768 14.6828 1.97178 14.7115C1.9569 14.7175 1.94092 14.7206 1.92476 14.7207C1.9086 14.7208 1.89258 14.7179 1.8776 14.7122C1.86263 14.7065 1.84899 14.6981 1.83748 14.6874C1.82597 14.6767 1.8168 14.664 1.81051 14.65C1.79779 14.6216 1.79753 14.5897 1.8098 14.5613C1.82206 14.5328 1.84583 14.51 1.87589 14.498C2.2028 14.3708 9.93093 11.3736 11.0555 11.1437L15.5712 10.2609C16.2772 10.1458 17.0023 10.1922 17.6852 10.3964C21.8261 11.6281 23.3516 13.0857 23.3996 13.952C23.4091 14.1151 23.3619 14.2767 23.2651 14.4123C23.1684 14.5478 23.0274 14.65 22.8635 14.7033C22.0745 15.0277 21.0371 14.1326 19.9431 13.1801C19.0713 12.4164 18.1472 11.624 17.3539 11.4557C16.4386 11.2586 16.0463 11.6692 15.5756 12.1824C15.1402 12.7395 14.5133 13.137 13.8015 13.3074C11.9403 13.6892 6.70107 15.5614 6.64876 15.5779L6.5921 15.5984Z"/>
</mask>
<path d="M6.5921 15.5984C6.5612 15.6019 6.53005 15.5942 6.505 15.5768C6.47995 15.5594 6.4629 15.5337 6.45734 15.5048C6.45177 15.476 6.45811 15.4462 6.47505 15.4217C6.492 15.3971 6.51828 15.3795 6.54851 15.3726C6.60081 15.3726 11.8575 13.4757 13.7361 13.0898C14.4032 12.9309 14.9896 12.5559 15.3925 12.0305C15.885 11.5009 16.3514 11.0041 17.4106 11.2299C18.2824 11.4146 19.2064 12.2276 20.1087 13.0118C21.0981 13.8699 22.1225 14.7567 22.7632 14.4939C22.8817 14.4571 22.984 14.3843 23.0542 14.2871C23.1243 14.1898 23.1584 14.0735 23.1511 13.9561C23.1163 13.3197 21.9089 11.9032 17.6068 10.6099C16.9636 10.4163 16.2804 10.3713 15.6148 10.4785L11.1252 11.3695C10.0225 11.5953 2.06768 14.6828 1.97178 14.7115C1.9569 14.7175 1.94092 14.7206 1.92476 14.7207C1.9086 14.7208 1.89258 14.7179 1.8776 14.7122C1.86263 14.7065 1.84899 14.6981 1.83748 14.6874C1.82597 14.6767 1.8168 14.664 1.81051 14.65C1.79779 14.6216 1.79753 14.5897 1.8098 14.5613C1.82206 14.5328 1.84583 14.51 1.87589 14.498C2.2028 14.3708 9.93093 11.3736 11.0555 11.1437L15.5712 10.2609C16.2772 10.1458 17.0023 10.1922 17.6852 10.3964C21.8261 11.6281 23.3516 13.0857 23.3996 13.952C23.4091 14.1151 23.3619 14.2767 23.2651 14.4123C23.1684 14.5478 23.0274 14.65 22.8635 14.7033C22.0745 15.0277 21.0371 14.1326 19.9431 13.1801C19.0713 12.4164 18.1472 11.624 17.3539 11.4557C16.4386 11.2586 16.0463 11.6692 15.5756 12.1824C15.1402 12.7395 14.5133 13.137 13.8015 13.3074C11.9403 13.6892 6.70107 15.5614 6.64876 15.5779L6.5921 15.5984Z" fill="#000"/>
<path d="M6.5921 15.5984C6.5612 15.6019 6.53005 15.5942 6.505 15.5768C6.47995 15.5594 6.4629 15.5337 6.45734 15.5048C6.45177 15.476 6.45811 15.4462 6.47505 15.4217C6.492 15.3971 6.51828 15.3795 6.54851 15.3726C6.60081 15.3726 11.8575 13.4757 13.7361 13.0898C14.4032 12.9309 14.9896 12.5559 15.3925 12.0305C15.885 11.5009 16.3514 11.0041 17.4106 11.2299C18.2824 11.4146 19.2064 12.2276 20.1087 13.0118C21.0981 13.8699 22.1225 14.7567 22.7632 14.4939C22.8817 14.4571 22.984 14.3843 23.0542 14.2871C23.1243 14.1898 23.1584 14.0735 23.1511 13.9561C23.1163 13.3197 21.9089 11.9032 17.6068 10.6099C16.9636 10.4163 16.2804 10.3713 15.6148 10.4785L11.1252 11.3695C10.0225 11.5953 2.06768 14.6828 1.97178 14.7115C1.9569 14.7175 1.94092 14.7206 1.92476 14.7207C1.9086 14.7208 1.89258 14.7179 1.8776 14.7122C1.86263 14.7065 1.84899 14.6981 1.83748 14.6874C1.82597 14.6767 1.8168 14.664 1.81051 14.65C1.79779 14.6216 1.79753 14.5897 1.8098 14.5613C1.82206 14.5328 1.84583 14.51 1.87589 14.498C2.2028 14.3708 9.93093 11.3736 11.0555 11.1437L15.5712 10.2609C16.2772 10.1458 17.0023 10.1922 17.6852 10.3964C21.8261 11.6281 23.3516 13.0857 23.3996 13.952C23.4091 14.1151 23.3619 14.2767 23.2651 14.4123C23.1684 14.5478 23.0274 14.65 22.8635 14.7033C22.0745 15.0277 21.0371 14.1326 19.9431 13.1801C19.0713 12.4164 18.1472 11.624 17.3539 11.4557C16.4386 11.2586 16.0463 11.6692 15.5756 12.1824C15.1402 12.7395 14.5133 13.137 13.8015 13.3074C11.9403 13.6892 6.70107 15.5614 6.64876 15.5779L6.5921 15.5984Z" stroke="#000" stroke-width="0.4" mask="url(#path-6-outside-3)"/>
<mask id="path-7-outside-4" maskUnits="userSpaceOnUse" x="-1" y="14" width="33" height="18" fill="black">
<rect fill="white" x="-1" y="14" width="33" height="18"/>
<path d="M23.9725 31.8C19.2953 31.8 16.4784 28.9171 15.5703 23.227C15.5703 23.1218 15.5394 23.0334 15.5262 22.9577C15.5069 22.8243 15.4574 22.6965 15.3813 22.5831C15.3052 22.4698 15.2042 22.3736 15.0853 22.3011C14.4814 21.9139 13.4499 22.0528 13.1369 22.1033C13.0884 22.743 12.7401 26.3119 10.7784 27.9533C10.4366 28.2518 10.0337 28.4795 9.59525 28.6222C9.15675 28.7649 8.69209 28.8194 8.23045 28.7824C3.21823 28.3994 1.32266 25.6849 0.718723 18.0167C0.485084 17.9536 0.000171597 17.6758 0.000171597 16.4553C-0.00424967 16.1763 0.0768519 15.9022 0.233497 15.6667C0.390142 15.4311 0.615496 15.2445 0.88183 15.1296C1.13861 15.0141 1.42568 14.9746 1.70618 15.016L2.14701 15.0875C4.99917 15.5505 9.30608 16.2491 13.1192 18.5302C13.1192 18.5302 14.142 18.951 15.9714 18.5302C18.6913 17.8568 27.5608 17.7979 31.4004 20.2136C31.4357 20.2431 31.8765 20.6345 31.7884 22.0107C31.7759 22.0271 31.7592 22.0402 31.7399 22.0486C31.5312 22.4983 31.1896 22.8801 30.7568 23.147C30.7921 23.7489 30.9287 27.6587 28.6805 29.9987C27.5344 31.194 25.9518 31.8 23.9725 31.8ZM13.9348 21.7961C14.3976 21.7732 14.8573 21.88 15.2573 22.1033C15.4024 22.1953 15.5253 22.3156 15.618 22.4564C15.7108 22.5971 15.7711 22.7551 15.7951 22.9198C15.7951 22.9955 15.8215 23.0881 15.8392 23.1933C16.7208 28.7487 19.4584 31.5643 23.9945 31.5643C25.8989 31.5643 27.4197 30.9835 28.5218 29.843C30.8803 27.3936 30.532 23.1386 30.5276 23.1092C30.5252 23.085 30.5307 23.0607 30.5433 23.0396C30.5559 23.0185 30.5751 23.0016 30.5981 22.9913C31.0078 22.7576 31.3324 22.4094 31.5283 21.9939C31.5988 20.786 31.2373 20.4199 31.2329 20.4156C27.4815 18.0378 18.7222 18.0967 16.0375 18.7617C14.1067 19.2414 13.0443 18.7617 13.0002 18.7617C9.21791 16.4974 4.93746 15.8156 2.10734 15.3442L1.66651 15.2727C1.43373 15.239 1.19572 15.2727 0.983221 15.3695C0.764179 15.4679 0.579724 15.6249 0.452193 15.8213C0.324661 16.0178 0.259524 16.2453 0.264669 16.4764C0.264669 17.781 0.846564 17.8189 0.850972 17.8189C0.881941 17.8198 0.911529 17.8314 0.934233 17.8515C0.956937 17.8716 0.971212 17.8989 0.974404 17.9283C1.55189 25.5039 3.39456 28.1932 8.26572 28.5467C8.69449 28.5854 9.127 28.5387 9.53596 28.4098C9.94492 28.2809 10.3214 28.0724 10.6418 27.7976C12.6784 26.0889 12.9165 22.0612 12.9209 22.0191C12.9222 21.9933 12.9324 21.9685 12.9499 21.9487C12.9675 21.9289 12.9913 21.9152 13.0179 21.9097C13.3187 21.8426 13.6259 21.8046 13.9348 21.7961ZM24.0077 30.7647C23.611 30.7647 23.2363 30.7394 22.8968 30.7142L22.3855 30.6805H22.359C18.1183 29.662 16.3109 25.0956 16.7517 21.3163C16.7749 21.0769 16.8477 20.8442 16.9657 20.6319C17.0837 20.4195 17.2447 20.2315 17.4394 20.079C17.6901 19.883 17.9979 19.7654 18.321 19.7423C18.4136 19.7423 27.4638 19.2246 28.9274 21.4636C28.9905 21.5622 29.0465 21.6649 29.0949 21.7708C29.7677 23.8764 29.5624 26.1488 28.5218 28.1132C27.261 30.3901 25.4889 30.7647 24.0077 30.7647ZM22.4075 30.4659H22.9233C24.4618 30.5753 26.7894 30.7436 28.3102 27.987C29.3211 26.0865 29.5248 23.8869 28.8789 21.8466C28.8368 21.7524 28.7882 21.661 28.7334 21.573C27.5873 19.8096 20.8514 19.8138 18.3563 19.9611C18.0783 19.9779 17.8129 20.078 17.5981 20.2473C17.4292 20.3805 17.2897 20.5442 17.1876 20.7291C17.0854 20.9141 17.0227 21.1165 17.003 21.3247C16.5621 25.0199 18.3122 29.4558 22.4075 30.4659ZM8.23927 27.5577C7.59415 27.5417 6.95397 27.4455 6.33489 27.2715C5.36604 27.0255 4.5111 26.4774 3.90592 25.7143C2.64515 24.1192 2.07648 21.6656 2.17787 18.4165C2.18403 18.055 2.29215 17.7017 2.49086 17.3938C2.6031 17.1977 2.76623 17.0324 2.96461 16.9138C3.16299 16.7951 3.38997 16.7271 3.62379 16.7163C4.47018 16.7163 11.4485 17.558 11.8893 20.7608C11.8893 20.9964 12.2464 26.3624 9.15619 27.3851C8.87123 27.5171 8.55538 27.5766 8.23927 27.5577ZM6.40101 27.04C8.44205 27.5661 9.04599 27.1873 9.04599 27.1831H9.08125C12.0084 26.2278 11.6645 20.8702 11.6601 20.8028C11.2634 17.9283 4.73027 16.9477 3.6282 16.973C3.4356 16.9832 3.24907 17.0409 3.08681 17.1405C2.92455 17.24 2.79212 17.3781 2.70245 17.5411C2.52849 17.8126 2.43409 18.1236 2.42914 18.4418C2.33216 21.6319 2.89642 24.0393 4.1087 25.5965C4.68005 26.3162 5.48684 26.8332 6.40101 27.0653V27.04Z"/>
</mask>
<path d="M23.9725 31.8C19.2953 31.8 16.4784 28.9171 15.5703 23.227C15.5703 23.1218 15.5394 23.0334 15.5262 22.9577C15.5069 22.8243 15.4574 22.6965 15.3813 22.5831C15.3052 22.4698 15.2042 22.3736 15.0853 22.3011C14.4814 21.9139 13.4499 22.0528 13.1369 22.1033C13.0884 22.743 12.7401 26.3119 10.7784 27.9533C10.4366 28.2518 10.0337 28.4795 9.59525 28.6222C9.15675 28.7649 8.69209 28.8194 8.23045 28.7824C3.21823 28.3994 1.32266 25.6849 0.718723 18.0167C0.485084 17.9536 0.000171597 17.6758 0.000171597 16.4553C-0.00424967 16.1763 0.0768519 15.9022 0.233497 15.6667C0.390142 15.4311 0.615496 15.2445 0.88183 15.1296C1.13861 15.0141 1.42568 14.9746 1.70618 15.016L2.14701 15.0875C4.99917 15.5505 9.30608 16.2491 13.1192 18.5302C13.1192 18.5302 14.142 18.951 15.9714 18.5302C18.6913 17.8568 27.5608 17.7979 31.4004 20.2136C31.4357 20.2431 31.8765 20.6345 31.7884 22.0107C31.7759 22.0271 31.7592 22.0402 31.7399 22.0486C31.5312 22.4983 31.1896 22.8801 30.7568 23.147C30.7921 23.7489 30.9287 27.6587 28.6805 29.9987C27.5344 31.194 25.9518 31.8 23.9725 31.8ZM13.9348 21.7961C14.3976 21.7732 14.8573 21.88 15.2573 22.1033C15.4024 22.1953 15.5253 22.3156 15.618 22.4564C15.7108 22.5971 15.7711 22.7551 15.7951 22.9198C15.7951 22.9955 15.8215 23.0881 15.8392 23.1933C16.7208 28.7487 19.4584 31.5643 23.9945 31.5643C25.8989 31.5643 27.4197 30.9835 28.5218 29.843C30.8803 27.3936 30.532 23.1386 30.5276 23.1092C30.5252 23.085 30.5307 23.0607 30.5433 23.0396C30.5559 23.0185 30.5751 23.0016 30.5981 22.9913C31.0078 22.7576 31.3324 22.4094 31.5283 21.9939C31.5988 20.786 31.2373 20.4199 31.2329 20.4156C27.4815 18.0378 18.7222 18.0967 16.0375 18.7617C14.1067 19.2414 13.0443 18.7617 13.0002 18.7617C9.21791 16.4974 4.93746 15.8156 2.10734 15.3442L1.66651 15.2727C1.43373 15.239 1.19572 15.2727 0.983221 15.3695C0.764179 15.4679 0.579724 15.6249 0.452193 15.8213C0.324661 16.0178 0.259524 16.2453 0.264669 16.4764C0.264669 17.781 0.846564 17.8189 0.850972 17.8189C0.881941 17.8198 0.911529 17.8314 0.934233 17.8515C0.956937 17.8716 0.971212 17.8989 0.974404 17.9283C1.55189 25.5039 3.39456 28.1932 8.26572 28.5467C8.69449 28.5854 9.127 28.5387 9.53596 28.4098C9.94492 28.2809 10.3214 28.0724 10.6418 27.7976C12.6784 26.0889 12.9165 22.0612 12.9209 22.0191C12.9222 21.9933 12.9324 21.9685 12.9499 21.9487C12.9675 21.9289 12.9913 21.9152 13.0179 21.9097C13.3187 21.8426 13.6259 21.8046 13.9348 21.7961ZM24.0077 30.7647C23.611 30.7647 23.2363 30.7394 22.8968 30.7142L22.3855 30.6805H22.359C18.1183 29.662 16.3109 25.0956 16.7517 21.3163C16.7749 21.0769 16.8477 20.8442 16.9657 20.6319C17.0837 20.4195 17.2447 20.2315 17.4394 20.079C17.6901 19.883 17.9979 19.7654 18.321 19.7423C18.4136 19.7423 27.4638 19.2246 28.9274 21.4636C28.9905 21.5622 29.0465 21.6649 29.0949 21.7708C29.7677 23.8764 29.5624 26.1488 28.5218 28.1132C27.261 30.3901 25.4889 30.7647 24.0077 30.7647ZM22.4075 30.4659H22.9233C24.4618 30.5753 26.7894 30.7436 28.3102 27.987C29.3211 26.0865 29.5248 23.8869 28.8789 21.8466C28.8368 21.7524 28.7882 21.661 28.7334 21.573C27.5873 19.8096 20.8514 19.8138 18.3563 19.9611C18.0783 19.9779 17.8129 20.078 17.5981 20.2473C17.4292 20.3805 17.2897 20.5442 17.1876 20.7291C17.0854 20.9141 17.0227 21.1165 17.003 21.3247C16.5621 25.0199 18.3122 29.4558 22.4075 30.4659ZM8.23927 27.5577C7.59415 27.5417 6.95397 27.4455 6.33489 27.2715C5.36604 27.0255 4.5111 26.4774 3.90592 25.7143C2.64515 24.1192 2.07648 21.6656 2.17787 18.4165C2.18403 18.055 2.29215 17.7017 2.49086 17.3938C2.6031 17.1977 2.76623 17.0324 2.96461 16.9138C3.16299 16.7951 3.38997 16.7271 3.62379 16.7163C4.47018 16.7163 11.4485 17.558 11.8893 20.7608C11.8893 20.9964 12.2464 26.3624 9.15619 27.3851C8.87123 27.5171 8.55538 27.5766 8.23927 27.5577ZM6.40101 27.04C8.44205 27.5661 9.04599 27.1873 9.04599 27.1831H9.08125C12.0084 26.2278 11.6645 20.8702 11.6601 20.8028C11.2634 17.9283 4.73027 16.9477 3.6282 16.973C3.4356 16.9832 3.24907 17.0409 3.08681 17.1405C2.92455 17.24 2.79212 17.3781 2.70245 17.5411C2.52849 17.8126 2.43409 18.1236 2.42914 18.4418C2.33216 21.6319 2.89642 24.0393 4.1087 25.5965C4.68005 26.3162 5.48684 26.8332 6.40101 27.0653V27.04Z" fill="#000"/>
<path d="M23.9725 31.8C19.2953 31.8 16.4784 28.9171 15.5703 23.227C15.5703 23.1218 15.5394 23.0334 15.5262 22.9577C15.5069 22.8243 15.4574 22.6965 15.3813 22.5831C15.3052 22.4698 15.2042 22.3736 15.0853 22.3011C14.4814 21.9139 13.4499 22.0528 13.1369 22.1033C13.0884 22.743 12.7401 26.3119 10.7784 27.9533C10.4366 28.2518 10.0337 28.4795 9.59525 28.6222C9.15675 28.7649 8.69209 28.8194 8.23045 28.7824C3.21823 28.3994 1.32266 25.6849 0.718723 18.0167C0.485084 17.9536 0.000171597 17.6758 0.000171597 16.4553C-0.00424967 16.1763 0.0768519 15.9022 0.233497 15.6667C0.390142 15.4311 0.615496 15.2445 0.88183 15.1296C1.13861 15.0141 1.42568 14.9746 1.70618 15.016L2.14701 15.0875C4.99917 15.5505 9.30608 16.2491 13.1192 18.5302C13.1192 18.5302 14.142 18.951 15.9714 18.5302C18.6913 17.8568 27.5608 17.7979 31.4004 20.2136C31.4357 20.2431 31.8765 20.6345 31.7884 22.0107C31.7759 22.0271 31.7592 22.0402 31.7399 22.0486C31.5312 22.4983 31.1896 22.8801 30.7568 23.147C30.7921 23.7489 30.9287 27.6587 28.6805 29.9987C27.5344 31.194 25.9518 31.8 23.9725 31.8ZM13.9348 21.7961C14.3976 21.7732 14.8573 21.88 15.2573 22.1033C15.4024 22.1953 15.5253 22.3156 15.618 22.4564C15.7108 22.5971 15.7711 22.7551 15.7951 22.9198C15.7951 22.9955 15.8215 23.0881 15.8392 23.1933C16.7208 28.7487 19.4584 31.5643 23.9945 31.5643C25.8989 31.5643 27.4197 30.9835 28.5218 29.843C30.8803 27.3936 30.532 23.1386 30.5276 23.1092C30.5252 23.085 30.5307 23.0607 30.5433 23.0396C30.5559 23.0185 30.5751 23.0016 30.5981 22.9913C31.0078 22.7576 31.3324 22.4094 31.5283 21.9939C31.5988 20.786 31.2373 20.4199 31.2329 20.4156C27.4815 18.0378 18.7222 18.0967 16.0375 18.7617C14.1067 19.2414 13.0443 18.7617 13.0002 18.7617C9.21791 16.4974 4.93746 15.8156 2.10734 15.3442L1.66651 15.2727C1.43373 15.239 1.19572 15.2727 0.983221 15.3695C0.764179 15.4679 0.579724 15.6249 0.452193 15.8213C0.324661 16.0178 0.259524 16.2453 0.264669 16.4764C0.264669 17.781 0.846564 17.8189 0.850972 17.8189C0.881941 17.8198 0.911529 17.8314 0.934233 17.8515C0.956937 17.8716 0.971212 17.8989 0.974404 17.9283C1.55189 25.5039 3.39456 28.1932 8.26572 28.5467C8.69449 28.5854 9.127 28.5387 9.53596 28.4098C9.94492 28.2809 10.3214 28.0724 10.6418 27.7976C12.6784 26.0889 12.9165 22.0612 12.9209 22.0191C12.9222 21.9933 12.9324 21.9685 12.9499 21.9487C12.9675 21.9289 12.9913 21.9152 13.0179 21.9097C13.3187 21.8426 13.6259 21.8046 13.9348 21.7961ZM24.0077 30.7647C23.611 30.7647 23.2363 30.7394 22.8968 30.7142L22.3855 30.6805H22.359C18.1183 29.662 16.3109 25.0956 16.7517 21.3163C16.7749 21.0769 16.8477 20.8442 16.9657 20.6319C17.0837 20.4195 17.2447 20.2315 17.4394 20.079C17.6901 19.883 17.9979 19.7654 18.321 19.7423C18.4136 19.7423 27.4638 19.2246 28.9274 21.4636C28.9905 21.5622 29.0465 21.6649 29.0949 21.7708C29.7677 23.8764 29.5624 26.1488 28.5218 28.1132C27.261 30.3901 25.4889 30.7647 24.0077 30.7647ZM22.4075 30.4659H22.9233C24.4618 30.5753 26.7894 30.7436 28.3102 27.987C29.3211 26.0865 29.5248 23.8869 28.8789 21.8466C28.8368 21.7524 28.7882 21.661 28.7334 21.573C27.5873 19.8096 20.8514 19.8138 18.3563 19.9611C18.0783 19.9779 17.8129 20.078 17.5981 20.2473C17.4292 20.3805 17.2897 20.5442 17.1876 20.7291C17.0854 20.9141 17.0227 21.1165 17.003 21.3247C16.5621 25.0199 18.3122 29.4558 22.4075 30.4659ZM8.23927 27.5577C7.59415 27.5417 6.95397 27.4455 6.33489 27.2715C5.36604 27.0255 4.5111 26.4774 3.90592 25.7143C2.64515 24.1192 2.07648 21.6656 2.17787 18.4165C2.18403 18.055 2.29215 17.7017 2.49086 17.3938C2.6031 17.1977 2.76623 17.0324 2.96461 16.9138C3.16299 16.7951 3.38997 16.7271 3.62379 16.7163C4.47018 16.7163 11.4485 17.558 11.8893 20.7608C11.8893 20.9964 12.2464 26.3624 9.15619 27.3851C8.87123 27.5171 8.55538 27.5766 8.23927 27.5577ZM6.40101 27.04C8.44205 27.5661 9.04599 27.1873 9.04599 27.1831H9.08125C12.0084 26.2278 11.6645 20.8702 11.6601 20.8028C11.2634 17.9283 4.73027 16.9477 3.6282 16.973C3.4356 16.9832 3.24907 17.0409 3.08681 17.1405C2.92455 17.24 2.79212 17.3781 2.70245 17.5411C2.52849 17.8126 2.43409 18.1236 2.42914 18.4418C2.33216 21.6319 2.89642 24.0393 4.1087 25.5965C4.68005 26.3162 5.48684 26.8332 6.40101 27.0653V27.04Z" stroke="#000" stroke-width="0.4" mask="url(#path-7-outside-4)"/>
</g>
</g>
<defs>
<filter id="filter0_d" x="-130" y="-409" width="470" height="697" filterUnits="userSpaceOnUse" color-interpolation-filters="sRGB">
<feFlood flood-opacity="0" result="BackgroundImageFix"/>
<feColorMatrix in="SourceAlpha" type="matrix" values="0 0 0 0 0 0 0 0 0 0 0 0 0 0 0 0 0 0 127 0"/>
<feOffset dy="4"/>
<feGaussianBlur stdDeviation="45"/>
<feColorMatrix type="matrix" values="0 0 0 0 0 0 0 0 0 0 0 0 0 0 0 0 0 0 0.25 0"/>
<feBlend mode="normal" in2="BackgroundImageFix" result="effect1_dropShadow"/>
<feBlend mode="normal" in="SourceGraphic" in2="effect1_dropShadow" result="shape"/>
</filter>
<linearGradient id="paint0_linear" x1="105" y1="-363" x2="105" y2="254" gradientUnits="userSpaceOnUse">
<stop stop-color="#5E19CE"/>
<stop offset="1" stop-color="#4021D6"/>
</linearGradient>
<clipPath id="clip0">
<rect width="320" height="5043" fill="white" transform="translate(-55 -3201)"/>
</clipPath>
<clipPath id="clip1">
<rect width="42" height="42" fill="white" transform="matrix(-1 0 0 1 42 0)"/>
</clipPath>
</defs>
</svg>
