<svg width="70" height="70" fill="none" xmlns="http://www.w3.org/2000/svg"><path d="M57.052.507L57.158.4l-.106.106 12.441 12.44.106-.107-.106.106c.229.228.357.538.357.86v52.092a3.956 3.956 0 01-3.952 3.952H15.586a3.956 3.956 0 01-3.952-3.952v-23.53a1.217 1.217 0 012.435 0v23.53c0 .837.68 1.518 1.517 1.518h50.312a1.52 1.52 0 001.518-1.518V15.026h-8.49a3.956 3.956 0 01-3.952-3.952v-8.49H15.586c-.837 0-1.517.68-1.517 1.518v1.965l.182-.04a17.902 17.902 0 013.808-.408c.672 0 1.217.545 1.217 1.217v16.692c0 .672-.545 1.217-1.217 1.217H1.367A1.217 1.217 0 01.15 23.528c0-7.575 4.728-14.068 11.39-16.68l.094-.038V4.102A3.956 3.956 0 0115.586.15H56.19c.323 0 .633.128.86.357zm-40.21 7.757V8.1l-.163.014c-7.435.66-13.374 6.6-14.034 14.034l-.014.163h14.211V8.264zm40.823-3.702l-.256-.257v6.769c0 .837.68 1.517 1.517 1.517h6.77l-.256-.256-7.775-7.774z" fill="#000" stroke="#fff" stroke-width=".3"/><path d="M21.59 27.207h.15V11.732c0-.672.545-1.217 1.217-1.217 9.875 0 17.909 8.034 17.909 17.91 0 9.875-8.034 17.909-17.91 17.909-9.874 0-17.909-8.035-17.909-17.91 0-.672.546-1.217 1.218-1.217H21.59zm2.747-14.196l-.163-.015v12.49l.256-.256 8.454-8.454.116-.116-.126-.105a15.405 15.405 0 00-8.537-3.544zM7.692 29.64H7.53l.014.164c.7 7.889 7.346 14.094 15.414 14.094 8.533 0 15.475-6.942 15.475-15.475 0-3.77-1.356-7.23-3.605-9.917l-.105-.126-.116.116L23.82 29.282l-.004.003c-.22.22-.524.357-.86.357H7.692zm16.155-.379l-.002.001h.002zm32.375 19.694l.072-.072-.04-.093a3.956 3.956 0 013.64-5.492 3.956 3.956 0 013.95 3.952 3.956 3.956 0 01-3.95 3.952 3.926 3.926 0 01-1.86-.466l-.098-.053-.078.08-7.804 7.802-.074.075.045.095c.24.51.375 1.08.375 1.68a3.956 3.956 0 01-3.951 3.951 3.956 3.956 0 01-3.952-3.951c0-.616.142-1.198.394-1.718l.046-.096-.075-.075-5.084-5.083-.08-.081-.1.057a3.925 3.925 0 01-1.95.517 3.925 3.925 0 01-1.75-.41l-.096-.048-.077.076-4.988 4.99-.076.075.046.095c.249.517.388 1.096.388 1.706a3.956 3.956 0 01-3.951 3.952 3.956 3.956 0 01-3.952-3.952 3.956 3.956 0 013.952-3.951 3.93 3.93 0 011.698.384l.096.046.075-.075 5.017-5.017.074-.074-.044-.095a3.926 3.926 0 01-.364-1.654 3.956 3.956 0 013.951-3.951 3.956 3.956 0 013.952 3.951c0 .507-.097.992-.272 1.438l-.036.09.07.07 5.23 5.23.075.076.096-.046a3.928 3.928 0 011.687-.379c.618 0 1.203.143 1.724.397l.097.047.075-.076 7.877-7.876zM26.198 59.332h0l-.005-.004a1.511 1.511 0 00-1.05-.425 1.519 1.519 0 000 3.035 1.52 1.52 0 001.518-1.518c0-.409-.164-.78-.428-1.053h0l-.005-.005-.009-.008-.006-.005-.002-.002v-.001l-.005-.005-.008-.009zm7.932-9.348a1.518 1.518 0 003.034 0 1.518 1.518 0 00-3.034 0zm10.801 10.43a1.519 1.519 0 003.034 0 1.518 1.518 0 00-3.034.001zM58.376 47.25a1.518 1.518 0 003.034 0 1.518 1.518 0 00-3.034 0zm-12.532-15.1h7.216a1.217 1.217 0 010 2.434h-7.216a1.217 1.217 0 010-2.434zm0-12.996h16.7a1.217 1.217 0 010 2.434h-16.7a1.217 1.217 0 010-2.434zm0 6.562h16.7a1.217 1.217 0 010 2.435h-16.7a1.217 1.217 0 010-2.435z" fill="#000" stroke="#fff" stroke-width=".3"/><path d="M45.844 32.15h16.7a1.217 1.217 0 010 2.434h-16.7a1.217 1.217 0 010-2.434z" fill="#000" stroke="#fff" stroke-width=".3"/></svg>