<svg width="70" height="70" fill="none" xmlns="http://www.w3.org/2000/svg"><path d="M45.567 70c-1.958 0-3.916-.074-5.815-.133-1.736-.06-3.367-.12-4.866-.12-1.498 0-3.13.06-4.865.12-1.899.074-3.857.133-5.815.133-4.583 0-10.31-.356-13.914-3.07-6.007-4.525-7.847-12.431-4.94-21.124.016-.03.016-.059.03-.089l.297-.637c2.522-5.444 4.524-9.746 7.832-14.256l.015-.015c3.056-4.183 6.512-8.9 10.576-11.332-.534-1.335-1.513-2.952-2.536-4.643-2.433-3.99-4.955-8.114-3.338-11.244C19.296 1.528 21.981.37 26.431.045c.386-.03.757-.045 1.113-.045 2.136 0 3.397.52 4.51.964.89.371 1.66.683 2.847.727 1.187-.06 1.958-.37 2.848-.727C38.862.504 40.123 0 42.26 0c.356 0 .727.015 1.112.045 4.45.326 7.135 1.483 8.203 3.545 1.617 3.13-.904 7.253-3.337 11.244-1.024 1.69-2.018 3.293-2.537 4.643 4.08 2.432 7.536 7.164 10.591 11.347 3.308 4.51 5.296 8.811 7.833 14.256l.296.637c.015.03.03.06.03.09 2.907 8.692 1.068 16.583-4.94 21.122C55.861 69.644 50.15 70 45.567 70zm-10.68-1.973c1.542 0 3.189.06 4.924.119a147.3 147.3 0 005.756.133c4.316 0 9.686-.311 12.875-2.73 5.385-4.064 7.017-11.228 4.376-19.164l-.282-.593c-2.492-5.355-4.45-9.583-7.654-13.959-3.115-4.257-6.63-9.093-10.65-11.214a.851.851 0 01-.416-.994c.49-1.661 1.691-3.62 2.937-5.681 2.092-3.427 4.45-7.299 3.279-9.568-.757-1.469-3.041-2.344-6.809-2.626-.341-.03-.667-.044-.979-.044-1.81 0-2.804.4-3.872.845-.964.386-1.958.801-3.456.86h-.074c-1.513-.059-2.507-.46-3.456-.86-1.053-.43-2.062-.845-3.857-.845-.311 0-.638.015-.979.044-3.768.267-6.052 1.157-6.809 2.626-1.171 2.27 1.202 6.141 3.279 9.568 1.26 2.062 2.447 4.02 2.951 5.68a.844.844 0 01-.415.995c-4.005 2.106-7.52 6.927-10.636 11.184l-.014.03C11.7 36.209 9.729 40.437 7.25 45.792l-.281.593c-2.64 7.936-1.01 15.1 4.375 19.165 3.204 2.418 8.56 2.73 12.876 2.73 1.928 0 3.872-.075 5.756-.134 1.72-.06 3.367-.119 4.91-.119z" fill="#000"/><path d="M44.633 20.723H25.142a.861.861 0 010-1.721h19.491a.86.86 0 01.86.86c0 .475-.4.86-.86.86zm-9.167 37.648c-8.07 0-14.626-6.556-14.626-14.626S27.396 29.12 35.466 29.12s14.626 6.557 14.626 14.626c0 8.07-6.572 14.626-14.626 14.626zm0-27.546c-7.12 0-12.905 5.8-12.905 12.92s5.785 12.92 12.905 12.92c7.12 0 12.905-5.8 12.905-12.92s-5.785-12.92-12.905-12.92z" fill="#000"/><path d="M35.525 53.741c-1.172 0-2.314-.267-3.249-.756-.712-.356-1.335-.964-1.854-1.78-.505-.786-.801-1.765-.875-2.893a.871.871 0 01.786-.92.871.871 0 01.92.787c.059.845.267 1.542.608 2.091.356.55.756.95 1.201 1.172 1.632.846 4.287.801 5.637-.623.682-.712 1.009-1.602 1.009-2.685 0-.474-.075-.934-.238-1.35-.178-.415-.385-.741-.667-1.023l-.015-.015c-.297-.297-.682-.549-1.157-.756-.712-.312-1.424-.505-2.166-.698-1.068-.281-2.165-.578-3.352-1.246a4.21 4.21 0 01-1.72-1.735c-.401-.727-.594-1.528-.594-2.433 0-1.587.578-2.907 1.72-3.916.92-.801 2.315-1.26 3.872-1.26 1.513 0 2.893.43 3.797 1.2.98.831 1.573 1.959 1.78 3.368a.856.856 0 01-.726.964c-.46.06-.905-.267-.964-.727-.134-.994-.535-1.735-1.187-2.299-.593-.504-1.602-.801-2.685-.801-1.113 0-2.15.326-2.744.846-.772.667-1.142 1.527-1.142 2.625 0 .623.133 1.142.385 1.617.252.46.593.801 1.053 1.053 1.01.564 1.958.816 2.967 1.083.772.208 1.587.415 2.418.786.682.297 1.246.668 1.691 1.128.445.445.786.964 1.053 1.602 0 .014 0 .014.015.03a5.72 5.72 0 01.341 1.957c0 1.528-.504 2.834-1.483 3.857-1.172 1.231-2.819 1.75-4.435 1.75z" fill="#000"/><path d="M35.45 55.64a.861.861 0 01-.86-.86V32.782a.861.861 0 011.72 0v22.013c0 .46-.385.846-.86.846z" fill="#000"/></svg>