<svg width="70" height="46" fill="none" xmlns="http://www.w3.org/2000/svg"><path d="M68.207 12.665C65.57 7.268 59.96 3.788 51.111 2.076c-.087-.457-.393-1.04-1.276-1.515a4.92 4.92 0 00-1.902-.546 4.801 4.801 0 00-1.956.248c-.706.254-1.097.621-1.31.973-.64-.035-1.27-.053-1.887-.053-12.249 0-18.495 6.846-21.578 12.59-2.81 5.235-3.526 10.413-3.686 11.971-1.632.701-4.95 2.011-7.897 3.175a418.736 418.736 0 00-5.023 2.003c-2.405.999-4.135 2.733-4.515 4.53-.205.972-.018 1.907.526 2.684.101.348.283.665.545.927 1.115 1.114 3.171.764 4.004.56l.086-.024c.203-.062 4.822-1.512 7.587-3.175 2.15.908 4.256 2.331 6.436 3.805C23.295 42.952 27.805 46 33.36 46c.683 0 1.383-.047 2.099-.145l.066-.011c12.045-2.25 18.451-8.404 20.23-10.363 1.446.077 3.01.126 4.524.126 2.04 0 3.721-.087 4.996-.26 2.08-.28 3.103-.78 3.532-1.732l.113-.25.017-.276c.082-1.261.255-2.646.438-4.112.652-5.19 1.389-11.077-1.168-16.312zM48.683 1.66l-.162-.023a.698.698 0 01.103-.077l.058.1zm-1.715-.243l.016.016-.028-.003.012-.013zm-42.53 35.32a4.872 4.872 0 01-.698.112c.79-1.29 2.37-1.547 3.51-1.547.398 0 .742.03.98.061a55.012 55.012 0 01-3.791 1.375zm7.557-.636c.132.048.265.096.398.148a1.423 1.423 0 01-.398-.148zm23.043 6.809c-5.441.734-9.683-2.132-14.174-5.166-3.662-2.475-7.448-5.033-11.836-5.271a7.41 7.41 0 00-.226-.04l1.86-.735c3.149-1.242 6.716-2.651 8.274-3.336a2.41 2.41 0 00.88-.653h.019c5.775 0 29.965 7.111 30.208 7.183l.093.024c.379.085.968.173 1.702.256-2.758 2.39-8.234 6.13-16.8 7.738zM66.492 28.6c-.155 1.242-.304 2.43-.401 3.563-.59.174-2.128.467-5.811.467-4.065 0-8.286-.36-9.48-.614-1.504-.442-23.166-6.788-30.218-7.258.332-2.075 1.165-5.82 3.167-9.55 3.935-7.33 10.337-11.047 19.03-11.047a34.5 34.5 0 014.495.308c21.88 2.88 20.465 14.17 19.218 24.131z" fill="#000"/></svg>