<svg width="70" height="77" fill="none" xmlns="http://www.w3.org/2000/svg"><path d="M41.52 25.967c.37-.314.809.298.44.612L29.87 36.947c-.474.404-1.315.488-1.885.327L1.046 29.618c-.31-.089-.342-.051-.325.265v6.465c0 .416.199.513.556.614l27.022 7.68c.345.098.977.064 1.265-.184l12.322-10.931c.367-.318.445.609.445.609l-12.322 10.93c-.472.408-1.32.49-1.889.328l-27.022-7.68c-.676-.192-1.09-.572-1.09-1.366v-7.1c0-.493-.089-.837.316-1.184l12.032-11.055c.37-.316.231-.049.231.673L1.014 28.462c-.271.208-.362.27.129.38l27.021 7.68c.346.098.977.06 1.268-.186L41.52 25.967zm5.162 41.17c1.28.737 2.072 1.781 2.072 2.958v2.436c0 1.176-.792 2.22-2.072 2.957-2.614 1.504-6.801 1.504-9.415 0-1.28-.737-2.073-1.78-2.073-2.957v-2.436c0-1.177.792-2.22 2.073-2.957 2.614-1.505 6.8-1.505 9.415 0zm.954 5.228a5.46 5.46 0 01-.954.687c-2.614 1.504-6.801 1.504-9.415 0a5.458 5.458 0 01-.954-.687c-.47-.427-.403-.611-.403.166 0 .864.645 1.668 1.69 2.269 2.403 1.383 6.346 1.383 8.75 0 1.043-.6 1.689-1.405 1.689-2.27 0-.776.066-.592-.403-.165zm-1.287-4.54c-2.403-1.382-6.346-1.382-8.75 0-1.044.602-1.69 1.405-1.69 2.27 0 .864.646 1.668 1.69 2.269 2.404 1.383 6.347 1.383 8.75 0 1.044-.6 1.69-1.405 1.69-2.27 0-.864-.646-1.667-1.69-2.268zm8.998-18.45c1.379-.056 2.542.284 3.252 1.623.346.654.718 1.317 1.046 1.978.334.672.352 1.475.105 2.323-.992 3.405-5.508 6.303-8.726 6.434-1.445.06-2.61-.413-3.15-1.433l-1.118-2.11c-.54-1.018-.334-2.353.437-3.687 1.572-2.725 5.202-5.007 8.154-5.127zm3.34 3.61c-.85 3.501-5.553 6.507-8.78 6.639-.422.017-.82-.01-1.185-.085-.577-.116-.577-.28-.23.374.397.748 1.326 1.093 2.507 1.044 2.922-.12 7.29-2.867 8.104-6.008.153-.59.139-1.135-.072-1.58a7.627 7.627 0 00-.2-.382c-.12-.22-.088-.233-.145-.001zm-3.314-2.833c-2.718.111-6.13 2.258-7.577 4.765-.629 1.09-.82 2.138-.422 2.887.396.748 1.325 1.092 2.507 1.044 2.918-.12 7.73-3.108 8.18-6.386.202-1.46-.777-2.388-2.688-2.31zm5.448 3.972c-.47 0-.47-.779 0-.779 2.166 0 6.712.982 6.712 4.085v2.436c0 1.176-.792 2.22-2.072 2.957-1.211.697-2.876 1.128-4.708 1.128-1.936 0-4.531-.5-5.931-2.083-.326-.369.188-.908.514-.54 1.253 1.418 3.69 1.844 5.417 1.844 1.716 0 3.262-.396 4.375-1.037 1.044-.6 1.69-1.404 1.69-2.27v-.585c-.346.416-.806.79-1.357 1.107-1.211.697-2.876 1.128-4.708 1.128-1.271 0-2.546-.18-3.741-.667-.44-.178-.191-.906.248-.728 1.118.455 2.306.616 3.493.616 1.716 0 3.262-.396 4.375-1.037 1.044-.6 1.69-1.404 1.69-2.269 0-2.532-4.299-3.306-5.997-3.306zm-4.435-26.81a.169.169 0 01.25.034.206.206 0 01-.03.273l-7.034 5.718c-.184.157-.404-.15-.22-.306l7.034-5.718zm.094-.042l-4.645-1.227c-.227-.063-.139-.44.088-.376l4.764 1.26c.085.015.15.096.15.193v8.111c0 .776.05 1.282-.562 1.81l-5.652 4.882c-.79.719-1.3.593-1.253-.663l-.017-7.828-3.51-1.003c-.226-.065-.136-.44.091-.376l3.642 1.041a.193.193 0 01.133.2l.017 7.966c.028.776.113.843.647.382l5.694-4.918c.488-.42.413-.893.413-1.493v-7.96zM36.157 44.44a.18.18 0 01.358 0v7.609a.18.18 0 01-.358 0v-7.61zM70 16.309l-.036 6.38c-.007 1.155-.193 1.856-1.053 2.59l-11.896 10.28c-.369.314-.808-.298-.439-.612l11.896-10.28c.676-.577.774-1.076.779-1.98l.03-5.16c.003-.692.116-.738-.37-.321l-11.99 10.28c-.369.317-.81-.295-.441-.611l12.427-10.657c.464-.397.507-.298-.17-.49l-6.16-1.467c-.454-.128-.275-.88.179-.752l6.46 1.552c.756.215.788.56.784 1.248zM49.369 40.933c.367-.318.212.81.444.61l-12.41 10.76a1.762 1.762 0 01-1.651.37L8.491 44.95c-.675-.192-1.09-.569-1.09-1.367v-3.902c0-.51.712-.51.712 0v3.902c0 .419.21.516.557.614l27.26 7.722c.344.098.74.023 1.027-.226l12.41-10.76zm-.454-7.796c.369-.314.807.298.438.612L37.265 44.182c-.475.404-1.316.488-1.886.327l-3.44-1.11c-.455-.129-.276-.88.178-.752l3.44 1.11c.347.098.978.06 1.269-.186l12.089-10.435zm.044-13.27c.185-.157.404.15.22.306L42.34 26.15c-.184.157-.404-.149-.22-.306l6.838-5.978zm.127.171c-9.584-2.692-19.222-5.306-28.781-8.084-.73-.212-1.041-.353-1.676.152l-5.799 4.61c-.595.469-.168.603.32.748l14.517 4.195 14.515 4.204a.193.193 0 01.133.199l.017 7.966c-.014.679.072.877.63.397l5.713-4.934c.486-.42.41-.894.41-1.492v-7.96zM41.959 26.2l-28.957-8.376c-.825-.177-1.218-.756-.415-1.394l5.823-4.63c.744-.592 1.12-.474 1.987-.222l28.896 8.118c.085.014.15.095.15.192v8.111c0 .77.05 1.282-.558 1.807l-5.748 4.964c-.754.627-1.216.361-1.161-.742l-.017-7.828zM28.763 36.933a.18.18 0 01.358 0v8.244a.18.18 0 01-.357 0v-8.244zM62.608 8.861l-.038 6.594c-.007 1.154-.193 1.855-1.053 2.589l-12.05 9.958c-.369.314-.247-.77-.439-.612l12.05-9.958c.676-.576.774-1.075.78-1.98l.027-5.032c.005-.846.138-.882-.46-.37L49.62 20.036c-.369.316-.81-.296-.441-.612L61.368 9.11c.457-.38.493-.456-.186-.662L34.451.85c-.347-.098-.863-.136-1.267.187l-13.28 10.476c0-.325-1.121.144-.752-.172L32.742.425c.617-.496 1.319-.488 1.888-.327l27.19 7.728c.384.11.807.409.787 1.035z" fill="#000"/></svg>