<svg width="70" height="70" fill="none" xmlns="http://www.w3.org/2000/svg"><g clip-path="url(#clip0)" fill="#000"><path d="M69.171 17H6.744a.84.84 0 00-.831.85v2.127H3.832a.84.84 0 00-.83.85v2.218H.83a.84.84 0 00-.831.85V52.15c0 .47.372.849.83.849h62.427a.84.84 0 00.831-.85v-2.218h2.17a.84.84 0 00.831-.85v-2.127h2.08a.84.84 0 00.831-.85V17.85a.838.838 0 00-.829-.85zm-6.744 34.302H1.662V24.746h60.765v26.556zm3-3.068h-1.339V23.896a.84.84 0 00-.83-.849H4.661v-1.37h60.766v26.557zm2.912-2.978H67.09V20.827a.84.84 0 00-.83-.85H7.574V18.7H68.34v26.556z"/><path d="M56.063 50H7.939a.823.823 0 01-.763-.526 6.594 6.594 0 00-3.655-3.698.84.84 0 01-.521-.782V31.006a.84.84 0 01.521-.782 6.596 6.596 0 003.655-3.698.822.822 0 01.762-.526h48.124a.82.82 0 01.762.526 6.596 6.596 0 003.655 3.698.84.84 0 01.521.782v13.989a.84.84 0 01-.521.781 6.594 6.594 0 00-3.655 3.7.819.819 0 01-.761.524zm-47.59-1.679h47.056a8.269 8.269 0 013.828-3.877V31.556a8.269 8.269 0 01-3.828-3.877H8.472a8.273 8.273 0 01-3.827 3.877v12.888a8.28 8.28 0 013.827 3.877z"/><path d="M32 47c-4.962 0-9-4.037-9-9s4.037-9 9-9 9 4.037 9 9-4.038 9-9 9zm0-16.326c-4.058 0-7.36 3.286-7.36 7.326 0 4.04 3.302 7.326 7.36 7.326 4.059 0 7.36-3.286 7.36-7.326 0-4.04-3.302-7.326-7.36-7.326z"/><path d="M31.645 41.73c-1.897-.148-2.239-1.164-2.239-2.34v-.24h1.577c0 .628.057 1.222.662 1.37v-2.307l-.57-.206c-1.108-.4-1.565-1.165-1.565-2.193 0-1.394.788-2.182 2.135-2.33v-.789h.731v.788c1.68.138 2.113 1.143 2.113 2.16v.16h-1.576c-.012-.583-.149-.983-.537-1.109v2.159l.903.366c.844.353 1.404.8 1.404 2.067 0 1.644-.8 2.341-2.307 2.444v.994h-.73v-.993h-.001zm0-7.035c-.343.103-.56.389-.56.868 0 .41.172.73.56.96v-1.828zm.731 5.825c.469-.102.663-.491.663-.914 0-.57-.229-.879-.663-1.108v2.022z"/></g><defs><clipPath id="clip0"><path fill="#fff" d="M0 0h70v70H0z"/></clipPath></defs></svg>