<svg width="42" height="42" fill="none" xmlns="http://www.w3.org/2000/svg"><g clip-path="url(#clip0)" fill="#000"><mask id="a" maskUnits="userSpaceOnUse" x="-1" y="-1" width="44" height="44"><path fill="#fff" d="M-1-1h44v44H-1z"/><path d="M26.858 12.6c-.24-.135-.037-.503.204-.369l11.817 6.584c.207.115.293.15.497.011l2.043-1.494c.195-.13.156-.2-.025-.3l-11.967-6.587-2.538 1.766v1.175l10.854 6.117c.23.13.479.277.48.58l.063 15.139.426.252c.21.124.17.135.17-.114V19.549c-.01-.254.008-.25-.206-.366L26.858 12.6zM6.04 29.778c2.134 0 5.587 1.166 5.388 3.821l-.027.776c.835.624 1.455 1.534 1.374 2.62l-.047 1.379c-.04 1.022-.636 1.948-1.61 2.61-2.067 1.4-5.407 1.318-7.48-.028-1.002-.65-1.651-1.553-1.646-2.559l.006-1.015C1.19 36.769.689 35.971.647 35.09c-.026-.545-.003-1.13-.003-1.68 0-2.553 3.32-3.632 5.395-3.632zm4.923 5.126a4.014 4.014 0 01-1.142 1.103c-2.095 1.382-5.467 1.382-7.562 0-.506-.334-.914-.735-1.193-1.182 0 .122-.002.236.011.359.08.785.605 1.497 1.412 2.03 1.93 1.273 5.086 1.302 7.017.015.814-.543 1.423-1.312 1.457-2.325zM6.04 30.2c-1.795 0-4.83.88-4.97 3.078-.003 1.071.545 1.797 1.42 2.374 1.954 1.29 5.146 1.29 7.1 0 .839-.553 1.372-1.3 1.42-2.12.082-2.382-3.085-3.332-4.97-3.332zm5.343 4.7c-.04 1.166-.702 2.05-1.645 2.68-1.965 1.31-5.016 1.338-7.076.226.284.556.799 1.046 1.47 1.423 1.953 1.095 4.929 1.057 6.806-.181.838-.553 1.371-1.3 1.42-2.12.028-.838-.362-1.495-.975-2.029zm.927 3.398a4.012 4.012 0 01-1.142 1.103c-2.009 1.326-5.15 1.369-7.24.196-.655-.368-1.179-.84-1.515-1.379v.18c.014.851.57 1.629 1.452 2.201 1.93 1.254 5.091 1.339 7.017.033.811-.55 1.394-1.324 1.428-2.334zM8.581 1.324L10.482.196c.538-.318.807-.215 1.32.067L41.606 16.67c.279.162.394.38.394.698V34.11c0 .432-.06.445-.4.71l-1.766 1.247c-.275.193-.484.276-.801.088l-.744-.442.004 1.083c.002.56-.02.61-.567.993l-1.654 1.152c-.295.206-.528.282-.866.08l-.768-.458.004.9c.002.512-.01.759-.475 1.062l-1.917 1.249c-.288.187-.418.176-.72 0l-12.547-7.303c-.138.203-.48-.034-.623-.119l-4.037-2.366c-.333-.195-.616-.253-.635-.678a.209.209 0 01-.134-.026L1.479 24.305C.115 23.505-.001 23.4 0 21.78V6.836c0-.327.055-.469.386-.653l1.779-1.055c.707-.419.834-.45 1.55-.04l.434.247V4.47c0-.333-.011-.524.353-.727l1.807-1.07c.634-.377.824-.419 1.483-.047l.43.242v-.9c0-.31.083-.48.359-.643zm.062 1.35v.43l12.962 7.304V9.33c0-.04.02-.074.053-.092l2.516-1.683L11.61.638c-.367-.202-.513-.315-.914-.078l-1.85 1.097c-.287.17-.26.233.016.388l12.743 7.063c.24.134.037.503-.204.368L8.92 2.561c-.294-.17-.282-.2-.278.113zM4.822 4.478l12.963 7.183c.24.137.033.504-.207.367L4.723 4.906c-.159-.09-.153-.01-.153.16v.51l13.005 7.43V11.91c0-.044.028-.083.067-.098l2.592-1.691L7.592 2.997c-.524-.296-.563-.263-1.066.036L4.79 4.06c-.334.205-.244.272.031.417zm30.25 33.817V22.431c0-.249-.032-.294-.288-.429l-11.947-7.054c-.24-.137-.033-.504.207-.367l11.99 7.078c.229.13.255.144.489-.017l2.11-1.448c.194-.143.134-.193-.068-.307l-12.084-6.81-2.644 1.762v1.173l11.08 6.33c.328.188.446.31.448.709l.07 15.02.525.313c.142.084.112.084.112-.089zm-1.125-14.977l-1.98 1.457c-.25.192-.325.212-.325.468v16.083c0 .135.054.175.228.062l1.888-1.23c.316-.206.266-.315.265-.65l-.076-16.19zm-19.368-8.05c-.05-.03-.88-.517-.851-.568-1.41-1.172.905.355.955.384l3.924 2.133c.12.069.015.252-.105.183l-3.923-2.132zM21.815 9.6c-.12-.068-.018-.252.103-.184l4.745 2.61c.12.069.017.253-.103.185L21.815 9.6zm-4.03 2.37c-.12-.069-.016-.252.104-.184l4.643 2.701c.12.069.017.252-.104.184l-4.643-2.701zm4.03-1.443l4.863 2.74v-1.03c0-.06-.01-.129.046-.168l2.497-1.737-4.839-2.663-2.567 1.716v1.142zm-4.03 1.443v1.156l4.842 2.766v-1.058c0-.054-.006-.104.047-.14l2.6-1.733-4.833-2.724-2.655 1.733zm.91 5.387l2.603-1.739-4.854-2.773-2.744 1.79c-.002 5.466.027 10.941-.005 16.406-.003.569.02.462.515.752l4.055 2.377c.389.23.384.263.378-.264l.004-16.412c0-.053-.002-.104.049-.137zm.162.145l-.004 16.403c.002.26-.014.11.13.194l12.126 7.059c.135.078.112.09.112-.066V25.229c.003-.214.008-.23-.272-.393L18.8 17.766c-.24-.137-.03-.504.21-.366l12.152 7.073c.28.16.288.158.555-.039l1.939-1.426c.299-.185.208-.21-.031-.346l-12.124-6.927-2.645 1.767zm-5.37 13.367l.003-16.287a.106.106 0 01.048-.093l2.7-1.761L3.504 5.453c-.573-.328-.552-.301-1.127.04L.654 6.514c-.312.193-.276.193.024.366l12.917 7.335c.24.138.03.505-.21.367L.733 7.399C.377 7.194.42 7.138.42 7.538v14.2c0 1.445-.003 1.454 1.243 2.186l11.823 6.945zm22.006-8.443v16.101c-.009.282.148.218.351.06l1.652-1.151c.34-.237.38-.229.378-.647l-.068-16.203-2.046 1.405c-.27.172-.287.215-.267.435zm4.1 13.295l1.75-1.235c.168-.132.236-.129.236-.376V17.738l-1.957 1.43c-.206.139-.304.243-.297.506l-.022 15.959c-.002.23.069.244.29.088z"/></mask><path d="M26.858 12.6c-.24-.135-.037-.503.204-.369l11.817 6.584c.207.115.293.15.497.011l2.043-1.494c.195-.13.156-.2-.025-.3l-11.967-6.587-2.538 1.766v1.175l10.854 6.117c.23.13.479.277.48.58l.063 15.139.426.252c.21.124.17.135.17-.114V19.549c-.01-.254.008-.25-.206-.366L26.858 12.6zM6.04 29.778c2.134 0 5.587 1.166 5.388 3.821l-.027.776c.835.624 1.455 1.534 1.374 2.62l-.047 1.379c-.04 1.022-.636 1.948-1.61 2.61-2.067 1.4-5.407 1.318-7.48-.028-1.002-.65-1.651-1.553-1.646-2.559l.006-1.015C1.19 36.769.689 35.971.647 35.09c-.026-.545-.003-1.13-.003-1.68 0-2.553 3.32-3.632 5.395-3.632zm4.923 5.126a4.014 4.014 0 01-1.142 1.103c-2.095 1.382-5.467 1.382-7.562 0-.506-.334-.914-.735-1.193-1.182 0 .122-.002.236.011.359.08.785.605 1.497 1.412 2.03 1.93 1.273 5.086 1.302 7.017.015.814-.543 1.423-1.312 1.457-2.325zM6.04 30.2c-1.795 0-4.83.88-4.97 3.078-.003 1.071.545 1.797 1.42 2.374 1.954 1.29 5.146 1.29 7.1 0 .839-.553 1.372-1.3 1.42-2.12.082-2.382-3.085-3.332-4.97-3.332zm5.343 4.7c-.04 1.166-.702 2.05-1.645 2.68-1.965 1.31-5.016 1.338-7.076.226.284.556.799 1.046 1.47 1.423 1.953 1.095 4.929 1.057 6.806-.181.838-.553 1.371-1.3 1.42-2.12.028-.838-.362-1.495-.975-2.029zm.927 3.398a4.012 4.012 0 01-1.142 1.103c-2.009 1.326-5.15 1.369-7.24.196-.655-.368-1.179-.84-1.515-1.379v.18c.014.851.57 1.629 1.452 2.201 1.93 1.254 5.091 1.339 7.017.033.811-.55 1.394-1.324 1.428-2.334zM8.581 1.324L10.482.196c.538-.318.807-.215 1.32.067L41.606 16.67c.279.162.394.38.394.698V34.11c0 .432-.06.445-.4.71l-1.766 1.247c-.275.193-.484.276-.801.088l-.744-.442.004 1.083c.002.56-.02.61-.567.993l-1.654 1.152c-.295.206-.528.282-.866.08l-.768-.458.004.9c.002.512-.01.759-.475 1.062l-1.917 1.249c-.288.187-.418.176-.72 0l-12.547-7.303c-.138.203-.48-.034-.623-.119l-4.037-2.366c-.333-.195-.616-.253-.635-.678a.209.209 0 01-.134-.026L1.479 24.305C.115 23.505-.001 23.4 0 21.78V6.836c0-.327.055-.469.386-.653l1.779-1.055c.707-.419.834-.45 1.55-.04l.434.247V4.47c0-.333-.011-.524.353-.727l1.807-1.07c.634-.377.824-.419 1.483-.047l.43.242v-.9c0-.31.083-.48.359-.643zm.062 1.35v.43l12.962 7.304V9.33c0-.04.02-.074.053-.092l2.516-1.683L11.61.638c-.367-.202-.513-.315-.914-.078l-1.85 1.097c-.287.17-.26.233.016.388l12.743 7.063c.24.134.037.503-.204.368L8.92 2.561c-.294-.17-.282-.2-.278.113zM4.822 4.478l12.963 7.183c.24.137.033.504-.207.367L4.723 4.906c-.159-.09-.153-.01-.153.16v.51l13.005 7.43V11.91c0-.044.028-.083.067-.098l2.592-1.691L7.592 2.997c-.524-.296-.563-.263-1.066.036L4.79 4.06c-.334.205-.244.272.031.417zm30.25 33.817V22.431c0-.249-.032-.294-.288-.429l-11.947-7.054c-.24-.137-.033-.504.207-.367l11.99 7.078c.229.13.255.144.489-.017l2.11-1.448c.194-.143.134-.193-.068-.307l-12.084-6.81-2.644 1.762v1.173l11.08 6.33c.328.188.446.31.448.709l.07 15.02.525.313c.142.084.112.084.112-.089zm-1.125-14.977l-1.98 1.457c-.25.192-.325.212-.325.468v16.083c0 .135.054.175.228.062l1.888-1.23c.316-.206.266-.315.265-.65l-.076-16.19zm-19.368-8.05c-.05-.03-.88-.517-.851-.568-1.41-1.172.905.355.955.384l3.924 2.133c.12.069.015.252-.105.183l-3.923-2.132zM21.815 9.6c-.12-.068-.018-.252.103-.184l4.745 2.61c.12.069.017.253-.103.185L21.815 9.6zm-4.03 2.37c-.12-.069-.016-.252.104-.184l4.643 2.701c.12.069.017.252-.104.184l-4.643-2.701zm4.03-1.443l4.863 2.74v-1.03c0-.06-.01-.129.046-.168l2.497-1.737-4.839-2.663-2.567 1.716v1.142zm-4.03 1.443v1.156l4.842 2.766v-1.058c0-.054-.006-.104.047-.14l2.6-1.733-4.833-2.724-2.655 1.733zm.91 5.387l2.603-1.739-4.854-2.773-2.744 1.79c-.002 5.466.027 10.941-.005 16.406-.003.569.02.462.515.752l4.055 2.377c.389.23.384.263.378-.264l.004-16.412c0-.053-.002-.104.049-.137zm.162.145l-.004 16.403c.002.26-.014.11.13.194l12.126 7.059c.135.078.112.09.112-.066V25.229c.003-.214.008-.23-.272-.393L18.8 17.766c-.24-.137-.03-.504.21-.366l12.152 7.073c.28.16.288.158.555-.039l1.939-1.426c.299-.185.208-.21-.031-.346l-12.124-6.927-2.645 1.767zm-5.37 13.367l.003-16.287a.106.106 0 01.048-.093l2.7-1.761L3.504 5.453c-.573-.328-.552-.301-1.127.04L.654 6.514c-.312.193-.276.193.024.366l12.917 7.335c.24.138.03.505-.21.367L.733 7.399C.377 7.194.42 7.138.42 7.538v14.2c0 1.445-.003 1.454 1.243 2.186l11.823 6.945zm22.006-8.443v16.101c-.009.282.148.218.351.06l1.652-1.151c.34-.237.38-.229.378-.647l-.068-16.203-2.046 1.405c-.27.172-.287.215-.267.435zm4.1 13.295l1.75-1.235c.168-.132.236-.129.236-.376V17.738l-1.957 1.43c-.206.139-.304.243-.297.506l-.022 15.959c-.002.23.069.244.29.088z"/><path d="M26.858 12.6l-.195.35.195-.35zm.204-.369l-.195.35.195-.35zm11.817 6.584l.196-.35-.196.35zm.497.011l.225.331.01-.008-.235-.323zm2.043-1.494L41.197 17l-.007.004-.007.005.236.323zm-.025-.3l.195-.349h-.002l-.193.35zm-11.967-6.587l.192-.35-.217-.12-.204.142.229.328zm-2.538 1.766l-.229-.328-.171.12v.208h.4zm0 1.175h-.4v.234l.203.115.197-.349zm10.854 6.117l-.196.349.196-.349zm.48.58l-.4.001.4-.001zm.063 15.139l-.4.001.002.227.194.116.204-.344zm.426.252l-.204.344.204-.344zm.17-15.925h.4v-.017l-.4.017zm-.206-.366l-.195.35.005.002.19-.352zM11.425 33.6l-.398-.03v.016l.399.014zm-.026.776l-.4-.014-.007.209.168.125.24-.32zm1.374 2.62l-.399-.03v.016l.399.014zm-.047 1.379l.4.015v-.002l-.4-.013zm-1.61 2.61l.224.33-.224-.33zm-7.48-.028l-.218.335.218-.335zM1.99 38.398l-.4-.002.4.002zm.006-1.015l.4.002.001-.2-.16-.12-.241.318zM.647 35.09l-.4.018.4-.018zm10.315-.186l.4.014.049-1.407-.781 1.171.332.222zM9.82 36.007l-.22-.334.22.334zm-7.562 0l-.22.334.22-.334zm-1.193-1.182l.34-.212-.736-1.178-.004 1.389h.4zm.011.359l-.398.04.398-.04zm1.412 2.03l.22-.335-.22.334zm7.017.015l-.222-.333.222.333zm-8.436-3.95l-.399-.025v.024l.4.001zm1.42 2.374l-.221.334.22-.334zm7.1 0l-.22-.334.22.334zm1.42-2.12l.4.023v-.01l-.4-.013zm.373 1.367l.263-.301-.634-.552-.028.84.4.014zm-1.645 2.68l-.222-.332.222.333zm-7.076.227l.19-.352-1.133-.61.587 1.145.356-.183zm1.47 1.423l-.195.349.196-.35zm6.806-.181l.22.334-.22-.334zm1.42-2.12l.399.023v-.01l-.4-.014zm-.048 1.37l.4.014.049-1.407-.781 1.172.332.221zm-1.142 1.103l.22.334-.22-.334zm-7.24.196l-.195.35.196-.35zM2.413 38.22l.34-.211-.733-1.174-.007 1.383.4.002zm0 .18l-.4.006.4-.007zm1.451 2.2l-.218.336.218-.336zm7.017.033l.225.331-.225-.331zm-2.3-39.31l.204.345-.204-.344zM10.482.197l.204.344-.204-.344zm1.32.067l.193-.35-.193.35zM41.606 16.67l.202-.346-.009-.005-.193.35zM41.6 34.82l.231.327.008-.006.008-.006-.247-.315zm-1.766 1.247l.23.326-.23-.326zm-.801.088l-.205.344.205-.344zm-.744-.442l.204-.344-.607-.36.003.706.4-.002zm.004 1.083l.4-.001-.4.001zm-.567.993l.229.328-.229-.328zm-1.654 1.152l-.229-.328.229.328zm-.866.08l-.205.344.205-.343zm-.768-.458l.205-.344-.609-.363.004.709.4-.002zm.004.9l-.4.002.4-.002zm-.475 1.062l-.218-.335.218.335zm-1.917 1.249l.218.335-.218-.335zm-.72 0l-.201.346.201-.346zm-12.547-7.303l.202-.346-.322-.188-.21.308.33.226zm-.623-.119l-.203.345.203-.345zm-4.037-2.366l.202-.345-.202.345zm-.635-.678l.4-.017-.02-.437-.434.058.054.396zm-.134-.026l-.203.344.203-.345zM1.479 24.305l.202-.345-.202.345zM0 21.78h.4H0zM0 6.836h-.4.4zm.386-.653l.195.35.01-.006-.205-.344zm1.779-1.055l.204.344-.204-.344zm1.55-.04l.198-.348-.199.347zm.434.247l-.199.348.599.342v-.69h-.4zm.353-1.593l.195.35.01-.006-.205-.344zm1.807-1.07l-.204-.345.204.344zm1.483-.047l-.196.348.196-.348zm.43.242l-.196.349.596.336v-.685h-.4zm.421-.193h.4V2.67l-.4.005zm0 .43h-.4v.234l.204.115.196-.349zm12.962 7.304l-.197.349.597.336v-.684h-.4zm.053-1.17l.2.346.01-.007.012-.007-.222-.333zm2.516-1.684l.223.333.547-.366-.577-.317-.193.35zM11.61.638l.193-.35-.193.35zM10.696.56l.204.344-.204-.344zm-1.85 1.097l-.204-.344.204.344zm.016.388l-.196.349h.002l.194-.349zm12.743 7.063l.195-.35h-.002l-.193.35zm-.204.368l.195-.349h-.001l-.194.35zM8.92 2.561l-.2.346.005.004.194-.35zM4.821 4.478l.194-.35-.008-.004-.186.354zm12.963 7.183l.199-.348-.005-.002-.194.35zm-.207.367l.198-.348-.004-.002-.194.35zM4.723 4.906l-.198.348.004.002.194-.35zm-.153.67h-.4v.232l.201.115.199-.347zm13.005 7.43l-.198.347.598.342v-.689h-.4zm.067-1.194l.146.372.038-.015.034-.022-.218-.335zm2.592-1.691l.219.335.552-.36-.574-.324-.197.349zM7.592 2.997l-.196.348.196-.348zm-1.066.036l.204.344-.204-.344zM4.79 4.06l-.204-.344-.005.003.21.341zm29.994 17.941l-.204.345.009.005.009.005.186-.355zm-11.948-7.054l.203-.345-.005-.002-.198.347zm.207-.367l.204-.344-.006-.003-.198.347zm11.99 7.078l-.203.345.005.003.198-.348zm.489-.017l-.227-.33.227.33zm2.11-1.448l.226.33.011-.008-.237-.322zm-.068-.307l.197-.348-.197.348zm-12.084-6.81l.196-.348-.214-.12-.204.135.222.333zm-2.644 1.762l-.222-.332-.178.118v.214h.4zm0 1.173h-.4v.233l.202.115.198-.348zm11.08 6.33l.197-.347-.198.347zm.448.709l.4-.002-.4.002zm.07 15.02l-.4.001.001.226.194.115.205-.343zm.525.313l-.205.343.205-.343zm-1.013-15.066l.4-.002-.004-.786-.633.466.237.322zm-1.98 1.457l-.238-.322-.007.005.244.317zm-.097 16.613l.217.336h.001l-.218-.336zm1.888-1.23l.219.335-.218-.335zm.265-.65l.4-.002-.4.002zm-19.444-24.24l-.2.346.009.005.19-.351zm-.851-.568l.347.198.166-.291-.258-.215-.255.308zm.955.384l-.2.347.01.005.19-.352zm3.924 2.133l.2-.347-.01-.005-.19.352zm-.105.183l.2-.347-.009-.004-.19.351zm3.313-7.8l-.196.349.003.001.193-.35zm.103-.184l-.197.348.004.002.193-.35zm4.745 2.61l.196-.348-.003-.002-.193.35zm-.103.185l.196-.348-.003-.002-.193.35zm-8.67-.425l.2-.346-.003-.001-.198.347zm4.642 2.701l-.201.346.003.002.198-.348zm-.104.184l-.2.345.002.002.198-.347zm-.613-4.144h-.4v.234l.204.115.196-.349zm4.863 2.74l-.196.35.596.335v-.684h-.4zm.046-1.198l.228.329-.228-.329zm2.497-1.737l.228.328.53-.368-.565-.31-.193.35zm-4.839-2.663l.193-.35-.213-.118-.202.135.222.333zm-2.567 1.716l-.222-.332-.178.119v.213h.4zm-4.03 3.741h-.4v.232l.202.116.198-.348zm4.842 2.766l-.199.348.599.341v-.689h-.4zm.047-1.197l.221.333-.221-.333zm2.6-1.734l.223.333.542-.362-.568-.32-.196.35zm-4.833-2.724l.196-.348-.211-.12-.203.133.218.335zm-1.745 7.12l.221.333-.221-.333zm2.602-1.739l.222.333.538-.36-.562-.32-.198.347zm-4.854-2.773l.198-.347-.212-.121-.205.133.219.335zm-2.744 1.79l-.219-.335-.181.118v.217h.4zm-.005 16.406l.4.003-.4-.003zm.515.752l.202-.345-.202.345zm4.055 2.377l.203-.345-.203.345zm.378-.264h-.4v.004l.4-.004zm.004-16.412h.4-.4zm.21.008l-.222-.332-.178.119v.213h.4zm-.004 16.403h-.4v.002l.4-.002zm.13.194l-.2.346.2-.346zm12.126 7.059l-.2.345.2-.345zm.112-15.929l-.4-.004v.004h.4zm-.272-.393l-.201.346.2-.346zM18.8 17.766l.202-.345H19l-.2.346zm.21-.366l.2-.346h-.001l-.2.346zm12.152 7.073l-.201.345.001.001.2-.346zm.555-.039l-.237-.322.237.322zm1.939-1.426l-.211-.34-.014.009-.013.009.238.322zm-.031-.346l-.199.347.199-.348zm-12.124-6.927l.199-.347-.215-.123-.206.137.222.333zM13.486 30.87l-.202.345.602.354v-.699h-.4zm.004-16.287h.4v-.015l-.4.015zm.048-.093l-.219-.335.219.335zm2.7-1.761l.219.335.548-.358-.568-.325-.199.348zM3.504 5.453l.199-.348-.199.348zm-1.127.04l.204.344-.204-.344zM.654 6.514L.45 6.17l-.006.004.21.34zm.024.366l-.2.347.003.001.197-.348zm12.917 7.335l.199-.347h-.002l-.197.347zm-.21.367l.2-.347h-.002l-.197.347zM.733 7.399l-.2.346.003.002.197-.348zm-.312.139h-.4.4zm0 14.2h-.4.4zm1.243 2.186l.202-.345-.202.345zm33.83-1.498h.4v-.018l-.002-.017-.398.035zm0 16.101l.4.013v-.013h-.4zm.351.06l-.229-.328-.008.006-.008.006.245.316zm1.652-1.151l-.229-.328.229.328zm.378-.647l-.4.002.4-.002zm-.068-16.203l.4-.001-.003-.756-.624.427.227.33zm-2.046 1.405l.215.337.011-.007-.226-.33zm3.833 13.73l-.23-.327.23.327zm1.75-1.235l.23.327.008-.006.008-.006-.247-.315zm.236-16.748h.4v-.788l-.636.465.236.323zm-1.957 1.43l.223.333.007-.005.006-.005-.236-.323zm-.297.506h.4v-.01l-.4.01zm-.022 15.959l.4.004v-.003l-.4-.001zm-12.25-23.382a.2.2 0 01.093.132.18.18 0 01-.017.125.204.204 0 01-.262.072l.39-.698a.597.597 0 00-.828.239c-.066.12-.1.272-.066.43a.6.6 0 00.3.398l.39-.698zm-.185.33l11.817 6.583.39-.699-11.818-6.583-.39.699zm11.816 6.583c.088.048.238.136.413.15a.773.773 0 00.503-.157l-.45-.662c-.035.025-.048.029-.045.028l.021-.005a.15.15 0 01.034-.001c.022.002.03.007.013 0a2.311 2.311 0 01-.099-.052l-.39.699zm.928-.015l2.043-1.494-.472-.646-2.044 1.494.473.646zm2.03-1.485a.845.845 0 00.194-.171.49.49 0 00.105-.39.518.518 0 00-.177-.301 1.028 1.028 0 00-.175-.119l-.39.699c.039.021.046.028.04.023-.002-.002-.067-.056-.086-.166a.312.312 0 01.056-.243c.017-.022.024-.02-.013.004l.446.664zm-.055-.982L29.62 10.095l-.385.7L41.2 17.384l.386-.7zm-12.389-6.565l-2.538 1.766.457.656 2.538-1.766-.457-.656zm-2.71 2.094v1.175h.8v-1.175h-.8zm.204 1.524l10.855 6.117.393-.697-10.855-6.117-.393.697zm10.855 6.117c.121.068.193.113.24.16.032.032.036.048.036.072l.8-.003c-.002-.568-.494-.82-.683-.926l-.393.697zm.276.232l.063 15.14.8-.004-.063-15.14-.8.004zm.26 15.482l.425.252.408-.688-.425-.252-.409.688zm.425.252l.122.074c.015.008.06.034.116.05.05.015.22.054.379-.072.132-.105.15-.25.154-.274.006-.044.006-.084.006-.101-.001-.061-.003-.067-.003-.135h-.8c0 .057.003.142.003.146 0 .015-.001 0 .002-.025a.384.384 0 01.482-.306c.04.01.065.027.055.02a4.757 4.757 0 00-.108-.066l-.408.69zm.774-.458V19.549h-.8V35.36h.8zm0-15.828c-.002-.047-.004-.116-.008-.164a.62.62 0 00-.063-.237.567.567 0 00-.186-.206c-.05-.035-.112-.068-.16-.094l-.379.704a3.175 3.175 0 01.077.043l.005.004-.006-.005a.238.238 0 01-.062-.079.246.246 0 01-.024-.069v.005a.631.631 0 01.003.046l.001.038.002.047.8-.033zm-.412-.698L27.053 12.25l-.39.698 11.818 6.584.39-.7zM6.04 30.178c1.008 0 2.335.278 3.371.863 1.034.583 1.7 1.417 1.617 2.528l.798.06c.115-1.544-.846-2.621-2.022-3.285-1.173-.662-2.64-.966-3.765-.966v.8zm4.987 3.407l-.026.776.8.027.026-.775-.8-.028zm.134 1.11c.77.576 1.281 1.37 1.214 2.27l.798.06c.095-1.27-.635-2.3-1.533-2.97l-.48.64zm1.213 2.286l-.047 1.38.8.027.047-1.38-.8-.027zm-.047 1.378c-.033.865-.539 1.686-1.435 2.293l.449.662c1.054-.714 1.74-1.747 1.785-2.925l-.799-.03zm-1.435 2.293c-.95.645-2.217.96-3.509.948-1.29-.014-2.566-.355-3.528-.98l-.436.671c1.111.722 2.542 1.094 3.956 1.109 1.414.014 2.85-.33 3.966-1.086l-.449-.662zm-7.037-.032c-.938-.609-1.468-1.402-1.464-2.22l-.8-.005c-.006 1.192.762 2.204 1.828 2.896l.436-.67zM2.391 38.4l.006-1.016-.8-.004-.006 1.015.8.004zm-.152-1.337c-.74-.561-1.158-1.26-1.192-1.992l-.8.037c.049 1.03.635 1.93 1.508 2.593l.484-.638zm-1.192-1.992c-.025-.533-.003-1.088-.003-1.66h-.8c0 .527-.023 1.141.003 1.697l.8-.037zm-.003-1.66c0-1.072.688-1.87 1.71-2.423 1.022-.552 2.303-.81 3.285-.81v-.8c-1.094 0-2.51.282-3.666.907C1.216 30.91.244 31.928.244 33.41h.8zm9.586 1.271a3.627 3.627 0 01-1.03.991l.44.668a4.415 4.415 0 001.255-1.215l-.665-.444zm-1.03.991c-.97.64-2.255.97-3.56.97-1.306 0-2.593-.33-3.562-.97l-.44.668c1.126.743 2.573 1.103 4.001 1.103 1.428 0 2.876-.36 4.001-1.103l-.44-.668zm-7.122 0c-.466-.308-.83-.67-1.074-1.06l-.679.424c.315.504.767.944 1.313 1.304l.44-.668zm-1.813-.85c0 .118-.002.255.013.402l.796-.082c-.01-.098-.01-.19-.01-.317l-.8-.002zm.013.402c.097.942.72 1.748 1.59 2.322l.44-.668c-.743-.49-1.17-1.108-1.234-1.736l-.796.082zm1.59 2.322c1.043.688 2.394 1.029 3.726 1.034 1.332.006 2.687-.322 3.733-1.02l-.444-.665c-.885.59-2.074.89-3.285.885-1.211-.005-2.402-.316-3.29-.902l-.44.668zm7.459.015c.877-.586 1.595-1.459 1.635-2.644l-.8-.028c-.028.84-.53 1.506-1.28 2.006l.445.666zM6.039 29.8c-.95 0-2.22.23-3.283.756C1.697 31.08.753 31.947.67 33.253l.799.05c.056-.892.699-1.564 1.642-2.03.937-.463 2.083-.673 2.928-.673v-.8zM.67 33.278c-.003 1.248.652 2.084 1.599 2.71l.44-.669c-.8-.529-1.241-1.143-1.239-2.038l-.8-.003zm1.599 2.71c1.057.696 2.424 1.033 3.771 1.033s2.715-.337 3.771-1.034l-.44-.668c-.899.593-2.104.902-3.33.902-1.227 0-2.433-.309-3.331-.902l-.441.668zm7.542 0c.903-.597 1.54-1.444 1.599-2.432l-.799-.047c-.038.654-.468 1.3-1.24 1.81l.44.668zm1.6-2.441c.047-1.41-.877-2.356-1.962-2.927-1.084-.57-2.413-.819-3.409-.819v.8c.89 0 2.086.227 3.037.727.95.5 1.567 1.218 1.534 2.191l.8.028zm-.427 1.34c-.035 1.001-.597 1.78-1.468 2.361l.444.666c1.015-.678 1.777-1.667 1.823-3l-.8-.027zm-1.468 2.361c-1.83 1.22-4.722 1.255-6.664.207l-.38.704c2.179 1.175 5.39 1.154 7.488-.245l-.444-.666zm-7.21.742c.33.643.91 1.184 1.63 1.588l.392-.697c-.622-.35-1.07-.788-1.31-1.256l-.712.365zm1.63 1.588c1.05.59 2.355.865 3.636.836 1.281-.028 2.572-.362 3.586-1.031l-.44-.668c-.863.57-1.999.874-3.164.9-1.164.026-2.323-.227-3.226-.734l-.391.697zm7.222-.195c.903-.596 1.54-1.443 1.599-2.431l-.799-.047c-.038.654-.468 1.3-1.24 1.81l.44.668zm1.6-2.44c.033-.992-.437-1.756-1.112-2.344l-.525.603c.55.48.86 1.029.837 1.713l.8.027zm-.78 1.135c-.243.364-.591.7-1.03.99l.44.668a4.413 4.413 0 001.255-1.215l-.665-.443zm-1.03.99c-.93.614-2.14.94-3.379.97-1.238.028-2.472-.243-3.445-.789l-.391.698c1.117.627 2.498.921 3.855.89 1.356-.031 2.72-.388 3.8-1.1l-.44-.668zm-6.824.181c-.61-.342-1.078-.77-1.372-1.241l-.678.423c.379.608.957 1.122 1.659 1.516l.391-.698zm-2.11-1.032c-.001.06-.002.123 0 .188l.8-.013c-.002-.055-.001-.11-.001-.17l-.8-.005zm0 .188c.016 1.033.688 1.917 1.633 2.531l.436-.671c-.818-.531-1.259-1.203-1.27-1.873l-.8.013zm1.633 2.531c1.04.676 2.391 1.025 3.724 1.04 1.332.016 2.69-.303 3.736-1.012l-.449-.662c-.88.596-2.066.889-3.278.875-1.212-.014-2.407-.334-3.297-.912l-.436.671zm7.46.028c.88-.596 1.563-1.475 1.603-2.65l-.8-.028c-.028.843-.51 1.513-1.252 2.016l.449.662zM8.785 1.668L10.686.54l-.408-.688L8.377.98l.408.688zM10.686.54c.227-.134.34-.147.423-.138.107.012.236.066.5.212l.386-.701c-.249-.137-.511-.275-.801-.306-.316-.034-.605.061-.916.245l.408.688zm.923.074l29.804 16.405.386-.7L11.995-.088l-.386.7zm29.796 16.4c.091.053.131.1.153.14a.43.43 0 01.042.213h.8a1.22 1.22 0 00-.143-.602 1.171 1.171 0 00-.45-.442l-.402.691zm.195.354V34.11h.8V17.368h-.8zm0 16.742c0 .22-.022.221-.01.203.003-.004-.002.005-.043.04-.045.038-.098.078-.193.152l.493.63c.075-.058.156-.12.218-.172a.981.981 0 00.2-.221c.126-.199.135-.42.135-.632h-.8zm-.23.383l-1.767 1.247.461.653 1.767-1.246-.461-.654zm-1.767 1.247c-.13.091-.188.114-.22.12-.012.001-.048.01-.146-.05l-.409.689c.22.13.447.19.688.15.22-.038.403-.153.548-.256l-.46-.653zm-.366.07l-.744-.44-.409.687.744.442.409-.688zm-1.348-.095l.004 1.083.8-.003-.004-1.083-.8.003zm.004 1.083c.001.308-.014.344-.026.364a.355.355 0 01-.08.084 4.074 4.074 0 01-.29.214l.458.657c.25-.174.482-.335.61-.561.135-.24.13-.51.128-.761l-.8.003zm-.396.662l-1.654 1.153.457.657 1.655-1.153-.458-.657zm-1.654 1.153c-.133.093-.202.12-.245.125-.025.004-.076.007-.187-.06l-.41.687c.227.136.461.2.71.165.233-.033.428-.148.59-.26l-.458-.657zm-.432.065l-.768-.459-.41.687.768.46.41-.688zm-1.373-.113l.004.9.8-.004-.004-.9-.8.004zm.004.9c.001.272-.007.385-.037.468-.02.055-.066.132-.257.257l.437.67c.274-.179.468-.376.57-.648.09-.245.088-.512.087-.75l-.8.003zm-.294.724l-1.917 1.25.437.67 1.917-1.25-.437-.67zm-1.917 1.25c-.127.082-.147.07-.13.071.006 0-.023.004-.17-.082l-.402.692c.155.09.342.187.561.19.23.003.417-.096.578-.201l-.437-.67zm-.3-.01l-12.546-7.304-.403.691L31.13 42.12l.402-.692zm-13.078-7.184a.222.222 0 01.157-.094c.032-.003.037.006.002-.007a.838.838 0 01-.116-.057 2.763 2.763 0 01-.067-.04l-.067-.04-.405.69c.043.026.214.137.378.198.086.031.21.066.35.053a.576.576 0 00.429-.252l-.661-.45zm-.091-.238l-4.037-2.366-.404.69 4.036 2.366.405-.69zm-4.037-2.366c-.092-.054-.189-.103-.25-.136a.917.917 0 01-.137-.084.107.107 0 01-.033-.035.239.239 0 01-.018-.095l-.799.035c.007.151.038.292.103.42a.9.9 0 00.247.3c.088.07.182.123.26.164.085.046.148.078.223.121l.404-.69zm-.89-.729a.191.191 0 01.121.024l-.405.69a.61.61 0 00.39.079l-.107-.793zm.121.025L1.681 23.96l-.405.69 11.875 6.976.405-.69zM1.681 23.96a9.992 9.992 0 01-.773-.482c-.179-.131-.276-.233-.338-.335-.13-.216-.17-.526-.17-1.364h-.8c0 .783.018 1.336.286 1.778.137.227.325.402.55.567.222.162.503.329.84.526l.405-.69zM.4 21.78V6.836h-.8v14.943h.8zm0-14.943c0-.153.016-.181.02-.186 0-.002.018-.038.161-.118l-.39-.699c-.187.105-.362.232-.471.429-.108.194-.12.4-.12.574h.8zm.19-.31l1.78-1.054-.409-.688L.182 5.839l.408.688zm1.78-1.054c.377-.224.494-.271.583-.275.078-.003.192.026.563.238l.397-.695c-.345-.197-.652-.357-.994-.342-.33.014-.63.191-.958.386l.408.688zm1.146-.037l.434.248.397-.695-.434-.248-.397.695zm1.033-.1V4.47h-.8v.866h.8zm0-.866c0-.09 0-.147.003-.198a.276.276 0 01.011-.074.062.062 0 01.017-.023.514.514 0 01.117-.082l-.39-.699c-.232.13-.406.29-.493.524-.074.198-.065.415-.065.552h.8zm.157-.383l1.807-1.07-.408-.689-1.807 1.071.408.688zm1.807-1.07c.329-.196.453-.244.549-.249.084-.004.208.023.534.206l.392-.697c-.333-.188-.634-.326-.968-.308-.323.017-.61.178-.915.36l.408.687zm1.083-.043l.43.243.393-.697-.43-.243-.393.697zm1.026-.106v-.9h-.8v.9h.8zm0-.9c0-.122.017-.167.028-.185.008-.017.033-.054.135-.114L8.377.98a1.11 1.11 0 00-.43.42c-.1.185-.125.38-.125.567h.8zm-.379.707v.43h.8v-.43h-.8zm.204.779l12.961 7.304.393-.697L8.84 2.756l-.393.697zm13.558 6.955V9.33h-.8v1.08h.8zm0-1.079c0 .109-.06.204-.148.255l-.399-.694a.506.506 0 00-.253.439h.8zm-.125.24l2.517-1.682-.445-.665-2.517 1.683.445.665zm2.487-2.365L11.803.288l-.386.7 12.564 6.916.386-.7zM11.803.288c-.146-.08-.351-.208-.566-.247-.265-.048-.502.031-.745.175l.408.688c.158-.094.194-.076.194-.076.014.002.04.01.098.038.06.03.123.066.225.123l.386-.7zm-1.31-.072L8.641 1.313l.408.688L10.9.904l-.408-.688zM8.641 1.313a1.27 1.27 0 00-.231.166.508.508 0 00-.167.416c.02.195.15.312.205.357.066.054.147.102.217.142l.392-.698a.885.885 0 01-.102-.062c-.002-.002.013.009.03.034a.324.324 0 01.02.329c-.018.038-.038.057-.04.06a.396.396 0 01.084-.056l-.408-.688zm.026 1.082L21.41 9.457l.387-.7L9.056 1.696l-.388.7zM21.41 9.457a.202.202 0 01-.092-.132.18.18 0 01.017-.126.204.204 0 01.262-.072l-.39.698a.598.598 0 00.828-.238.6.6 0 00-.234-.828l-.39.698zm.186-.33L9.114 2.21l-.388.7 12.48 6.915.389-.7zM9.12 2.213c-.055-.031-.133-.079-.177-.102a.722.722 0 00-.114-.051.43.43 0 00-.55.247.547.547 0 00-.035.164c-.004.06-.002.145 0 .208l.8-.011-.002-.099a1.18 1.18 0 01-.002-.024.37.37 0 01-.25.272c-.114.036-.203.005-.215.001-.02-.007-.029-.013-.014-.004.013.006.03.017.059.034l.1.058.4-.693zM4.628 4.828l12.964 7.183.387-.7L5.016 4.128l-.388.7zm12.96 7.18a.202.202 0 01-.092-.132.18.18 0 01.018-.126.204.204 0 01.263-.07l-.397.695a.598.598 0 00.83-.231.6.6 0 00-.227-.83l-.396.694zm.184-.33L4.916 4.556l-.387.7 12.855 7.122.388-.7zM4.92 4.558a.649.649 0 00-.242-.086.44.44 0 00-.432.206c-.065.107-.072.22-.074.252-.003.047-.002.102-.002.137h.8v-.084l-.003.02a.312.312 0 01-.04.096.36.36 0 01-.341.168c-.063-.008-.093-.03-.061-.013l.395-.695zm-.75.509v.509h.8v-.51h-.8zm.201.856l13.006 7.43.396-.694-13.005-7.43-.397.694zm13.604 7.083V11.91h-.8v1.096h.8zm0-1.096a.294.294 0 01-.187.274l-.292-.744a.506.506 0 00-.321.47h.8zm-.115.237l2.593-1.691-.437-.67-2.593 1.69.438.67zm2.57-2.375L7.79 2.648l-.393.697 12.642 7.124.393-.697zM7.79 2.648c-.238-.134-.485-.273-.763-.255a.975.975 0 00-.371.108c-.1.049-.215.117-.333.188l.408.688c.133-.079.212-.126.277-.158.06-.03.074-.028.07-.028-.009 0 0-.004.051.016.057.023.137.064.268.138l.393-.697zm-1.467.04l-1.735 1.03.408.687L6.73 3.377l-.408-.688zM4.582 3.72c-.09.056-.187.122-.26.202a.505.505 0 00-.132.467.56.56 0 00.232.317c.067.048.148.091.214.126l.372-.708a1.265 1.265 0 01-.122-.069c-.006-.005.003 0 .018.018a.323.323 0 01.052.313.24.24 0 01-.045.077c-.005.005.013-.014.09-.06l-.42-.683zm30.89 34.575V22.431h-.8v15.864h.8zm0-15.864c0-.117 0-.309-.116-.48-.106-.157-.274-.244-.386-.303l-.371.709a2.054 2.054 0 01.11.063c.015.01 0 .002-.017-.023a.18.18 0 01-.019-.037c-.004-.01-.005-.017-.004-.016l.002.024v.063h.8zm-.484-.773L23.04 14.604l-.406.688 11.947 7.055.407-.69zM23.035 14.6c.037.02.078.067.091.132a.18.18 0 01-.017.125.204.204 0 01-.263.07l.396-.694a.598.598 0 00-.83.231.6.6 0 00.227.83l.396-.694zm-.194.324l11.99 7.079.406-.689-11.99-7.078-.406.688zm11.995 7.082c.052.03.115.066.176.093.065.029.157.06.268.06.209-.002.376-.124.47-.188l-.453-.66a1.877 1.877 0 01-.094.06l.015-.005a.217.217 0 01.055-.007c.047 0 .074.014.063.009a3.96 3.96 0 01-.105-.057l-.395.695zm.913-.035l2.11-1.448-.453-.66-2.11 1.448.453.66zm2.121-1.456a.828.828 0 00.19-.186.475.475 0 00.064-.435.55.55 0 00-.198-.253 1.616 1.616 0 00-.164-.103l-.393.697a.97.97 0 01.081.049c.003.002-.007-.005-.02-.02a.337.337 0 01-.072-.281.3.3 0 01.046-.111c.02-.029.031-.03-.01 0l.476.643zm-.108-.977l-12.085-6.81-.393.697 12.085 6.81.393-.697zm-12.503-6.795l-2.644 1.763.444.665 2.643-1.762-.443-.666zm-2.822 2.095v1.173h.8V14.84h-.8zm.202 1.52l11.079 6.33.396-.694-11.078-6.33-.397.695zm11.079 6.33c.163.094.2.133.215.154.005.008.031.044.032.21l.8-.004c-.001-.234-.035-.458-.171-.657-.128-.187-.314-.302-.48-.397l-.396.694zm.247.364l.07 15.019.8-.004-.07-15.02-.8.005zm.265 15.36l.525.314.41-.687-.525-.313-.41.687zm.525.314l.093.055c.013.007.062.034.127.048a.41.41 0 00.389-.123c.097-.106.106-.228.108-.245a.46.46 0 00.002-.08l-.002-.087h-.8c0 .05.002.102.003.11 0 .011-.001-.003.001-.024a.384.384 0 01.305-.333.383.383 0 01.246.03c.002 0 0 0-.013-.009l-.049-.029-.41.687zm-1.045-15.73l-1.98 1.457.473.644 1.98-1.457-.473-.644zm-1.988 1.462c-.041.032-.123.092-.158.12a1.01 1.01 0 00-.163.154c-.134.164-.159.342-.159.51h.8c0-.047.004-.057.002-.05a.133.133 0 01-.023.046c-.004.005 0-.001.036-.03l.064-.049.09-.067-.489-.634zm-.48.785v16.083h.8V25.243h-.8zm0 16.083a.65.65 0 00.036.22.465.465 0 00.611.278.898.898 0 00.198-.1l-.434-.672c-.03.02-.035.02-.02.014a.337.337 0 01.396.204c.016.044.013.07.013.056h-.8zm.846.398l1.889-1.231-.437-.67-1.889 1.23.437.67zm1.889-1.231c.188-.122.351-.27.417-.503a.979.979 0 00.032-.268l-.001-.108-.002-.108-.8.004.002.123.002.088c0 .05-.004.058-.003.052.005-.015.012-.025.01-.023a.506.506 0 01-.094.073l.437.67zm.446-.987l-.076-16.19-.8.004.076 16.19.8-.004zM14.778 14.92a17.348 17.348 0 01-.442-.268 5.699 5.699 0 01-.3-.2l-.013-.01s.004.002.009.008a.368.368 0 01.079.14.393.393 0 01-.036.307l-.695-.396a.407.407 0 00.025.443c.03.043.063.073.08.088a1.4 1.4 0 00.124.098c.084.06.195.133.302.2.215.135.44.267.468.283l.4-.693zm-.795-.529a5.94 5.94 0 01-.34-.298c-.032-.032-.037-.04-.031-.031a.388.388 0 01-.043.47c-.13.14-.294.125-.307.124-.04-.002-.066-.011-.068-.011l.03.013c.052.026.132.07.232.128.198.115.442.269.643.397.186.119.362.234.385.247l.399-.694-.096-.062-.257-.165c-.203-.13-.459-.29-.67-.414a4.527 4.527 0 00-.288-.157 1.043 1.043 0 00-.137-.056.508.508 0 00-.119-.024c-.026-.001-.2-.015-.334.131a.412.412 0 00-.085.416.491.491 0 00.068.127c.034.047.077.092.117.131.083.082.212.196.39.344l.511-.616zm.51 1.043l3.923 2.133.382-.703-3.924-2.132-.382.702zm3.914 2.128a.3.3 0 01-.11-.4.301.301 0 01.405-.109l-.399.693a.5.5 0 00.69-.19.5.5 0 00-.186-.688l-.4.694zm.286-.514l-3.923-2.133-.382.703 3.923 2.132.382-.702zm3.318-7.797a.3.3 0 01.114.4.301.301 0 01-.404.113l.393-.698a.5.5 0 00-.687.195.5.5 0 00.192.686l.392-.697zm-.286.514l4.745 2.611.386-.7-4.745-2.612-.386.701zm4.741 2.61a.3.3 0 01-.114-.4.301.301 0 01.404-.112l-.392.696a.5.5 0 00.687-.195.5.5 0 00-.192-.686l-.393.696zm.287-.515l-4.745-2.61-.386.7 4.745 2.612.386-.701zm-8.77-.239a.3.3 0 01.113.401.301.301 0 01-.405.11l.396-.694a.5.5 0 00-.688.19.5.5 0 00.188.687l.397-.694zm-.295.51l4.643 2.7.402-.69-4.643-2.702-.402.692zm4.646 2.703a.3.3 0 01-.112-.402.302.302 0 01.405-.11l-.397.695a.499.499 0 00.689-.191.5.5 0 00-.188-.687l-.397.694zm.296-.51l-4.643-2.701-.403.691 4.643 2.701.402-.691zm-1.011-3.45l4.863 2.741.393-.697-4.864-2.74-.392.697zm5.46 2.393v-1.03h-.8v1.03h.8zm0-1.03l-.001-.033v-.017l-.002.016a.303.303 0 01-.124.194l-.456-.657a.505.505 0 00-.212.346.711.711 0 00-.006.137v.013h.8zm-.127.16l2.497-1.738-.457-.656-2.497 1.737.457.657zm2.462-2.417l-4.839-2.663-.386.701 4.839 2.663.386-.7zM24.16 7.336l-2.567 1.717.444.665L24.605 8l-.445-.665zm-2.745 2.05v1.141h.8V9.385h-.8zm-4.03 2.584v1.156h.8V11.97h-.8zm.202 1.504l4.841 2.765.397-.694-4.841-2.766-.397.695zm5.44 2.418v-1.058h-.8v1.058h.8zm0-1.058v-.03l-.001.01a.302.302 0 01-.13.214l-.444-.666a.496.496 0 00-.225.423.72.72 0 000 .032v.017h.8zm-.131.194l2.6-1.734-.443-.666-2.601 1.734.444.666zm2.575-2.415l-4.834-2.724-.392.697 4.833 2.724.393-.697zm-5.248-2.71l-2.656 1.732.437.67 2.656-1.733-.438-.67zm-1.305 7.786l2.602-1.738-.444-.665-2.603 1.738.445.665zm2.578-2.418l-4.854-2.773-.397.694 4.854 2.774.397-.695zm-5.27-2.761L13.48 14.3l.437.67 2.744-1.79-.437-.67zM13.3 14.635c-.002 5.47.027 10.94-.005 16.404l.8.005c.032-5.467.003-10.946.005-16.409h-.8zm-.005 16.404c0 .136 0 .263.013.37.015.117.05.249.15.369a.908.908 0 00.269.205c.088.049.161.085.28.155l.405-.69c-.128-.075-.243-.134-.298-.165-.073-.04-.06-.041-.041-.018.033.04.032.074.028.042a2.407 2.407 0 01-.006-.263l-.8-.005zm.713 1.099l4.055 2.377.404-.69-4.055-2.377-.404.69zm4.053 2.376c.083.049.178.108.248.143a.682.682 0 00.166.06.458.458 0 00.338-.055.467.467 0 00.197-.26.75.75 0 00.03-.172c.007-.088.005-.206.004-.329l-.8.009v.167c0 .046 0 .076-.002.096-.001.023-.003.012.005-.013a.335.335 0 01.145-.179.342.342 0 01.247-.046c.033.006.047.016.03.007a1.332 1.332 0 01-.13-.075 14.797 14.797 0 00-.07-.042l-.408.689zm.983-.608l.003-16.412h-.8l-.003 16.411h.8zm.003-16.412v-.021c0 .001 0 .017-.006.04a.3.3 0 01-.124.177l-.443-.666a.498.498 0 00-.21.3c-.02.08-.017.164-.017.17h.8zm-.59.008l-.004 16.403h.8l.004-16.402h-.8zm-.004 16.405l.001.144c0 .013.003.068.022.128a.419.419 0 00.245.262.42.42 0 00.123.028h.022a.213.213 0 01-.083-.024l.403-.691a.593.593 0 00-.313-.084h.026a.379.379 0 01.27.14.385.385 0 01.084.19l.001.012v-.11l-.8.005zm.33.538l12.125 7.058.402-.691-12.125-7.058-.403.69zm12.125 7.058a2.352 2.352 0 01.075.046c.01.005.046.026.091.042a.414.414 0 00.346-.034.414.414 0 00.194-.28c.009-.046.009-.086.009-.098l-.001-.046v-.041h-.8a2.342 2.342 0 000 .087c0 .008 0-.017.006-.052.004-.02.031-.168.184-.258.155-.092.3-.042.321-.035a.37.37 0 01.041.017l.008.004a.022.022 0 00.002.001h-.002c0-.002-.002-.002-.004-.004l-.016-.01-.051-.03-.403.691zm.713-.411V25.229h-.8v15.863h.8zm0-15.858c0-.042.003-.112-.004-.175a.586.586 0 00-.09-.264.695.695 0 00-.185-.185 2.502 2.502 0 00-.193-.12l-.4.693a3.337 3.337 0 01.129.079c.02.015 0 .004-.022-.03a.24.24 0 01-.035-.09v.083l.8.008zm-.471-.743l-12.147-7.07-.403.692 12.148 7.07.402-.692zM19 17.42a.201.201 0 01.074.257.18.18 0 01-.1.08.204.204 0 01-.163-.011l.399-.694a.598.598 0 00-.832.23.6.6 0 00.224.832l.399-.695zm-.19.325l12.152 7.072.402-.691-12.152-7.073-.403.692zm12.153 7.073c.065.037.138.08.207.11a.635.635 0 00.304.058.65.65 0 00.288-.097c.064-.038.132-.088.193-.134l-.474-.644a5.686 5.686 0 01-.128.09c-.018.01.01-.01.063-.013.055-.004.088.013.074.007a4.15 4.15 0 01-.127-.07l-.4.693zm.992-.063l1.939-1.426-.474-.644-1.939 1.426.474.645zm1.912-1.408c.077-.047.164-.105.23-.173a.474.474 0 00.126-.483.484.484 0 00-.125-.197.701.701 0 00-.106-.083c-.05-.033-.123-.072-.168-.098l-.397.695c.075.043.104.058.128.073.01.007.001.002-.014-.012a.348.348 0 01-.072-.364.273.273 0 01.057-.09c.007-.008-.007.007-.08.052l.421.68zm-.043-1.034l-12.123-6.926-.397.694 12.123 6.927.397-.695zM21.28 15.402l-2.645 1.768.444.665 2.645-1.767-.444-.666zM13.886 30.87l.004-16.287h-.8l-.004 16.287h.8zm.004-16.302a.295.295 0 01-.133.257l-.438-.67a.506.506 0 00-.229.443l.8-.03zm-.134.257l2.7-1.761-.436-.67-2.7 1.761.436.67zm2.68-2.444L3.704 5.105l-.397.695 12.734 7.275.397-.695zM3.704 5.105a4.202 4.202 0 00-.376-.199.877.877 0 00-.41-.083.96.96 0 00-.385.118c-.102.053-.226.129-.359.208l.408.688c.155-.092.244-.147.318-.185.07-.036.08-.031.067-.03-.019 0-.016-.007.041.017.064.028.15.076.299.16l.397-.694zm-1.53.044L.45 6.17l.408.688 1.723-1.021-.408-.688zM.444 6.174a1.983 1.983 0 00-.216.147.58.58 0 00-.12.135.45.45 0 00.059.56.754.754 0 00.114.093c.056.037.135.081.198.118l.4-.693a3.305 3.305 0 01-.152-.089c-.011-.008 0-.001.02.018a.35.35 0 01.005.462.177.177 0 01-.011.01c-.001 0 0 0 0 0a.097.097 0 01.008-.006 3.424 3.424 0 01.115-.074l-.42-.681zm.037 1.054l12.916 7.335.395-.696L.876 6.532l-.395.696zm12.914 7.334a.202.202 0 01-.09-.133.179.179 0 01.017-.125.18.18 0 01.1-.08.204.204 0 01.163.011l-.399.694a.597.597 0 00.832-.23.6.6 0 00-.224-.832l-.399.695zm.188-.328L.93 7.051l-.395.696 12.653 7.183.395-.696zM.933 7.052c-.087-.05-.13-.078-.192-.116a.852.852 0 00-.108-.057c-.028-.012-.155-.067-.308-.02a.428.428 0 00-.284.291.618.618 0 00-.022.155c-.002.054 0 .158 0 .233h.8V7.33c0-.02.001.006-.01.046a.379.379 0 01-.42.258.311.311 0 01-.067-.02c-.015-.006-.018-.009.004.005.03.017.115.072.206.125l.4-.693zm-.913.486v14.2h.8v-14.2h-.8zm0 14.2c0 .354-.001.646.02.884.022.243.069.466.186.673.117.207.284.363.483.506.193.14.446.288.751.468l.405-.69a9.54 9.54 0 01-.688-.427c-.151-.11-.217-.184-.255-.25-.038-.068-.068-.164-.085-.351a10.167 10.167 0 01-.018-.812h-.8zm1.44 2.53l11.824 6.946.405-.69L1.865 23.58l-.405.69zm33.633-1.842v16.101h.8v-16.1h-.8zm0 16.088a.697.697 0 00.07.352.483.483 0 00.43.256.646.646 0 00.302-.088c.07-.038.136-.086.194-.131l-.49-.632a.771.771 0 01-.09.063c-.026.014.007-.012.076-.012a.32.32 0 01.283.167c.034.063.023.1.025.05l-.8-.025zm.98.401l1.651-1.151-.457-.656-1.652 1.15.458.657zm1.651-1.151c.074-.051.156-.106.216-.152a.86.86 0 00.208-.212c.128-.197.127-.426.126-.612l-.8.003c0 .104-.002.156-.007.186-.003.022-.003.007.011-.016.011-.017.017-.015-.021.014-.043.033-.093.065-.19.133l.457.656zm.55-.976l-.068-16.203-.8.003.068 16.203.8-.003zm-.695-16.531l-2.046 1.404.453.66 2.046-1.405-.453-.66zm-2.035 1.397c-.117.075-.278.176-.37.333-.11.185-.088.378-.08.474l.797-.07a1.214 1.214 0 01-.004-.055v-.014a.204.204 0 01-.025.073c-.016.026-.029.033-.009.017a1.24 1.24 0 01.122-.084l-.43-.674zm4.28 14.393l1.749-1.234-.461-.654-1.75 1.235.461.654zm1.765-1.246c.037-.029.055-.04.099-.072a.778.778 0 00.146-.135c.127-.156.145-.333.145-.484h-.8c0 .047-.004.057-.002.049a.208.208 0 01.037-.07c.008-.01.015-.016.015-.016l-.004.002a.357.357 0 01-.012.01l-.047.033-.07.053.493.63zm.39-.691V17.738h-.8V34.11h.8zm-.636-16.695l-1.957 1.43.472.646 1.957-1.43-.472-.646zM39.4 18.836a1.149 1.149 0 00-.342.321.895.895 0 00-.133.528l.8-.022a.287.287 0 01.004-.069l.001-.004v.001l.003-.004a.936.936 0 01.112-.086l-.445-.665zm-.475.838l-.022 15.959h.8l.022-15.958-.8-.001zm-.022 15.955c0 .069.002.164.032.257a.472.472 0 00.32.32.53.53 0 00.363-.036c.073-.033.144-.079.205-.123l-.46-.653a.909.909 0 01-.055.036l-.019.01.01-.003a.315.315 0 01.173 0 .337.337 0 01.167.106.298.298 0 01.059.102c.01.03.004.038.005-.008l-.8-.008z" mask="url(#a)"/></g><defs><clipPath id="clip0"><path fill="#fff" d="M0 0h42v42H0z"/></clipPath></defs></svg>