<svg width="70" height="70" fill="none" xmlns="http://www.w3.org/2000/svg"><g clip-path="url(#clip0)"><path d="M46.547 47.487c.326-.057.406.475.08.532l-9.796 1.51c-.326.057-.406-.474-.08-.53l9.796-1.512zm1.495-22.098c.325-.054.402.477.076.531L37.98 27.422c-.326.054-.403-.477-.077-.532l10.139-1.501zm-.89 21.966a.28.28 0 01.08.216l-.126 8.898 17.09-3.051c.764-.137.975-.2.99-1.094l.127-7.094c-.003-.557.022-.59-.483-.48l-17.606 3.34c-.652.114-.813-.95-.161-1.063l17.606-3.339c.784-.138.857-.337.34-.973l-4.062-5.006-.037 2.758c-.02 1.45-.694 1.938-1.945 2.162l-42.222 7.573.647.786c.534.648 1.067.842 1.86.699l16.843-2.932c.652-.117.817.946.165 1.063l-16.842 2.931c-1.144.206-2.009-.116-2.777-1.048l-1.062-1.29-2.29.411c-1.14.205-2.014-.109-2.78-1.041L6.532 44.94l-.027 2.479c-.01.84.062 1.05.575 1.653l9.973 11.733c.544.64 1.065.84 1.864.698l17.717-3.164.117-8.919-2.077-2.148c-.24-.243.104-.635.345-.392l2.156 2.23a.28.28 0 01.079.214l-.117 8.925 9.466-1.69.125-8.891-2.286-2.04c-.242-.24.1-.635.342-.394l2.368 2.12zm-13.66-9.072l-.18 7.855 9.602-1.722.057-7.826-9.48 1.693zm-.684 7.946l.18-7.856-12.179 2.175c-.938.167-1.742-.007-2.457-.693l-4.236.765c-1.14.206-2.005-.127-2.776-1.044l-10.334-12.3-.002 8.34c0 .849.074 1.05.58 1.667l9.678 11.785c.535.652 1.064.835 1.86.692l19.686-3.531zM43.473 36.5l-.057 7.825 15.384-2.76c.762-.136 1.095-.218 1.107-1.111L60 33.549l-16.526 2.952zm-5.746-.067l.254-9.065-8.37-10.316c-.217-.268.162-.622.38-.355l8.434 10.395.06.184-.254 9.067 9.608-1.715.203-8.962-4.727-5.765c-.218-.266.16-.622.378-.356l4.79 5.843.062.184-.202 8.966 17.874-3.192c.765-.137.976-.2.992-1.094l.126-6.986c0-.572.06-.585-.534-.482l-18.35 3.431c-.651.114-.813-.949-.16-1.063l18.349-3.43c.795-.126.972-.361.416-.958L56.09 8.996c-1.31-1.405-1.538-1.4-3.365-1.095l-16.442 2.753 7.323 8.82c.22.265-.156.623-.376.358l-7.538-9.08-9.268 1.552 3.853 4.749c.217.267-.163.621-.38.354l-4.06-5.004-15.82 2.648c-1.525.263-1.813.473-.822 1.563l10.217 12.399c.535.65 1.066.84 1.862.698l13.81-2.453c6.915-.897.814.949.162 1.063l-13.81 2.453c-1.142.203-2.009-.118-2.776-1.049L8.53 17.43l-.002 7.913c0 .848.074 1.049.58 1.666l9.678 11.785c.535.652 1.064.834 1.86.692l17.082-3.05zM18.164 52.978c.005-.353.506-.345.501.009l-.059 8.4c-.005.353-.507.345-.501-.008l.059-8.4zm-5.866-12.08c.004-.354.506-.348.502.005l-.06 8.407c-.003.353-.505.347-.501-.007l.06-8.406zm7.518-10.495c.005-.353.507-.345.502.009l.059 8.489c-.005.353-.566.354-.56 0v-8.498zm48.546-8.502l-.15 8.37c-.026 1.446-.578 1.915-1.83 2.139l-5.377.96-.037 2.722 4.801 5.915c.583.718.586 1.036.572 1.832l-.151 8.502c-.026 1.447-.579 1.916-1.83 2.14l-45.278 8.084c-1.142.205-1.995-.12-2.773-1.035L6.336 49.798c-.685-.807-.846-1.282-.834-2.392l.04-3.672L.83 37.995C.16 37.181 0 36.724 0 35.617l.003-9.766c-.064-1.665.707-1.733 2.119-1.98l5.402-.949.002-7.223c.07-1.318 1.281-1.534 2.123-1.675L52.573 6.84c2.157-.361 2.676-.27 4.23 1.398l10.965 11.77c.684.734.61 1.061.594 1.894zM17.541 38.91L8.353 27.721c-.67-.815-.829-1.273-.829-2.379v-1.329l-5.24.92c-1.391.221-1.477.504-.613 1.522l10.417 12.4c.544.647 1.058.848 1.862.702l3.59-.648z" fill="#000"/></g><defs><clipPath id="clip0"><path fill="#fff" d="M0 0h70v70H0z"/></clipPath></defs></svg>