<svg width="70" height="70" fill="none" xmlns="http://www.w3.org/2000/svg"><path d="M58.622 37.657c0-4.594-8.055-7.062-15.602-7.133v-2.941c3.614-1.181 6.177-3.118 6.177-5.717v-6.78c0-4.63-8.15-7.086-15.815-7.086-7.665 0-15.815 2.504-15.815 7.087v6.189c-3.921 1.322-6.19 3.366-6.19 5.716v6.78c0 4.594 7.997 7.086 15.591 7.086v3.544c.01.654.184 1.296.508 1.866-.325.568-.5 1.21-.508 1.866v6.78c0 4.63 8.15 7.086 15.815 7.086 7.666 0 15.839-2.433 15.839-7.063v-6.78a3.851 3.851 0 00-.508-1.866 3.885 3.885 0 00.508-1.83v-6.803zm-2.421-.047c0 1.937-5.067 4.82-13.406 4.82a25.792 25.792 0 01-10.453-1.914c5.776-.862 10.63-3.154 10.63-6.756v-.874c8.197 0 13.229 2.787 13.229 4.724zm-5.103 6.166v4.346c-.792.228-1.597.413-2.41.555l.048-.012v-4.382a29.892 29.892 0 002.362-.507zm-4.724.838v4.406c-.744.07-1.583.165-2.398.165l.036-.024v-4.393c.78 0 1.57-.083 2.362-.154zm-4.724.154v4.417c-.85 0-1.63-.095-2.374-.165l.011-.012v-4.394c.768.071 1.548.13 2.363.154zm-4.725-.46v4.381a23.228 23.228 0 01-2.362-.567V43.8c.744.2 1.524.365 2.362.507zm-3.85-6.284V33.63a26.787 26.787 0 002.362-.508v4.335c-.777.23-1.565.419-2.362.567zm7.618-7.146v2.905c0 .886-1.016 1.926-2.858 2.8v-4.217a12.992 12.992 0 002.822-1.5l.036.012zm-1.406-4.748v-4.406c.792-.141 1.619-.307 2.327-.508h.036v4.347c-.777.23-1.566.42-2.363.567zm7.524-4.264c0 .886-1.004 1.925-2.858 2.8V20.46a12.992 12.992 0 002.858-1.5v2.905zm-13.43-11.551c8.328 0 13.454 2.776 13.454 4.724 0 1.95-5.115 4.725-13.453 4.725-8.339 0-13.453-2.776-13.453-4.725 0-1.948 5.126-4.724 13.453-4.724zm3.544 11.717v4.405a28.68 28.68 0 01-2.362.153v-4.393c.78-.024 1.618-.083 2.35-.177l.012.012zm-4.724.165v4.393c-.815 0-1.595-.082-2.362-.153V22.02c.787.086 1.574.145 2.362.177zm-4.725-.475v4.384a23.35 23.35 0 01-2.362-.567v-4.323c.787.2 1.61.365 2.362.506zm-7.559-2.773c.887.617 1.847 1.12 2.859 1.5v4.204c-1.843-.885-2.859-1.913-2.859-2.799V18.95zm-6.177 14.81v-2.893c.887.617 1.847 1.12 2.858 1.5l.012 4.205c-1.842-.886-2.87-1.925-2.87-2.811zm7.595 4.265a23.228 23.228 0 01-2.363-.567v-4.335c.756.2 1.536.366 2.363.508v4.394zm4.724.496c-.815 0-1.595-.083-2.362-.154v-4.429c.78.083 1.559.13 2.362.154v4.429zm1.181-6.744c-8.327 0-13.453-2.776-13.453-4.725 0-1.18 1.642-2.456 4.252-3.378 1.76 3.544 8.752 5.386 15.355 5.386 2.196 0 4.387-.21 6.543-.626-1.689 1.63-6.224 3.33-12.732 3.33l.035.013zm1.11 6.732v-4.406c.792 0 1.571-.082 2.363-.153v4.405a28.75 28.75 0 01-2.363.154zm3.85 4.523h-.035v4.205c-1.842-.886-2.858-1.913-2.858-2.799V41.52c.897.623 1.87 1.131 2.894 1.511zm-.035 14.705c-1.842-.886-2.858-1.913-2.858-2.799v-2.905c.887.616 1.847 1.12 2.858 1.5v4.204zm4.725 1.453a23.235 23.235 0 01-2.362-.567v-4.335a26.37 26.37 0 002.362.508v4.394zm4.724.496c-.815 0-1.594-.083-2.362-.154v-4.44c.78.082 1.559.13 2.362.153v4.441zM29.366 48.311c2.977 2.126 8.268 3.248 13.43 3.248 5.16 0 10.452-1.181 13.428-3.248-.248 1.972-5.303 4.618-13.429 4.618-8.126 0-13.169-2.634-13.429-4.618zm17.008 11.197c-.744.07-1.524.13-2.362.153v-4.393c.78 0 1.57-.083 2.362-.154v4.394zm4.724-.898c-.776.23-1.565.42-2.362.567v-4.382a29.892 29.892 0 002.362-.508v4.323zm5.162-3.673c0 .886-1.016 1.925-2.858 2.8V53.53a12.996 12.996 0 002.858-1.5v2.906zm0-10.476c0 .886-1.016 1.925-2.858 2.799v-4.228a12.996 12.996 0 002.858-1.512v2.94z" fill="#000"/></svg>