<svg width="70" height="70" fill="none" xmlns="http://www.w3.org/2000/svg"><path d="M69.576 25.437C63.21 23.819 57.42 23 52.373 23c-5.115 0-8.401.818-10.576 1.358-.6.15-1.117.278-1.54.354-2.978.535-4.489.689-4.686.708h-1.143c-.197-.019-1.707-.173-4.685-.709-.423-.076-.94-.204-1.54-.353C26.03 23.817 22.743 23 17.627 23c-5.048 0-10.836.82-17.204 2.437L0 25.544l.101 4.216.01.34.308.144c.078.035 1.91.918 2.43 3.457.172.844 1.73 8.29 3.267 9.912.843.89 3.411 3.601 10.344 3.601 1.029 0 2.13-.058 3.272-.175 3.817-.39 7.231-2.676 9.872-6.609 1.97-2.936 2.812-5.718 2.847-5.835l.02-.064.002-.066c.005-.105.144-2.532 1.986-2.932h1.083c1.842.4 1.98 2.827 1.985 2.93l.003.068.02.064c.034.117.877 2.9 2.847 5.835 2.64 3.933 6.054 6.218 9.872 6.61 1.142.116 2.242.174 3.272.174 6.932 0 9.5-2.71 10.344-3.601 1.537-1.622 3.094-9.068 3.267-9.912.519-2.54 2.352-3.422 2.427-3.456l.312-.142.109-4.559-.424-.107zm-.763 3.982c-.675.412-2.231 1.602-2.733 4.062-.808 3.945-2.093 8.433-2.99 9.379-.492.519-1.468 1.538-3.468 2.3-1.432.546-3.386.96-6.083.96-.992 0-2.055-.057-3.16-.17-8.136-.833-11.496-10.772-11.765-11.612-.04-.523-.373-3.395-2.914-3.89l-1.297-.01-.105.01c-2.54.494-2.874 3.368-2.913 3.89-.268.841-3.616 10.78-11.765 11.612-1.105.113-2.168.17-3.16.17-6.462 0-8.706-2.368-9.55-3.26-.898-.946-2.183-5.433-2.99-9.378-.503-2.46-2.06-3.65-2.734-4.062l-.073-3.028c6.114-1.525 11.667-2.298 16.514-2.298 4.98 0 8.19.798 10.312 1.326.618.154 1.152.286 1.61.37 3.245.584 4.744.718 4.806.722l1.24.002.048-.002c.062-.005 1.562-.139 4.806-.723.458-.083.992-.215 1.61-.369 2.124-.527 5.333-1.326 10.313-1.326 4.592 0 9.825.703 15.561 2.072.318.076.63.146.952.226l-.073 3.027z" fill="#000"/><path d="M53.606 25.533c-3.125 0-6.273.444-8.02.823-4.212.916-4.937 3.188-4.995 4.46-.046 1.008.597 4.08.668 4.412 1.59 8.611 8.12 9.898 11.87 9.898 2.813 0 5.284-.689 6.545-1.279 3.78-1.766 3.92-5.549 4.178-12.415.05-1.353-.369-2.502-1.25-3.416-1.587-1.647-4.614-2.483-8.996-2.483zm5.604 17.324a10.29 10.29 0 01-1.466.527 17.223 17.223 0 01-4.614.649c-4.167 0-9.422-1.562-10.8-9.017-.19-.905-.68-3.414-.646-4.15.076-1.68 1.506-2.869 4.136-3.44 1.693-.37 4.749-.8 7.786-.8 1.965 0 3.644.182 5.01.528 1.425.361 2.508.904 3.2 1.622.675.7.984 1.556.944 2.617-.267 7.099-.497 10.037-3.55 11.464zM24.413 26.356c-1.747-.38-4.895-.823-8.02-.823-4.382 0-7.409.835-8.996 2.484-.88.913-1.3 2.063-1.25 3.416.258 6.866.4 10.648 4.179 12.415 1.261.59 3.73 1.278 6.545 1.278 3.752 0 10.28-1.287 11.868-9.883.073-.347.716-3.418.67-4.425-.059-1.274-.785-3.546-4.996-4.462zm3.253 8.674c-.977 5.291-3.917 7.602-7.033 8.5-1.265.365-2.559.503-3.763.503-2.465 0-4.831-.59-6.082-1.176-3.052-1.426-3.282-4.365-3.548-11.465-.04-1.06.269-1.916.944-2.617 1.354-1.406 4.193-2.149 8.208-2.149 2.944 0 5.894.404 7.616.764.054.012.12.023.172.034 2.628.573 4.059 1.762 4.135 3.443.034.734-.455 3.244-.65 4.163z" fill="#000"/></svg>