<svg width="42" height="42" fill="none" xmlns="http://www.w3.org/2000/svg"><path fill="#E5E5E5" d="M0 0h42v42H0z"/><g clip-path="url(#clip0)"><path fill="#fff" d="M-55-3201h320v5043H-55z"/><path fill="#F8F9FB" d="M-55-363h320v617H-55z"/><path fill="url(#paint0_linear)" d="M-55-363h320v617H-55z"/><g filter="url(#filter0_d)"><rect x="-40" y="-323" width="290" height="517" rx="10" fill="#fff"/></g><rect x="-19" y="-19" width="248" height="80" rx="4" fill="#fff" stroke="#D2D3D3" stroke-width="2"/><g clip-path="url(#clip1)"><mask id="a" maskUnits="userSpaceOnUse" x="30.199" y="12.801" width="12" height="11" fill="#000"><path fill="#fff" d="M30.199 12.801h12v11h-12z"/><path d="M31.813 22.794a.113.113 0 01-.073-.025.128.128 0 01-.044-.068.137.137 0 01.003-.082.126.126 0 01.05-.063c.221-.146 5.408-3.58 6.77-4.184.792-.352 1.278-1.33 1.648-2.112a2.83 2.83 0 01.75-1.143.533.533 0 00.24-.314.575.575 0 00-.032-.404.575.575 0 00-.126-.188.502.502 0 00-.607-.09c-.923.433-1.801.973-2.618 1.608l-.426.293c-1.192.841-5.91 4.115-5.961 4.115a.115.115 0 01-.092.018.122.122 0 01-.076-.057.14.14 0 01-.017-.098.131.131 0 01.053-.082c.047-.032 4.765-3.297 5.961-4.115l.426-.293c.82-.643 1.703-1.19 2.632-1.632a.738.738 0 01.856.146.838.838 0 01.178.265.853.853 0 01.065.594.797.797 0 01-.337.476c-.286.29-.509.644-.652 1.038-.4.823-.898 1.829-1.771 2.236-1.341.594-6.681 4.115-6.736 4.165a.11.11 0 01-.064-.004z"/></mask><path d="M31.813 22.794a.113.113 0 01-.073-.025.128.128 0 01-.044-.068.137.137 0 01.003-.082.126.126 0 01.05-.063c.221-.146 5.408-3.58 6.77-4.184.792-.352 1.278-1.33 1.648-2.112a2.83 2.83 0 01.75-1.143.533.533 0 00.24-.314.575.575 0 00-.032-.404.575.575 0 00-.126-.188.502.502 0 00-.607-.09c-.923.433-1.801.973-2.618 1.608l-.426.293c-1.192.841-5.91 4.115-5.961 4.115a.115.115 0 01-.092.018.122.122 0 01-.076-.057.14.14 0 01-.017-.098.131.131 0 01.053-.082c.047-.032 4.765-3.297 5.961-4.115l.426-.293c.82-.643 1.703-1.19 2.632-1.632a.738.738 0 01.856.146.838.838 0 01.178.265.853.853 0 01.065.594.797.797 0 01-.337.476c-.286.29-.509.644-.652 1.038-.4.823-.898 1.829-1.771 2.236-1.341.594-6.681 4.115-6.736 4.165a.11.11 0 01-.064-.004z" fill="#000"/><path d="M31.813 22.794a.113.113 0 01-.073-.025.128.128 0 01-.044-.068.137.137 0 01.003-.082.126.126 0 01.05-.063c.221-.146 5.408-3.58 6.77-4.184.792-.352 1.278-1.33 1.648-2.112a2.83 2.83 0 01.75-1.143.533.533 0 00.24-.314.575.575 0 00-.032-.404.575.575 0 00-.126-.188.502.502 0 00-.607-.09c-.923.433-1.801.973-2.618 1.608l-.426.293c-1.192.841-5.91 4.115-5.961 4.115a.115.115 0 01-.092.018.122.122 0 01-.076-.057.14.14 0 01-.017-.098.131.131 0 01.053-.082c.047-.032 4.765-3.297 5.961-4.115l.426-.293c.82-.643 1.703-1.19 2.632-1.632a.738.738 0 01.856.146.838.838 0 01.178.265.853.853 0 01.065.594.797.797 0 01-.337.476c-.286.29-.509.644-.652 1.038-.4.823-.898 1.829-1.771 2.236-1.341.594-6.681 4.115-6.736 4.165a.11.11 0 01-.064-.004z" stroke="#000" stroke-width=".4" mask="url(#a)"/><mask id="b" maskUnits="userSpaceOnUse" x="38.6" y="14" width="3" height="6" fill="#000"><path fill="#fff" d="M38.6 14h3v6h-3z"/><path d="M40.749 19.8h-.081a.475.475 0 01-.169-.07.328.328 0 01-.109-.119l-.788-2.947a.082.082 0 010-.042.096.096 0 01.022-.039.133.133 0 01.04-.03.192.192 0 01.16 0 .19.19 0 01.04.03c.01.013.017.026.021.04l.783 2.928s.03.038.07.042a.485.485 0 00.243-.095c.217-.196.146-2.385-.046-4.385a.08.08 0 01.007-.04.103.103 0 01.028-.037.146.146 0 01.043-.025.179.179 0 01.155.016.104.104 0 01.05.071c.096.993.379 4.26-.045 4.555a.743.743 0 01-.424.147z"/></mask><path d="M40.749 19.8h-.081a.475.475 0 01-.169-.07.328.328 0 01-.109-.119l-.788-2.947a.082.082 0 010-.042.096.096 0 01.022-.039.133.133 0 01.04-.03.192.192 0 01.16 0 .19.19 0 01.04.03c.01.013.017.026.021.04l.783 2.928s.03.038.07.042a.485.485 0 00.243-.095c.217-.196.146-2.385-.046-4.385a.08.08 0 01.007-.04.103.103 0 01.028-.037.146.146 0 01.043-.025.179.179 0 01.155.016.104.104 0 01.05.071c.096.993.379 4.26-.045 4.555a.743.743 0 01-.424.147z" fill="#000"/><path d="M40.749 19.8h-.081a.475.475 0 01-.169-.07.328.328 0 01-.109-.119l-.788-2.947a.082.082 0 010-.042.096.096 0 01.022-.039.133.133 0 01.04-.03.192.192 0 01.16 0 .19.19 0 01.04.03c.01.013.017.026.021.04l.783 2.928s.03.038.07.042a.485.485 0 00.243-.095c.217-.196.146-2.385-.046-4.385a.08.08 0 01.007-.04.103.103 0 01.028-.037.146.146 0 01.043-.025.179.179 0 01.155.016.104.104 0 01.05.071c.096.993.379 4.26-.045 4.555a.743.743 0 01-.424.147z" stroke="#000" stroke-width=".4" mask="url(#b)"/><mask id="c" maskUnits="userSpaceOnUse" x=".801" y="9.199" width="23" height="7" fill="#000"><path fill="#fff" d="M.801 9.199h23v7h-23z"/><path d="M6.592 15.598a.128.128 0 01-.087-.021.114.114 0 01-.048-.072.11.11 0 01.018-.083.122.122 0 01.074-.05c.052 0 5.308-1.896 7.187-2.282a2.94 2.94 0 001.656-1.06c.493-.53.96-1.026 2.019-.8.871.185 1.795.998 2.698 1.782.99.858 2.013 1.745 2.654 1.482a.565.565 0 00.291-.207.511.511 0 00.097-.33c-.035-.637-1.242-2.054-5.544-3.347a4.46 4.46 0 00-1.992-.131l-4.49.89c-1.102.226-9.057 3.314-9.153 3.342a.128.128 0 01-.135-.024.11.11 0 01-.028-.126.12.12 0 01.067-.063c.327-.127 8.055-3.124 9.18-3.354l4.515-.883a4.733 4.733 0 012.114.135c4.141 1.232 5.667 2.69 5.715 3.556a.719.719 0 01-.135.46.793.793 0 01-.402.291c-.788.325-1.826-.57-2.92-1.523-.872-.764-1.796-1.556-2.59-1.724-.914-.197-1.307.213-1.777.726a3.188 3.188 0 01-1.774 1.125c-1.862.382-7.1 2.254-7.153 2.27l-.057.021z"/></mask><path d="M6.592 15.598a.128.128 0 01-.087-.021.114.114 0 01-.048-.072.11.11 0 01.018-.083.122.122 0 01.074-.05c.052 0 5.308-1.896 7.187-2.282a2.94 2.94 0 001.656-1.06c.493-.53.96-1.026 2.019-.8.871.185 1.795.998 2.698 1.782.99.858 2.013 1.745 2.654 1.482a.565.565 0 00.291-.207.511.511 0 00.097-.33c-.035-.637-1.242-2.054-5.544-3.347a4.46 4.46 0 00-1.992-.131l-4.49.89c-1.102.226-9.057 3.314-9.153 3.342a.128.128 0 01-.135-.024.11.11 0 01-.028-.126.12.12 0 01.067-.063c.327-.127 8.055-3.124 9.18-3.354l4.515-.883a4.733 4.733 0 012.114.135c4.141 1.232 5.667 2.69 5.715 3.556a.719.719 0 01-.135.46.793.793 0 01-.402.291c-.788.325-1.826-.57-2.92-1.523-.872-.764-1.796-1.556-2.59-1.724-.914-.197-1.307.213-1.777.726a3.188 3.188 0 01-1.774 1.125c-1.862.382-7.1 2.254-7.153 2.27l-.057.021z" fill="#000"/><path d="M6.592 15.598a.128.128 0 01-.087-.021.114.114 0 01-.048-.072.11.11 0 01.018-.083.122.122 0 01.074-.05c.052 0 5.308-1.896 7.187-2.282a2.94 2.94 0 001.656-1.06c.493-.53.96-1.026 2.019-.8.871.185 1.795.998 2.698 1.782.99.858 2.013 1.745 2.654 1.482a.565.565 0 00.291-.207.511.511 0 00.097-.33c-.035-.637-1.242-2.054-5.544-3.347a4.46 4.46 0 00-1.992-.131l-4.49.89c-1.102.226-9.057 3.314-9.153 3.342a.128.128 0 01-.135-.024.11.11 0 01-.028-.126.12.12 0 01.067-.063c.327-.127 8.055-3.124 9.18-3.354l4.515-.883a4.733 4.733 0 012.114.135c4.141 1.232 5.667 2.69 5.715 3.556a.719.719 0 01-.135.46.793.793 0 01-.402.291c-.788.325-1.826-.57-2.92-1.523-.872-.764-1.796-1.556-2.59-1.724-.914-.197-1.307.213-1.777.726a3.188 3.188 0 01-1.774 1.125c-1.862.382-7.1 2.254-7.153 2.27l-.057.021z" stroke="#000" stroke-width=".4" mask="url(#c)"/><mask id="d" maskUnits="userSpaceOnUse" x="-1" y="14" width="33" height="18" fill="#000"><path fill="#fff" d="M-1 14h33v18H-1z"/><path d="M23.973 31.8c-4.678 0-7.495-2.883-8.403-8.573 0-.105-.03-.194-.044-.27a.905.905 0 00-.145-.374.954.954 0 00-.296-.282c-.604-.387-1.635-.248-1.948-.198-.049.64-.397 4.209-2.359 5.85a3.396 3.396 0 01-1.183.67 3.508 3.508 0 01-1.365.16c-5.012-.385-6.907-3.099-7.51-10.767-.235-.062-.72-.34-.72-1.561a1.383 1.383 0 01.233-.788 1.48 1.48 0 01.649-.537c.257-.116.544-.155.824-.114l.441.072c2.852.463 7.16 1.161 10.972 3.442 0 0 1.023.421 2.852 0 2.72-.673 11.59-.732 15.43 1.684.035.03.476.42.387 1.797a.122.122 0 01-.048.038 2.56 2.56 0 01-.983 1.098c.035.602.172 4.512-2.077 6.852-1.146 1.195-2.728 1.801-4.707 1.801zM13.934 21.796c.463-.023.922.084 1.322.307a1.2 1.2 0 01.361.353c.093.141.153.3.177.464 0 .075.027.168.044.273.882 5.556 3.62 8.371 8.155 8.371 1.905 0 3.426-.58 4.528-1.721 2.358-2.45 2.01-6.704 2.006-6.734a.114.114 0 01.015-.07.122.122 0 01.055-.048 2.26 2.26 0 00.93-.997c.07-1.208-.29-1.574-.295-1.578-3.752-2.378-12.51-2.32-15.195-1.654-1.931.48-2.994 0-3.038 0-3.782-2.265-8.063-2.946-10.893-3.418l-.44-.071c-.233-.034-.471 0-.684.097a1.235 1.235 0 00-.53.451 1.155 1.155 0 00-.188.655c0 1.305.582 1.343.586 1.343.03 0 .06.012.083.033a.12.12 0 01.04.076c.578 7.576 2.42 10.265 7.292 10.619.428.038.861-.008 1.27-.137a3.155 3.155 0 001.106-.612c2.036-1.71 2.274-5.737 2.279-5.779a.115.115 0 01.029-.07.124.124 0 01.068-.04c.3-.066.608-.104.917-.113zm10.073 8.969c-.397 0-.772-.026-1.111-.05l-.511-.035h-.027c-4.24-1.018-6.048-5.584-5.607-9.364.023-.24.096-.472.214-.684.118-.213.279-.4.473-.553a1.62 1.62 0 01.882-.337c.093 0 9.143-.517 10.606 1.722.064.098.12.2.168.307a8.186 8.186 0 01-.573 6.342c-1.261 2.277-3.033 2.652-4.514 2.652zm-1.6-.3h.515c1.539.11 3.866.279 5.387-2.478a7.934 7.934 0 00.569-6.14 2.269 2.269 0 00-.146-.274c-1.146-1.763-7.882-1.76-10.377-1.612a1.358 1.358 0 00-.758.286 1.599 1.599 0 00-.41.482 1.529 1.529 0 00-.185.596c-.44 3.695 1.31 8.13 5.404 9.14zM8.238 27.559a7.75 7.75 0 01-1.904-.287 4.512 4.512 0 01-2.43-1.557c-1.26-1.595-1.829-4.048-1.727-7.297.006-.362.114-.715.313-1.023.112-.196.275-.362.474-.48.198-.119.425-.187.659-.198.846 0 7.824.842 8.265 4.045 0 .235.357 5.601-2.733 6.624a1.91 1.91 0 01-.917.173zM6.4 27.041c2.041.526 2.645.147 2.645.143h.035c2.927-.955 2.584-6.313 2.58-6.38-.398-2.875-6.93-3.855-8.033-3.83-.192.01-.379.068-.541.168a1.085 1.085 0 00-.385.4 1.718 1.718 0 00-.273.9c-.097 3.19.467 5.598 1.68 7.155a4.26 4.26 0 002.292 1.47v-.026z"/></mask><path d="M23.973 31.8c-4.678 0-7.495-2.883-8.403-8.573 0-.105-.03-.194-.044-.27a.905.905 0 00-.145-.374.954.954 0 00-.296-.282c-.604-.387-1.635-.248-1.948-.198-.049.64-.397 4.209-2.359 5.85a3.396 3.396 0 01-1.183.67 3.508 3.508 0 01-1.365.16c-5.012-.385-6.907-3.099-7.51-10.767-.235-.062-.72-.34-.72-1.561a1.383 1.383 0 01.233-.788 1.48 1.48 0 01.649-.537c.257-.116.544-.155.824-.114l.441.072c2.852.463 7.16 1.161 10.972 3.442 0 0 1.023.421 2.852 0 2.72-.673 11.59-.732 15.43 1.684.035.03.476.42.387 1.797a.122.122 0 01-.048.038 2.56 2.56 0 01-.983 1.098c.035.602.172 4.512-2.077 6.852-1.146 1.195-2.728 1.801-4.707 1.801zM13.934 21.796c.463-.023.922.084 1.322.307a1.2 1.2 0 01.361.353c.093.141.153.3.177.464 0 .075.027.168.044.273.882 5.556 3.62 8.371 8.155 8.371 1.905 0 3.426-.58 4.528-1.721 2.358-2.45 2.01-6.704 2.006-6.734a.114.114 0 01.015-.07.122.122 0 01.055-.048 2.26 2.26 0 00.93-.997c.07-1.208-.29-1.574-.295-1.578-3.752-2.378-12.51-2.32-15.195-1.654-1.931.48-2.994 0-3.038 0-3.782-2.265-8.063-2.946-10.893-3.418l-.44-.071c-.233-.034-.471 0-.684.097a1.235 1.235 0 00-.53.451 1.155 1.155 0 00-.188.655c0 1.305.582 1.343.586 1.343.03 0 .06.012.083.033a.12.12 0 01.04.076c.578 7.576 2.42 10.265 7.292 10.619.428.038.861-.008 1.27-.137a3.155 3.155 0 001.106-.612c2.036-1.71 2.274-5.737 2.279-5.779a.115.115 0 01.029-.07.124.124 0 01.068-.04c.3-.066.608-.104.917-.113zm10.073 8.969c-.397 0-.772-.026-1.111-.05l-.511-.035h-.027c-4.24-1.018-6.048-5.584-5.607-9.364.023-.24.096-.472.214-.684.118-.213.279-.4.473-.553a1.62 1.62 0 01.882-.337c.093 0 9.143-.517 10.606 1.722.064.098.12.2.168.307a8.186 8.186 0 01-.573 6.342c-1.261 2.277-3.033 2.652-4.514 2.652zm-1.6-.3h.515c1.539.11 3.866.279 5.387-2.478a7.934 7.934 0 00.569-6.14 2.269 2.269 0 00-.146-.274c-1.146-1.763-7.882-1.76-10.377-1.612a1.358 1.358 0 00-.758.286 1.599 1.599 0 00-.41.482 1.529 1.529 0 00-.185.596c-.44 3.695 1.31 8.13 5.404 9.14zM8.238 27.559a7.75 7.75 0 01-1.904-.287 4.512 4.512 0 01-2.43-1.557c-1.26-1.595-1.829-4.048-1.727-7.297.006-.362.114-.715.313-1.023.112-.196.275-.362.474-.48.198-.119.425-.187.659-.198.846 0 7.824.842 8.265 4.045 0 .235.357 5.601-2.733 6.624a1.91 1.91 0 01-.917.173zM6.4 27.041c2.041.526 2.645.147 2.645.143h.035c2.927-.955 2.584-6.313 2.58-6.38-.398-2.875-6.93-3.855-8.033-3.83-.192.01-.379.068-.541.168a1.085 1.085 0 00-.385.4 1.718 1.718 0 00-.273.9c-.097 3.19.467 5.598 1.68 7.155a4.26 4.26 0 002.292 1.47v-.026z" fill="#000"/><path d="M23.973 31.8c-4.678 0-7.495-2.883-8.403-8.573 0-.105-.03-.194-.044-.27a.905.905 0 00-.145-.374.954.954 0 00-.296-.282c-.604-.387-1.635-.248-1.948-.198-.049.64-.397 4.209-2.359 5.85a3.396 3.396 0 01-1.183.67 3.508 3.508 0 01-1.365.16c-5.012-.385-6.907-3.099-7.51-10.767-.235-.062-.72-.34-.72-1.561a1.383 1.383 0 01.233-.788 1.48 1.48 0 01.649-.537c.257-.116.544-.155.824-.114l.441.072c2.852.463 7.16 1.161 10.972 3.442 0 0 1.023.421 2.852 0 2.72-.673 11.59-.732 15.43 1.684.035.03.476.42.387 1.797a.122.122 0 01-.048.038 2.56 2.56 0 01-.983 1.098c.035.602.172 4.512-2.077 6.852-1.146 1.195-2.728 1.801-4.707 1.801zM13.934 21.796c.463-.023.922.084 1.322.307a1.2 1.2 0 01.361.353c.093.141.153.3.177.464 0 .075.027.168.044.273.882 5.556 3.62 8.371 8.155 8.371 1.905 0 3.426-.58 4.528-1.721 2.358-2.45 2.01-6.704 2.006-6.734a.114.114 0 01.015-.07.122.122 0 01.055-.048 2.26 2.26 0 00.93-.997c.07-1.208-.29-1.574-.295-1.578-3.752-2.378-12.51-2.32-15.195-1.654-1.931.48-2.994 0-3.038 0-3.782-2.265-8.063-2.946-10.893-3.418l-.44-.071c-.233-.034-.471 0-.684.097a1.235 1.235 0 00-.53.451 1.155 1.155 0 00-.188.655c0 1.305.582 1.343.586 1.343.03 0 .06.012.083.033a.12.12 0 01.04.076c.578 7.576 2.42 10.265 7.292 10.619.428.038.861-.008 1.27-.137a3.155 3.155 0 001.106-.612c2.036-1.71 2.274-5.737 2.279-5.779a.115.115 0 01.029-.07.124.124 0 01.068-.04c.3-.066.608-.104.917-.113zm10.073 8.969c-.397 0-.772-.026-1.111-.05l-.511-.035h-.027c-4.24-1.018-6.048-5.584-5.607-9.364.023-.24.096-.472.214-.684.118-.213.279-.4.473-.553a1.62 1.62 0 01.882-.337c.093 0 9.143-.517 10.606 1.722.064.098.12.2.168.307a8.186 8.186 0 01-.573 6.342c-1.261 2.277-3.033 2.652-4.514 2.652zm-1.6-.3h.515c1.539.11 3.866.279 5.387-2.478a7.934 7.934 0 00.569-6.14 2.269 2.269 0 00-.146-.274c-1.146-1.763-7.882-1.76-10.377-1.612a1.358 1.358 0 00-.758.286 1.599 1.599 0 00-.41.482 1.529 1.529 0 00-.185.596c-.44 3.695 1.31 8.13 5.404 9.14zM8.238 27.559a7.75 7.75 0 01-1.904-.287 4.512 4.512 0 01-2.43-1.557c-1.26-1.595-1.829-4.048-1.727-7.297.006-.362.114-.715.313-1.023.112-.196.275-.362.474-.48.198-.119.425-.187.659-.198.846 0 7.824.842 8.265 4.045 0 .235.357 5.601-2.733 6.624a1.91 1.91 0 01-.917.173zM6.4 27.041c2.041.526 2.645.147 2.645.143h.035c2.927-.955 2.584-6.313 2.58-6.38-.398-2.875-6.93-3.855-8.033-3.83-.192.01-.379.068-.541.168a1.085 1.085 0 00-.385.4 1.718 1.718 0 00-.273.9c-.097 3.19.467 5.598 1.68 7.155a4.26 4.26 0 002.292 1.47v-.026z" stroke="#000" stroke-width=".4" mask="url(#d)"/></g></g><defs><clipPath id="clip0"><path fill="#fff" transform="translate(-55 -3201)" d="M0 0h320v5043H0z"/></clipPath><clipPath id="clip1"><path fill="#fff" transform="matrix(-1 0 0 1 42 0)" d="M0 0h42v42H0z"/></clipPath><linearGradient id="paint0_linear" x1="105" y1="-363" x2="105" y2="254" gradientUnits="userSpaceOnUse"><stop stop-color="#5E19CE"/><stop offset="1" stop-color="#4021D6"/></linearGradient><filter id="filter0_d" x="-130" y="-409" width="470" height="697" filterUnits="userSpaceOnUse" color-interpolation-filters="sRGB"><feFlood flood-opacity="0" result="BackgroundImageFix"/><feColorMatrix in="SourceAlpha" values="0 0 0 0 0 0 0 0 0 0 0 0 0 0 0 0 0 0 127 0"/><feOffset dy="4"/><feGaussianBlur stdDeviation="45"/><feColorMatrix values="0 0 0 0 0 0 0 0 0 0 0 0 0 0 0 0 0 0 0.25 0"/><feBlend in2="BackgroundImageFix" result="effect1_dropShadow"/><feBlend in="SourceGraphic" in2="effect1_dropShadow" result="shape"/></filter></defs></svg>