<svg width="18" height="17" fill="none" xmlns="http://www.w3.org/2000/svg"><path d="M9.004 4.233c-2.555 0-4.616 1.904-4.616 4.264 0 2.36 2.06 4.264 4.616 4.264 2.556 0 4.617-1.904 4.617-4.264 0-2.36-2.062-4.264-4.617-4.264zm0 7.036c-1.651 0-3.001-1.243-3.001-2.772 0-1.529 1.346-2.772 3.001-2.772 1.655 0 3.001 1.243 3.001 2.772 0 1.529-1.35 2.772-3 2.772zm5.882-7.21c0 .553-.482.994-1.076.994-.6 0-1.077-.445-1.077-.994 0-.55.482-.995 1.076-.995.595 0 1.077.445 1.077.995zm3.058 1.009c-.069-1.332-.398-2.512-1.455-3.485C15.437.611 14.16.307 12.717.24 11.23.162 6.774.162 5.287.24 3.85.303 2.573.607 1.516 1.58.458 2.552.133 3.732.06 5.064c-.084 1.373-.084 5.489 0 6.862.069 1.332.398 2.512 1.455 3.484 1.057.973 2.33 1.277 3.773 1.344 1.486.078 5.942.078 7.429 0 1.442-.063 2.72-.368 3.772-1.344 1.053-.972 1.383-2.152 1.455-3.484.084-1.373.084-5.485 0-6.858zm-1.92 8.331c-.314.727-.92 1.288-1.712 1.58-1.186.435-3.998.335-5.308.335-1.31 0-4.126.096-5.307-.334-.788-.29-1.395-.85-1.712-1.58-.47-1.096-.362-3.693-.362-4.903 0-1.21-.104-3.811.362-4.902.313-.728.92-1.288 1.712-1.581 1.185-.434 3.997-.334 5.307-.334 1.31 0 4.126-.097 5.308.334.787.29 1.394.85 1.711 1.58.47 1.095.362 3.693.362 4.903 0 1.21.108 3.811-.362 4.902z" fill="#fff"/></svg>