<svg width="62" height="70" fill="none" xmlns="http://www.w3.org/2000/svg"><path d="M60.937 42.752c-.992-4.551-4.61-9.977-9.92-15.17 1.81-.934 3.326-2.276 4.435-4.026 1.75-2.684 2.276-6.01 1.575-9.394-.933-4.376-3.85-8.402-8.052-11.086-7.701-4.96-17.27-3.792-21.413 2.567-1.109 1.692-1.692 3.618-1.867 5.66-11.086-4.26-20.48-4.143-23.806.992C.664 14.162.372 16.438.956 19.122c1.167 5.484 6.126 12.136 13.303 18.262-1.109.875-2.392 1.575-3.793 2.1a15.853 15.853 0 00-8.693 7.586C-1.67 53.605.023 61.773 5.799 66.44A15.866 15.866 0 0015.834 70c.817 0 1.634-.058 2.45-.175 4.435-.7 8.345-3.267 10.795-7.002 1.926-2.975 2.8-6.476 2.45-9.977-.116-1.459 0-2.859.292-4.143 6.885 3.21 13.362 4.901 18.438 4.901 4.493 0 7.935-1.283 9.686-4.025 1.225-1.81 1.575-4.143.992-6.827zm-28.065 3.267c.35-.641.758-1.283 1.283-1.867l.642-.758a8.725 8.725 0 001.984-6.885c-.35-2.509-1.809-4.668-3.91-6.068l-2.275-1.4c-2.1-1.343-4.726-1.75-7.118-1.05-2.392.7-4.434 2.391-5.485 4.667l-.291.642a9.887 9.887 0 01-1.343 2.1C9.591 29.682 4.866 23.44 3.816 18.538c-.409-1.867-.233-3.443.525-4.668 1.167-1.808 3.734-2.742 7.293-2.742 6.302 0 15.754 2.976 25.965 9.51 10.794 6.944 19.02 16.046 20.48 22.64.408 1.866.233 3.442-.526 4.667-2.625 4.084-12.544 3.85-24.68-1.926zm-4.26 7.119c.292 2.859-.408 5.66-1.983 8.11a13.039 13.039 0 01-8.81 5.718c-3.677.583-7.294-.408-10.212-2.742C2.94 60.43 1.54 53.78 4.34 48.47c1.517-2.917 4.026-5.076 7.118-6.185 3.968-1.4 7.119-4.142 8.87-7.76l.29-.642c.701-1.517 2.043-2.625 3.677-3.092.525-.175 1.05-.233 1.633-.233 1.109 0 2.218.291 3.151.933l2.217 1.4c1.4.876 2.334 2.393 2.626 4.026a5.801 5.801 0 01-1.342 4.61l-.642.758c-2.567 2.918-3.734 6.769-3.326 10.853zm10.62-34.95c-1.46-.934-2.51-2.334-2.801-3.793-.175-.7-.234-1.75.408-2.742.7-1.109 1.984-1.634 3.443-1.634 1.167 0 2.392.35 3.559 1.109 1.459.934 2.509 2.334 2.8 3.793.176.7.234 1.75-.408 2.742-1.283 1.925-4.434 2.217-7.002.525zm-9.22-10.91c1.868-2.86 5.135-4.319 8.87-4.319 2.8 0 5.834.876 8.576 2.626 3.501 2.276 6.01 5.601 6.769 9.219.583 2.684.175 5.134-1.167 7.235a9.13 9.13 0 01-4.26 3.442 133.418 133.418 0 00-4.2-3.5c1.691-.409 3.209-1.343 4.142-2.801.934-1.4 1.225-3.21.817-4.96-.467-2.217-1.984-4.259-4.084-5.66-3.91-2.508-8.87-1.866-11.028 1.46-.934 1.4-1.225 3.15-.875 4.9a64.087 64.087 0 00-4.96-2.392c-.058-1.925.409-3.676 1.4-5.25z" fill="#000"/></svg>