<svg width="70" height="70" fill="none" xmlns="http://www.w3.org/2000/svg"><g clip-path="url(#clip0)" fill="#000"><path d="M50.731 26.823a7.58 7.58 0 10-5.365-2.215 7.522 7.522 0 005.365 2.215zm-3.709-11.287a5.248 5.248 0 11-1.54 3.708 5.211 5.211 0 011.54-3.708z"/><path d="M7.732 28.62l12.829.525a28.21 28.21 0 00-.642 1.34 1.167 1.167 0 00.234 1.307l2.612 2.612-5.19 3.708a1.166 1.166 0 00-.081 1.76L30.1 52.48a1.166 1.166 0 00.828.338h.093a1.166 1.166 0 00.851-.49l3.709-5.19 2.612 2.613a1.166 1.166 0 001.306.245l1.318-.618.525 12.827a1.166 1.166 0 001.808 1.003 26.737 26.737 0 005.83-4.396 27.192 27.192 0 007.896-21.562A51.737 51.737 0 0069.974 1.17 1.166 1.166 0 0068.808.005 51.982 51.982 0 0033.109 12.83l-.384.361a27.21 27.21 0 00-21.564 7.895 26.75 26.75 0 00-4.397 5.737 1.166 1.166 0 00.968 1.738v.058zm23.033 21.258l-10.67-10.67 4.396-3.137 9.412 9.41-3.138 4.397zm16.456 7.265a24.718 24.718 0 01-3.615 2.997l-.455-11.964c.536-.292 1.05-.63 1.574-.945.525-.315.851-.49 1.271-.758a48.116 48.116 0 002.03-1.4c.338-.232.676-.454 1.002-.699a53.059 53.059 0 002.834-2.262h.059c.902-.778 1.78-1.59 2.635-2.437a24.86 24.86 0 01-7.335 17.468zM67.64 2.336A49.405 49.405 0 0154.708 36.07a57.921 57.921 0 01-1.644 1.738A49.397 49.397 0 0141.4 46.485c-.7.385-1.4.746-2.099 1.073l-16.875-16.85c.326-.7.688-1.388 1.05-2.076a49.095 49.095 0 013.79-5.994l.21-.292a46.707 46.707 0 012.075-2.588l.292-.339a35.763 35.763 0 012.332-2.472 66.888 66.888 0 012.473-2.332A49.568 49.568 0 0167.64 2.335zM12.83 22.754a24.865 24.865 0 0117.493-7.311l-.198.21c-.684.7-1.345 1.41-1.983 2.134l-.431.49a48.095 48.095 0 00-2.03 2.53l-.14.198a53.354 53.354 0 00-1.854 2.67l-.128.199c-.63.98-1.228 1.978-1.796 2.997l-11.977-.49a24.69 24.69 0 013.044-3.627zM.548 69.796a1.167 1.167 0 001.166.058 56.411 56.411 0 019.213-3.219 30.226 30.226 0 013.674-.606c3.079-.385 6.251-.793 8.164-2.705a11.334 11.334 0 002.81-11.44 1.166 1.166 0 00-2.11-.257 3.65 3.65 0 01-.537.712c-.653.653-2.25.828-3.65.991a20.23 20.23 0 00-2.006.291c-.73.16-1.448.374-2.146.642.245-2.332.933-5.54 2.554-7.16.214-.207.453-.387.711-.537a1.166 1.166 0 00-.256-2.11 11.336 11.336 0 00-11.488 2.787C.07 53.82 0 68.198 0 68.804a1.166 1.166 0 00.548.992zm7.756-20.897a9.005 9.005 0 016.379-2.647h.595c-2.624 3.498-2.648 9.632-2.648 9.912a1.167 1.167 0 001.831.98 9.795 9.795 0 013.254-1.237c.502-.105 1.166-.175 1.773-.245a11.092 11.092 0 004.21-1.026 9 9 0 01-2.624 6.997c-1.353 1.352-4.129 1.702-6.811 2.04a31.87 31.87 0 00-3.965.665 64.025 64.025 0 00-7.896 2.612c.234-3.976 1.283-13.445 5.902-18.051z"/></g><defs><clipPath id="clip0"><path fill="#fff" d="M0 0h70v70H0z"/></clipPath></defs></svg>