<svg width="70" height="70" fill="none" xmlns="http://www.w3.org/2000/svg"><path d="M59.34 17.759l1.46-1.079a32.253 32.253 0 00-4.435-4.867l-1.208 1.353a30.37 30.37 0 014.184 4.592z" fill="#000"/><path fill-rule="evenodd" clip-rule="evenodd" d="M59.298 18.038l-.119-.161a30.168 30.168 0 00-4.156-4.562l-.149-.133 1.475-1.65.149.133a32.451 32.451 0 014.462 4.896l.119.161-1.78 1.316zm1.5-1.358l-.118-.16a32.261 32.261 0 00-4.316-4.706l-1.208 1.352a30.37 30.37 0 014.182 4.589l.002.003 1.458-1.078z" fill="#000"/><path d="M63.432 20.889l-1.607.84a30.255 30.255 0 013.41 13.949c0 16.642-13.539 30.18-30.18 30.183-16.642-.002-30.18-13.541-30.18-30.183a30.25 30.25 0 013.41-13.95l-1.608-.84a32.077 32.077 0 00-3.615 14.79c0 17.64 14.35 31.992 31.988 31.996h.008c17.64-.004 31.99-14.356 31.99-31.996a32.099 32.099 0 00-3.616-14.79zm-48.48-7.723l-1.208-1.351A32.246 32.246 0 009.31 16.68l1.458 1.078a30.4 30.4 0 014.184-4.593z" fill="#000"/><path fill-rule="evenodd" clip-rule="evenodd" d="M15.235 13.181l-.15.133a30.201 30.201 0 00-4.156 4.563l-.119.16-1.78-1.315.12-.16a32.449 32.449 0 014.461-4.898l.15-.133 1.474 1.65zm-1.491-1.367l-.148.133A32.258 32.258 0 009.31 16.68l1.458 1.078a30.4 30.4 0 014.184-4.592l-1.208-1.352z" fill="#000"/><path d="M27.352 15.592H25.54v12.191h1.813V15.592z" fill="#000"/><path fill-rule="evenodd" clip-rule="evenodd" d="M25.339 15.393h2.213v12.591h-2.213V15.393zm2.013.2v12.191h-1.813V15.593h1.813z" fill="#000"/><path d="M45 15.592h-1.813v12.191H45V15.592z" fill="#000"/><path fill-rule="evenodd" clip-rule="evenodd" d="M42.986 15.393H45.2v12.591h-2.213V15.393zm2.013.2v12.191h-1.813V15.593H45z" fill="#000"/><path d="M42.278 13.734h.86v-.046h1.904v.046h.865a.907.907 0 00.66-1.528l-1.777-1.891a.909.909 0 00-.652-.286h-.009a.905.905 0 00-.648.273l-1.851 1.89a.907.907 0 00.648 1.542zM36.31 7.98h-1.814v19.796h1.813V7.98z" fill="#000"/><path fill-rule="evenodd" clip-rule="evenodd" d="M34.296 7.78h2.213v20.195h-2.213V7.779zm2.013.2v19.795h-1.813V7.979h1.813z" fill="#000"/><path d="M43.485 47.515a11.954 11.954 0 00-4.56-2.86 6.935 6.935 0 003.013-5.718A6.945 6.945 0 0035 32a6.945 6.945 0 00-6.938 6.938 6.935 6.935 0 003.013 5.716 11.954 11.954 0 00-4.56 2.86A11.921 11.921 0 0023 56h1.875c0-5.583 4.542-10.125 10.125-10.125S45.125 50.417 45.125 56H47c0-3.205-1.248-6.219-3.515-8.485zM35 44a5.068 5.068 0 01-5.063-5.063A5.068 5.068 0 0135 33.876a5.068 5.068 0 015.063 5.063A5.068 5.068 0 0135 44zM33.588 6.11h.86v-.034h1.904v.034h.865a.907.907 0 00.66-1.527L36.1 2.692a.906.906 0 00-.652-.286h-.009a.906.906 0 00-.648.272l-1.85 1.892a.907.907 0 00.647 1.54zm-8.998 8h.86v-.034h1.903v.034h.865a.907.907 0 00.66-1.527l-1.777-1.891a.907.907 0 00-.652-.286h-.009a.906.906 0 00-.648.272l-1.85 1.892a.908.908 0 00.647 1.54z" fill="#000"/></svg>