<svg width="70" height="70" fill="none" xmlns="http://www.w3.org/2000/svg"><g clip-path="url(#clip0)" fill="#000"><path d="M55.745 57.514h13.704l.031-.695.017-.859v-.004h0c.005-.19.003-.373 0-.57l-.002-.306-.005-.446-.015-.452h0l-.017-.46v-.002l-.005-.114h0l-.002-.057v-.03l-.002-.113-.001-.014h0l-.015-.191h0l-.06-.771h0l-.015-.192-.022-.248v-.002l-.048-.5v-.002l-.049-.497v-.002l-.024-.24-.03-.22s0 0 0 0l-.044-.326c-.068-.496-.132-.969-.218-1.428v-.005h0c-.017-.09-.032-.18-.047-.267-.034-.194-.066-.38-.101-.566l-.167-.8-.001-.005h0c-.076-.383-.165-.743-.252-1.096-.03-.115-.058-.23-.086-.345v-.001l-.08-.322-.084-.305-.001-.002-.162-.575s0 0 0 0a48.876 48.876 0 01-.054-.188c-.031-.11-.06-.21-.09-.308l-.135-.424v-.001l-.112-.348-11.589 3.302.021.112v.001l.056.292.001.006h0c.013.074.026.162.038.243l.018.117v.002l.06.396v.002l.01.06.024.163.001.008h0l.026.226v.004h0l.032.27c.027.227.058.483.074.74l.044.538.001.01h0a19.277 19.277 0 01.027.57v.003l-.499.026c.019.275.021.558.024.844.001.114.002.229.005.343l-.18 6.021zm0 0l.057-.247v-.001a8.4 8.4 0 00.066-.317l.032-.156h0v-.005l.02-.097c.026-.127.056-.27.079-.416l.09-.524.002-.008.001-.007.08-.55c.02-.129.037-.276.052-.406l.021-.184h0v-.004l.032-.262.004-.033.001-.008v-.008l.027-.298v-.001l.02-.233a.3.3 0 00.012-.018.925.925 0 00.01-.068v-.02h0v-.02l.001-.002.008-.192s0 0 0 0a185.447 185.447 0 00.033-.773l.008-.192h0v-.01l.003-.13v-.004l.007-.26v-.004l.01-.26v-.002l-.676 5.72zm.098-10.963h0s0 0 0 0zM49.08 33.037l-.25-.264c-.055-.06-.122-.124-.172-.174a4.195 4.195 0 01-.056-.054l-.002-.003-.095-.093 6.189-7.49.274.21.123.095a8.45 8.45 0 01.213.167l.398.326h0l.448.369.483.422c.064.058.125.111.185.163.113.098.22.192.332.298h.001l.555.52h0l.003.003c.165.15.326.313.5.487l.058.057.205.205a16.13 16.13 0 01.376.382l.593.632h0l.003.002c.094.1.187.203.282.312l.002.002.294.335h.001l.296.338s0 0 0 0c.062.07.117.137.177.21l.105.128.179.216c.133.161.263.319.392.48l.555.72h0l.135.175.129.177h0l.265.367h0l.003.004c.258.349.494.7.733 1.057l.252.376.445.706.001.002.213.34.198.338v.001l.385.658a36.016 36.016 0 01.339.621v.001l.159.293v.001l.057.105c.032.059.058.107.088.17h0l.003.004.285.575.001.002.248.504a197.795 197.795 0 00.163.344l.077.16-10.744 4.317-.057-.17h0l-.116-.346h0l-.002-.007-.103-.292-.002-.004-.112-.329a3.156 3.156 0 00-.07-.19l-.013-.031h0l-.002-.005-.084-.214h0l-.179-.457-.003-.008-.003-.007-.207-.48v-.002l-.107-.252-.004-.008-.004-.008-.118-.253h0l-.245-.527-.005-.01-.005-.01c-.055-.105-.112-.22-.172-.338-.123-.244-.255-.508-.397-.756l-.147-.27h0l-.075-.138-.005-.008-.005-.008-.08-.134v-.001l-.321-.545h0l-.004-.007a22.766 22.766 0 00-.212-.337l-.13-.204h0l-.003-.005-.05-.078a6.644 6.644 0 00-.128-.2h0l-.176-.258-.001-.001-.174-.256a5.72 5.72 0 00-.19-.271l-.355-.487s0 0 0 0c-.077-.107-.167-.22-.248-.323a13.922 13.922 0 01-.118-.152h0l-.003-.003-.054-.07a9.547 9.547 0 00-.31-.387l-.338-.405c-.074-.092-.164-.191-.239-.275l-.099-.11h0l-.003-.004-.306-.345-.005-.006-.006-.006-.285-.3h-.001zm16.888 6.114s0 0 0 0h0zm-21.019-9.656l-.01-.006-.008-.006-.387-.256h0l-.004-.003a.734.734 0 00-.086-.047h-.002a1.47 1.47 0 00-9.186-3.775l-1.604-.377a.924.924 0 00-.132-.022l.406-6.907a.5.5 0 01.562-.466l4.557.574c.052.007.103.017.158.032.42.118 1.948.536 3.47.953l.358.098 2.2.603a365.304 365.304 0 01.914.252l.053.015c.162.061.312.124.47.19.085.037.173.074.266.112l.137.057c.202.085.39.163.569.248h0l.005.002.683.313h0l.003.002c.138.061.26.123.39.189l.225.111.002.002.567.284.539.293.002.002.477.263.18.101.003.002.152.087h0l.156.09-5.075 7.729-.143-.107h0l-.143-.107h-.001l-.027-.02a5.26 5.26 0 00-.128-.094l-.263-.188-.003-.002-.302-.22zm6.211-6.918s0 0 0 0h0zm-.047-.194s0 0 0 0h0zM30.138 25.44l.324-.002-.324.002zm0 0l-.37.002.37-.003zm-3.351-.28l-.003.001-.619.086h-.008l-.009.002-.637.111h0-.003l-.102.018c-.074.013-.158.027-.233.042h0l-.006.001-.325.07h-.001l-.327.068h-.002l-.008.002c-.104.022-.224.047-.344.078l-.659.163h0l-.003.001c-.144.037-.297.081-.44.122l-.228.065h0l-.006.002-.109.03-.225.066h0l-.009.002-.322.105h0l-.32.102s0 0 0 0l-.03.01c-.094.03-.201.064-.307.104l-.61.22h-.002c-.137.05-.285.11-.417.163-.068.027-.131.053-.187.074h0l-.005.003-.116.046c-.15.06-.313.124-.467.194l-.523.23c-.12.05-.249.114-.359.167l-.143.07h0l-.005.002-.45.215-.008.004-.008.004-.398.209h-.001l-.351.183s0 0 0 0 0 0 0 0a6.946 6.946 0 00-.306.17h0l-.003.002-.158.089-2.84-4.176.238-.176a12.8 12.8 0 00.118-.088c.066-.048.128-.094.203-.146l.398-.274v-.001l.221-.151.228-.156.507-.325.204-.131c.115-.074.222-.143.345-.215h0l.003-.002.614-.364h0l.006-.004a12.582 12.582 0 01.637-.358l.249-.137c.145-.08.282-.156.432-.231h0l.732-.37h0l.005-.002a8.075 8.075 0 01.356-.17h0l.383-.178h0l.383-.177.245-.105.138-.058.272-.115c.173-.073.338-.143.511-.211l.806-.308h0l.005-.002c.121-.048.246-.09.383-.137h.001l.405-.139h0l.4-.136c.082-.027.16-.051.244-.076l.146-.045h.002l.781-.236.763-.203h.002l.143-.039c.077-.02.145-.038.22-.056 0 0 0 0 0 0l.367-.084h.001l.702-.16.66-.128h0l.313-.06s0 0 0 0l.061-.011a4.39 4.39 0 01.224-.04h.006l.59-.09h.002l.515-.077.37-.047h0l.177-.022.452 6.9h-.18 0l-.37.003v0h-.012l-.351.011h-.003l-.396.01c-.073.001-.155.007-.218.011a9.663 9.663 0 01-.037.003h-.001l-.246.017h-.001l-.525.035h-.01l-.009.002-.56.058h-.001l-.292.03h-.003c-.071.008-.155.02-.225.03l-.087.012zm-12.75-.802h0zm15.97-6.338s0 0 0 0h0zM6.906 31.62h0l.002-.002c.075-.108.149-.21.224-.307h0l.003-.005.479-.633s0 0 0 0c.1-.131.197-.252.3-.377l.171-.214a13.874 13.874 0 01.455-.55h0l.004-.004.457-.53h0l.002-.002c.09-.106.176-.198.267-.296l.162-.176.402-.436.39-.396h.002l.35-.354h0l.002-.002c.035-.036.061-.062.092-.091l.044-.042v-.001l.127-.122h.001l.129-.125 2.975 3.486-.143.107h0l-.143.108v.001a4.167 4.167 0 00-.16.123l-.297.236h0l-.342.27-.007.006-.007.006-.386.33h0l-.004.002c-.036.032-.08.069-.127.108-.095.08-.205.173-.302.263l-.001.001-.434.395c-.14.123-.276.256-.404.381l-.066.064h0l-.003.003-.153.148c-.105.102-.22.213-.324.32 0 0 0 0 0 0l-.47.487c-.089.09-.173.18-.251.27H9.92l-.232.258h0l-.238.262h0a7.56 7.56 0 00-.172.2l-.069.081h0l-.003.004-.163.192c-.1.118-.206.241-.304.361h0l-.005.006-.446.562h0l-.112.14-.005.007-.005.007-.106.143h0l-.21.282c-.206.269-.401.551-.584.816l-.231.333-.006.008-.006.008-.362.56h0l-.176.272-.004.006-.004.007-.163.27h0l-.313.519-.004.006-.004.007-.278.494h0l-.001.004-.087.155c-.059.103-.12.212-.172.311l-.001.002-.217.418h0l-.191.37-.003.006-.004.007-.152.317-.001.001-.09.188-2.538-.973.085-.254v-.002l.126-.366.16-.43h0l.185-.495v-.001c.041-.107.084-.21.131-.323l.086-.21.242-.584.278-.62h0l.144-.32.157-.323v-.001l.33-.674.21-.398c.173-.329.343-.653.534-.977h0l.003-.005.203-.356h0l.098-.172.103-.169h0l.432-.703c.096-.151.193-.297.293-.448l.155-.235.087-.132a5.8 5.8 0 01.134-.2s0 0 0 0l.236-.335h0l.236-.334zm7.134-1.069s0 0 0 0h0zM2.207 53.01a.57.57 0 01.085.006.99.99 0 00-.164.015.595.595 0 01.079-.021zm-.372-.51l-.06.746h0l-.013.17a.51.51 0 00-.002.02l-.002.013v.008l-.001.01v.016l-.003.045h0l-.004.096h0l-.018.383h0l-.018.379h0v.012l-.008.358h0l-.008.355h0l-.004.176h0v.014l.001.177h0l.004.693h0v.013l.022.661c.005.19.016.376.027.546l.006.1h0v.002l.001.02h-.72a31.792 31.792 0 01-.098-.572h0v-.004L.83 56.25l-.092-.72v-.001l-.023-.18-.018-.183h0L.66 54.78h0l-.037-.385-.028-.373-.028-.382-.007-.095h0l-.003-.04-.002-.055v-.001l-.008-.199h0l-.033-.797v-.001l-.007-.192-.001-.191h0l-.003-.4h0l-.002-.399h0L.5 51.08l.005-.188v-.002a95 95 0 00.01-.349c.012-.408.022-.795.052-1.175h0v-.005l.018-.267c.01-.158.02-.31.032-.463l.07-.703h0v-.007c.028-.324.07-.626.11-.926.017-.116.032-.231.047-.347l.04-.29c.008-.057.017-.11.027-.166l.018-.107.091-.526.03-.174c.017-.101.033-.192.05-.277l.074-.364h0l.035-.176 2.175.58-.056.17h0l-.118.355h0l-.002.004-.081.268-.04.136h0v.001l-.134.447h0v.002l-.022.072-.053.178h0l-.002.008-.068.263h0l-.001.003-.077.296c-.071.27-.15.572-.215.881l-.141.635h0l-.002.009c-.03.143-.057.295-.085.442l-.043.233c-.074.362-.13.74-.185 1.108l-.05.33h0v.001l-.027.182-.001.009-.001.008-.021.184h0l-.043.368h0l-.042.37h0l-.022.186v.008l-.001.009-.016.186h0zm1.595-7.49h0z" stroke="#000"/><path d="M21.536 56.904h0a6.65 6.65 0 008.577 5.903l.005-.002 24.345-7.455 9.271-2.839h0l5.744-1.758h0a1.891 1.891 0 001.277-1.243 1.996 1.996 0 00-.176-1.59 1.888 1.888 0 00-1.8-.942h0l-6.233.43.068.998-.069-.998-9.195.634-25.637 1.769a6.65 6.65 0 00-6.177 7.093zm8.395-1.237a1.77 1.77 0 11-3.066 1.77 1.77 1.77 0 013.066-1.77z" stroke="#fff" stroke-width="2"/></g><defs><clipPath id="clip0"><path fill="#fff" d="M0 0h70v70H0z"/></clipPath></defs></svg>