<svg width="70" height="70" fill="none" xmlns="http://www.w3.org/2000/svg"><g clip-path="url(#clip0)"><path d="M69.45 57.516H55.744l.057-.247v-.001a8.4 8.4 0 00.066-.317l.032-.156h0v-.005l.02-.097c.026-.127.056-.271.079-.417l.09-.524.002-.007.001-.007.08-.55c.02-.129.037-.276.052-.407l.021-.183h0v-.004l.032-.262.004-.034.001-.007v-.008l.027-.298v-.001l.02-.233a.336.336 0 00.012-.018.932.932 0 00.01-.088h0v-.02l.001-.002.008-.192s0 0 0 0a192.753 192.753 0 00.033-.773l.008-.192h0v-.01l.003-.13v-.004l.007-.26v-.004l.01-.26v-.002l.005-.13v-.026l-.002-.15v-.004a40.313 40.313 0 01-.004-.324c-.003-.29-.005-.595-.025-.883l-.01-.215c-.004-.119-.01-.242-.017-.355h0v-.01l-.045-.538a12.984 12.984 0 00-.074-.74l-.032-.27h0v-.004l-.026-.226h0v-.008l-.025-.162-.01-.061v-.002l-.06-.397v-.001l-.018-.117a8.048 8.048 0 00-.038-.244h0v-.005l-.056-.292v-.001l-.022-.112 11.588-3.302.113.348v.001l.135.424c.03.098.059.198.09.308a44.17 44.17 0 00.053.188l.163.574v.003l.085.305.08.322v.001l.085.345c.088.353.177.713.253 1.096h0l.001.005.167.8c.035.186.068.372.101.567l.046.266h0l.001.005c.086.46.15.932.218 1.428l.044.326s0 0 0 0l.03.22.024.24v.002l.049.497v.002l.047.5v.002l.023.248.015.191h0l.06.771h0l.015.192h0v.014l.002.114v.014l.001.013v.002l.002.056h0l.005.115v.001l.017.46h0l.015.453.005.446c0 .107.002.208.003.306.002.197.004.38-.001.57h0v.004l-.017.86-.03.694zM55.842 46.553h0s0 0 0 0zM49.08 33.04l-.25-.265a6.465 6.465 0 00-.172-.174l-.056-.054-.002-.002-.095-.094 6.189-7.49.274.21.123.095c.07.053.137.105.213.166 0 0 0 0 0 0l.398.327h0l.448.369.483.422c.064.058.125.111.185.163.113.098.22.192.332.298h.001l.555.52h0l.003.003c.165.15.326.313.5.487l.058.057.205.205c.128.127.25.249.375.381 0 0 0 0 0 0l.594.633h0l.003.002c.094.1.187.203.282.312l.002.002.294.335h.001l.296.338s0 0 0 0c.062.07.117.137.177.21l.105.128.179.216c.133.161.263.319.392.48l.555.72h0l.135.175.129.177h0l.265.366h0l.003.005c.258.349.494.7.733 1.057l.252.376.445.706.001.002.213.34.198.338v.001l.385.659a35.239 35.239 0 01.339.62v.001l.159.293v.001l.057.105c.032.059.058.107.088.17h0l.003.004.285.575.001.002.248.504a240.139 240.139 0 00.163.344l.077.16-10.744 4.317-.057-.17h0l-.116-.346h0l-.002-.007-.103-.292-.002-.004-.112-.329a3.156 3.156 0 00-.07-.19l-.013-.031h0l-.002-.005-.084-.214h0l-.179-.457-.003-.008-.003-.007-.207-.48v-.003l-.107-.25-.004-.009-.004-.008-.118-.253v-.001l-.245-.526-.005-.01-.005-.01c-.055-.105-.112-.22-.172-.338a16.435 16.435 0 00-.397-.756l-.147-.27h0l-.075-.138-.005-.008-.005-.008-.08-.134v-.001l-.321-.545h0l-.004-.007a22.766 22.766 0 00-.212-.337l-.13-.204h0l-.003-.005-.05-.078a6.64 6.64 0 00-.128-.2h0l-.176-.258-.001-.001-.174-.256a5.719 5.719 0 00-.19-.271l-.355-.487s0 0 0 0c-.077-.107-.167-.22-.248-.323l-.118-.152h0l-.003-.003a12.24 12.24 0 01-.054-.07 9.547 9.547 0 00-.31-.387l-.338-.405c-.074-.092-.164-.191-.239-.275l-.099-.11h0l-.003-.004-.306-.345-.005-.006-.006-.006-.285-.3h-.001zm16.888 6.113s0 0 0 0h0zm-30.57-13.192c-.14-.03-.274-.06-.403-.082l-.424-.073-.373-.065-.318-.043-.277-.038a.363.363 0 01-.314-.377l.366-7.632a.363.363 0 01.367-.346l.458.005.427.007.503.024.572.028c.202.01.412.032.633.049l.69.059.736.087.384.047c.13.016.26.039.393.058l.589.092" stroke="#000"/><path d="M39.235 17.725c.068.025 7.067 1.935 7.134 1.96.263.099.515.211.766.314.25.104.495.204.728.314l.683.313c.222.1.429.21.631.309l.58.29.548.3.482.265.185.104.155.09.281.16c.182.105.238.34.123.515l-5.234 7.972a.363.363 0 01-.52.093l-.26-.195-.144-.106c-.048-.036-.108-.082-.144-.106l-.269-.193-.306-.223-.386-.256c-.116-.075-8.92-3.66-9.045-3.739m-5.085-.465l.324-.001-.324.001zm0 0l-.37.003.37-.003zm-3.351-.278h-.003l-.619.086h-.008l-.009.002-.637.11h0l-.003.002-.102.017a8.652 8.652 0 00-.233.042h0l-.006.001-.325.07h-.001l-.327.068h-.002l-.008.002a6.264 6.264 0 00-.344.078l-.659.163h0l-.003.001c-.144.037-.297.081-.44.122-.08.024-.158.046-.228.065h0l-.006.002-.109.03-.225.066h0l-.009.002-.322.104h0l-.32.103s0 0 0 0l-.03.01c-.094.03-.201.064-.307.104l-.61.22h-.002c-.137.05-.285.11-.417.163a14.04 14.04 0 01-.187.074h0l-.005.002c-.038.016-.077.03-.116.047-.15.06-.313.124-.467.194l-.523.23c-.12.05-.249.114-.359.167l-.143.07h0l-.005.002-.45.215-.008.004-.008.004-.398.209h-.001l-.351.183s0 0 0 0 0 0 0 0c-.079.04-.164.09-.23.127l-.076.043h0l-.003.002-.158.089-2.84-4.176.238-.176.118-.088c.066-.049.128-.095.203-.146l.398-.275h0l.221-.151.228-.157.507-.325a8.45 8.45 0 00.204-.13c.115-.074.222-.143.345-.215h0l.003-.002.614-.364h0l.006-.003c.16-.098.326-.19.508-.289l.129-.07.249-.137c.145-.08.282-.156.432-.231h0l.732-.37h0l.005-.002c.103-.054.209-.103.328-.158l.028-.013h0l.383-.177h0l.383-.177a13.598 13.598 0 01.383-.163l.272-.115c.173-.073.338-.143.511-.211l.806-.308h0l.005-.002c.121-.048.246-.09.383-.137h.001l.405-.139h0l.4-.136c.082-.027.16-.051.244-.076l.146-.045h.002l.781-.236.763-.203h.002l.143-.039c.077-.02.145-.038.22-.056 0 0 0 0 0 0l.367-.084h.001l.702-.16.66-.128h0l.313-.06s0 0 0 0l.061-.011c.083-.016.15-.03.224-.04h.006l.59-.09h.002l.515-.077.37-.047h0l.177-.022.452 6.9h-.18 0l-.37.003v0h-.012l-.351.011h-.003l-.396.01a3.433 3.433 0 00-.255.014h-.001l-.246.017h-.001l-.525.035h-.01l-.009.002-.56.058h-.001l-.292.03h-.003c-.071.008-.155.02-.225.03l-.087.012zm-12.75-.803h0zm15.97-6.338s0 0 0 0h0zM6.906 31.62h0l.002-.002c.075-.108.149-.21.224-.307h0l.003-.005.479-.633s0 0 0 0c.1-.131.197-.252.3-.377l.171-.214a13.874 13.874 0 01.455-.55h0l.004-.004.457-.53h0l.002-.002c.09-.106.176-.198.267-.296l.162-.176.402-.436.39-.396h.002l.35-.354h0l.002-.002c.035-.036.061-.062.092-.091l.044-.042v-.001l.127-.122h.001l.129-.125 2.975 3.486-.143.107h0l-.143.108v.001a4.167 4.167 0 00-.16.123l-.297.236h0l-.342.27-.007.006-.007.006-.386.33h0l-.004.002c-.036.032-.08.069-.127.108-.095.08-.205.173-.302.263l-.001.001-.434.395c-.14.123-.276.256-.404.381l-.066.064h0l-.003.003-.153.148c-.105.102-.22.213-.324.32 0 0 0 0 0 0l-.47.487c-.089.09-.173.18-.251.27H9.92l-.232.258h0l-.238.262h0a7.56 7.56 0 00-.172.2l-.069.081h0l-.003.004-.163.192c-.1.118-.206.241-.304.361h0l-.005.006-.446.562h0l-.112.14-.005.007-.005.007-.106.143h0l-.21.282c-.206.269-.401.551-.584.816l-.231.333-.006.008-.006.008-.362.56h0l-.176.272-.004.006-.004.007-.163.27h0l-.313.519-.004.006-.004.007-.278.494h0l-.001.004-.087.155c-.059.103-.12.212-.172.311l-.001.002-.217.418h0l-.191.37-.003.006-.004.007-.152.317-.001.001-.09.188-2.538-.973.085-.254v-.002l.126-.366.16-.43h0l.185-.495v-.001c.041-.107.084-.21.131-.323l.086-.21.242-.584.278-.62h0l.144-.32.157-.323v-.001l.33-.674.21-.398c.173-.329.343-.653.534-.977h0l.003-.005.203-.356h0l.098-.172.103-.169h0l.432-.703c.096-.151.193-.297.293-.448l.155-.235.087-.132a5.8 5.8 0 01.134-.2s0 0 0 0l.236-.335h0l.236-.334zm7.134-1.069s0 0 0 0h0zM2.207 53.012c.024 0 .053.002.085.006a.99.99 0 00-.164.015.58.58 0 01.079-.021zm-.372-.51l-.06.746h0l-.013.17a.51.51 0 00-.002.02l-.002.013v.008l-.001.01v.016l-.003.045h0l-.004.096h0l-.018.383h0l-.018.379h0v.012l-.008.358h0l-.008.355h0l-.004.176h0v.014l.001.177h0l.004.693h0v.013l.022.661c.005.19.016.376.027.546l.006.1h0v.002l.001.02h-.72a37.936 37.936 0 00-.008-.042 13.63 13.63 0 01-.09-.53h0v-.004L.83 56.25l-.092-.72h0l-.023-.18-.018-.183h0l-.038-.386h0l-.037-.385-.028-.373-.028-.382-.007-.095h0l-.003-.04-.002-.055v-.001l-.008-.199h0l-.033-.797v-.002l-.007-.19-.001-.192h0l-.003-.4h0L.5 51.271h0l-.001-.19.005-.188v-.002l.01-.349c.012-.408.022-.795.052-1.175h0v-.005l.018-.267c.01-.158.02-.31.032-.463l.07-.704h0v-.007c.028-.323.07-.625.11-.926.017-.115.032-.23.047-.346l.04-.29a8.093 8.093 0 01.045-.273l.091-.526.03-.174c.017-.101.033-.192.05-.277l.074-.364h0l.035-.176 2.175.58-.056.17h0l-.118.355h0l-.002.004a11.217 11.217 0 00-.121.403h0v.002l-.134.447h0v.001l-.022.073a8.615 8.615 0 00-.053.178h0l-.002.008-.068.263h0l-.001.003-.077.296c-.071.27-.15.572-.215.881l-.141.635h0l-.002.009c-.03.143-.057.295-.085.442l-.043.233c-.074.362-.13.74-.185 1.108l-.05.33h0v.001l-.027.182-.001.009-.001.008-.021.183h0l-.043.369h0l-.042.37h0l-.022.186v.008l-.001.009-.016.186h0zm1.595-7.49h0z" stroke="#000"/><path d="M41.738 63.032h0a6.65 6.65 0 00-1.89-10.239l-.006-.003-22.486-11.943L8.793 36.3h0l-5.305-2.818h0a1.89 1.89 0 00-1.781-.024c-.5.259-.86.724-1 1.25a1.889 1.889 0 00.606 1.938h0l4.712 4.103.657-.754-.657.754 6.951 6.054L32.354 63.68a6.651 6.651 0 009.384-.647zm-6.81-5.062a1.77 1.77 0 113.418.916 1.77 1.77 0 01-3.419-.916z" fill="#000" stroke="#fff" stroke-width="2"/></g><defs><clipPath id="clip0"><path fill="#fff" d="M0 0h70v70H0z"/></clipPath></defs></svg>