<svg width="70" height="70" fill="none" xmlns="http://www.w3.org/2000/svg"><path d="M69.45 57.516H55.744l.057-.247v-.001a8.4 8.4 0 00.066-.317l.032-.156h0v-.005l.02-.097c.026-.127.056-.271.079-.417l.09-.524.002-.007.001-.007.08-.55c.02-.129.037-.276.052-.407l.021-.183h0v-.004l.032-.262.004-.034.001-.008v-.007l.027-.298v-.001l.02-.233a.296.296 0 00.012-.017.9.9 0 00.01-.089h0v-.02l.001-.002.008-.192s0 0 0 0a192.753 192.753 0 00.033-.773l.008-.192h0v-.01l.003-.13v-.004l.007-.26v-.004l.01-.26v-.002l.005-.13v-.026l-.002-.15v-.004a40.313 40.313 0 01-.004-.324c-.003-.29-.005-.595-.025-.883l-.01-.215c-.004-.119-.01-.242-.017-.355h0v-.01l-.045-.538a12.984 12.984 0 00-.074-.74l-.032-.27h0v-.004l-.026-.226h0v-.008l-.025-.162-.01-.061v-.002l-.06-.397v-.001l-.018-.117c-.012-.081-.025-.169-.038-.244h0v-.005l-.056-.292v-.001l-.022-.112 11.588-3.302.113.348v.001l.135.424c.03.098.059.198.09.308a44.17 44.17 0 00.053.188l.163.574v.003l.085.305.08.322v.001l.085.345c.088.353.177.713.253 1.096h0l.001.005.167.8c.035.186.067.372.101.567l.046.266h0l.001.005c.086.46.15.932.218 1.428l.044.325v.002l.03.22.024.24v.001l.049.497v.002l.047.5v.002l.023.248.015.191h0l.06.771h0l.015.192h0v.014l.002.114v.014l.001.013v.002l.002.056h0l.005.115v.001l.017.46h0l.015.453.005.446c0 .107.002.208.003.306.002.197.004.38-.001.57h0v.004l-.017.86-.03.694zM55.842 46.553h0zM49.08 33.04l-.25-.265a6.465 6.465 0 00-.172-.174l-.056-.054-.002-.002-.095-.094 6.189-7.49.274.21.123.095c.07.053.137.105.213.167 0 0 0 0 0 0l.398.326h0l.448.369.483.422c.064.058.125.111.185.163.113.098.22.192.332.298h.001l.555.52h0l.003.003c.165.15.326.312.5.487l.058.057.205.205c.128.127.25.249.375.381 0 0 0 0 0 0l.594.633h0l.003.002c.094.1.187.203.282.312l.002.002.294.335h.001l.296.338s0 0 0 0c.062.07.117.137.177.21l.106.128.178.216c.133.161.263.319.392.48l.555.72h0l.135.175.129.177h0l.265.366h0l.003.005c.258.349.494.7.733 1.057l.252.376.445.706.001.001.213.34.198.34h0l.385.659.233.425.106.195v.001l.159.293v.001l.057.105c.032.059.058.107.088.17h0l.003.004.285.575.001.002.248.504.163.343s0 0 0 0l.077.162-10.744 4.316-.057-.17h0l-.116-.346h0l-.002-.007-.103-.292-.002-.004-.112-.329a3.156 3.156 0 00-.07-.19l-.013-.031h0l-.002-.005-.084-.214h0l-.179-.457-.003-.008-.003-.007-.207-.48v-.003l-.107-.25-.004-.009-.004-.008-.118-.253v-.001l-.245-.526-.005-.01-.005-.01c-.055-.105-.112-.22-.172-.338a16.435 16.435 0 00-.397-.756l-.147-.27h0l-.075-.138-.005-.008-.005-.008-.08-.134v-.001l-.321-.545h0l-.004-.007a22.766 22.766 0 00-.212-.337l-.13-.204h0l-.003-.005-.05-.078a6.64 6.64 0 00-.128-.2h0l-.176-.258-.001-.001-.174-.256a5.719 5.719 0 00-.19-.271l-.355-.487s0 0 0 0c-.077-.107-.167-.22-.248-.323l-.118-.152h0l-.003-.003a12.24 12.24 0 01-.054-.07 9.547 9.547 0 00-.31-.387l-.338-.405c-.074-.092-.164-.191-.239-.275a8.216 8.216 0 01-.099-.11h0l-.003-.004-.306-.345-.005-.006-.006-.006-.285-.3h-.001zm16.888 6.113s0 0 0 0h0z" stroke="#000"/><path d="M33.88 25.698l.318.043.373.066.424.072c.13.022.264.053.403.082l4.009-8.2-.59-.091c-.132-.02-.262-.043-.392-.06l-.384-.046-.736-.087-.69-.06c-.22-.016-.431-.039-.633-.048l-.572-.028-.503-.024-.427-.007-.458-.005a.363.363 0 00-.367.346l-.366 7.632a.363.363 0 00.314.377l.277.038zM44.655 29.9l.306.223.269.192c.036.025.096.07.144.106l.143.107.26.194a.363.363 0 00.52-.092l5.235-7.972a.363.363 0 00-.123-.514 166.535 166.535 0 01-.436-.25c-.06-.034-.121-.07-.185-.105l-.482-.266-.549-.299-.579-.29c-.203-.099-.41-.209-.631-.309l-.683-.313c-.233-.11-.48-.21-.728-.315-.251-.102-.503-.214-.766-.313l-.202-.077-2.258 9.8c.125.079.243.162.358.237l.387.256zm-17.803-4.241c.101-.014.2-.03.3-.04l.293-.03.562-.059.526-.035.247-.017c.08-.006.16-.012.23-.012l.404-.011.353-.011.37-.003.325-.001a.363.363 0 00.36-.388l-.47-7.189a.363.363 0 00-.408-.337l-.322.041-.375.048-.522.077-.592.09c-.107.015-.205.035-.308.055l-.316.06-.668.13c-.23.051-.467.105-.71.161l-.37.085c-.125.03-.25.065-.377.098l-.775.206-.792.239c-.134.041-.269.08-.403.124l-.403.138-.405.139a9.156 9.156 0 00-.405.145l-.808.308c-.268.105-.532.222-.797.332-.132.056-.264.11-.395.168l-.387.179-.383.177c-.127.06-.254.117-.377.181l-.73.369c-.24.12-.47.253-.696.375-.226.125-.449.244-.659.372l-.614.364c-.2.116-.384.242-.565.355l-.516.33-.455.313-.4.275c-.122.085-.231.17-.332.242l-.346.256a.363.363 0 00-.084.496l2.985 4.39a.363.363 0 00.479.111l.267-.15c.09-.05.186-.108.295-.165l.352-.183.399-.209.45-.216c.157-.073.317-.157.49-.23l.53-.233c.18-.083.37-.155.563-.232.194-.076.388-.16.591-.232l.617-.223c.104-.04.21-.072.317-.106l.32-.104.323-.104c.109-.033.219-.062.328-.094.22-.06.437-.128.659-.184l.662-.164c.11-.03.22-.052.33-.075l.33-.07.327-.069c.109-.021.218-.038.325-.057l.638-.111.618-.085zM6.498 31.332l-.236.333-.237.336c-.079.113-.153.23-.23.344-.15.231-.306.46-.454.694l-.434.707-.107.176-.102.178-.203.356c-.276.468-.515.946-.759 1.4l-.333.683-.16.331-.148.327-.281.627-.246.593c-.077.19-.155.37-.221.546l-.186.497-.163.437-.128.375-.128.38a.363.363 0 00.214.455l2.779 1.066a.363.363 0 00.458-.183l.144-.302.153-.318.191-.368.217-.419c.077-.147.165-.297.253-.457l.278-.494.313-.519.163-.27.176-.272.362-.559c.261-.37.517-.76.806-1.135l.212-.286.106-.143.112-.14.447-.563c.152-.185.31-.366.463-.548.077-.09.152-.183.231-.27a850.424 850.424 0 00.473-.523 6.4 6.4 0 01.237-.254l.473-.49c.154-.16.316-.309.468-.46.154-.149.303-.296.456-.431l.439-.4c.14-.13.285-.245.42-.361l.386-.33.342-.27.3-.239c.042-.035.1-.077.148-.114l.142-.107.26-.196a.363.363 0 00.056-.525l-3.163-3.707a.363.363 0 00-.528-.026l-.234.225c-.04.04-.084.08-.129.124s-.089.085-.146.143l-.35.354-.398.403-.41.444c-.14.155-.292.312-.44.484l-.456.53c-.159.18-.313.373-.47.569-.158.196-.323.393-.48.6l-.48.635c-.082.106-.16.216-.238.327zM.748 44.328l-.064.318-.075.367c-.027.136-.053.297-.082.462l-.09.529c-.016.093-.034.189-.048.285l-.04.295c-.052.402-.12.834-.16 1.296l-.07.708c-.02.242-.033.49-.05.74-.04.503-.047 1.023-.064 1.55L0 51.076l.001.198a15979.526 15979.526 0 01.005.8v.2l.008.2.033.799.008.198.003.065.003.047.007.096.028.382c.01.127.02.253.028.379l.038.39.038.387.02.19.023.187.092.727.107.694c.033.225.074.443.113.654l.01.05a.363.363 0 00.356.297h.98a.362.362 0 00.362-.385 25.017 25.017 0 00-.01-.169c-.012-.203-.027-.412-.032-.628L2.2 56.17c0-.227-.002-.458-.004-.693V55.3l.003-.176.008-.354.008-.359.017-.379.018-.382.005-.096.002-.048V53.5v.009l.002-.012.001-.023.015-.186.06-.745.015-.187.021-.185.043-.37.042-.37.021-.183.028-.182c.074-.484.138-.96.23-1.416.044-.228.083-.453.128-.672l.142-.639c.086-.415.197-.802.288-1.16l.068-.262c.023-.084.049-.164.072-.243l.133-.447c.043-.141.078-.267.12-.394l.117-.355.102-.309a.363.363 0 00-.251-.465l-2.455-.654a.363.363 0 00-.45.278zM28.54 57.052a5.65 5.65 0 007.988-3.808l5.716-24.81 2.177-9.45 1.349-5.852c.156-.682-.385-1.146-.929-1.146a.89.89 0 00-.817.527l-2.744 5.614-4.049 8.28-11.286 23.087a5.651 5.651 0 002.594 7.558zm2.687-7.99a2.77 2.77 0 110 5.54 2.77 2.77 0 010-5.54z" fill="#000"/></svg>