<svg width="70" height="70" fill="none" xmlns="http://www.w3.org/2000/svg"><path d="M69.45 57.514H55.744l.057-.247v-.001a8.4 8.4 0 00.066-.317l.032-.156h0v-.005l.02-.097c.026-.127.056-.27.079-.416l.09-.524.002-.008.001-.007.08-.55c.02-.129.037-.276.052-.406l.021-.184h0v-.004l.032-.262.004-.033.001-.008v-.008l.027-.298v-.001l.02-.233a.3.3 0 00.012-.018.925.925 0 00.01-.088h0v-.02l.001-.002.008-.192s0 0 0 0a185.447 185.447 0 00.033-.773l.008-.192h0v-.01l.003-.13v-.004l.007-.26v-.004l.01-.26v-.002l.005-.13v-.026l-.002-.15v-.004a40.346 40.346 0 01-.004-.324c-.003-.29-.005-.595-.025-.883l-.01-.215c-.004-.118-.01-.242-.017-.355h0v-.01l-.045-.538c-.016-.257-.047-.514-.074-.74l-.032-.27h0v-.004l-.026-.226h0v-.008l-.025-.163-.01-.06v-.002l-.06-.397v-.001l-.018-.117c-.012-.08-.025-.169-.038-.243h0v-.006l-.056-.292h0l-.022-.113 11.588-3.302.113.348v.001l.135.424c.03.098.059.198.09.309l.053.186v.002l.163.574v.002l.085.305.08.322v.001l.085.345c.088.353.177.713.253 1.096h0l.001.005.167.8c.035.186.068.372.101.566l.046.267h0l.001.005c.086.46.15.932.218 1.428l.044.326s0 0 0 0l.03.22.024.24v.002l.049.498v.001l.047.5v.002l.023.248.015.191h0l.06.771h0l.015.192h0v.014l.002.114v.014l.001.013v.002l.002.056h0l.005.115v.001l.017.46h0l.015.453.005.446c0 .107.002.208.003.306.002.197.004.38-.001.57h0v.004l-.017.86-.03.694zM55.842 46.551h0s0 0 0 0zM49.08 33.037l-.25-.264c-.055-.06-.122-.124-.172-.174a4.195 4.195 0 01-.056-.054l-.002-.003-.095-.093 6.189-7.49.274.21.123.095a8.45 8.45 0 01.213.167l.398.326h0l.448.369.483.422c.064.058.125.111.185.163.113.098.22.192.332.298h.001l.555.52h0l.003.003c.165.15.326.313.5.487l.058.057.205.205a16.13 16.13 0 01.376.382l.593.632h0l.003.002c.094.1.187.203.282.312l.002.002.294.335h.001l.296.338s0 0 0 0c.062.07.117.137.177.21l.105.128.179.216c.133.161.263.319.392.48l.555.72h0l.135.175.129.177h0l.265.367h0l.003.004c.258.349.494.7.733 1.057l.252.376.445.706.001.002.213.34.198.338v.001l.385.658a36.016 36.016 0 01.339.621v.001l.159.293v.001l.057.105c.032.059.058.107.088.17h0l.003.004.285.575.001.002.248.504a197.795 197.795 0 00.163.344l.077.16-10.744 4.317-.057-.17h0l-.116-.346h0l-.002-.007-.103-.292-.002-.004-.112-.329a3.156 3.156 0 00-.07-.19l-.013-.031h0l-.002-.005-.084-.214h0l-.179-.457-.003-.008-.003-.007-.207-.48v-.002l-.107-.252-.004-.008-.004-.008-.118-.253h0l-.245-.527-.005-.01-.005-.01c-.055-.105-.112-.22-.172-.338-.123-.244-.255-.508-.397-.756l-.147-.27h0l-.075-.138-.005-.008-.005-.008-.08-.134v-.001l-.321-.545h0l-.004-.007a22.766 22.766 0 00-.212-.337l-.13-.204h0l-.003-.005-.05-.078a6.644 6.644 0 00-.128-.2h0l-.176-.258-.001-.001-.174-.256a5.72 5.72 0 00-.19-.271l-.355-.487s0 0 0 0c-.077-.107-.167-.22-.248-.323a13.922 13.922 0 01-.118-.152h0l-.003-.003-.054-.07a9.547 9.547 0 00-.31-.387l-.338-.405c-.074-.092-.164-.191-.239-.275l-.099-.11h0l-.003-.004-.306-.345-.005-.006-.006-.006-.285-.3h-.001zm16.888 6.114s0 0 0 0h0zM35.398 25.96c-.14-.03-.274-.061-.403-.083l-.424-.072-.373-.066-.318-.043-.277-.038a.363.363 0 01-.314-.377l.366-7.632a.363.363 0 01.367-.346l.458.005.427.007.503.024.572.028c.202.01.412.032.633.049l.69.059.736.087.384.047c.13.016.26.039.393.058l.589.092" stroke="#000"/><path d="M39.235 17.723c.068.025 7.067 1.935 7.134 1.96.263.099.515.211.766.314.25.104.495.204.728.314l.683.313c.222.1.429.21.631.31l.58.29.548.298.482.266.185.104.155.09.281.16c.182.105.238.34.123.515l-5.234 7.972a.363.363 0 01-.52.092l-.26-.194-.144-.106a3.16 3.16 0 00-.144-.106l-.269-.193-.306-.223-.386-.256c-.116-.075-8.92-3.66-9.045-3.739" stroke="#000"/><path d="M27.259 26.135c.1-.013.2-.03.3-.04l.293-.03.561-.058a500.685 500.685 0 00.773-.053c.08-.005.161-.012.23-.012l.404-.01.354-.012a907.06 907.06 0 01.695-.004.363.363 0 00.36-.387l-.471-7.19a.363.363 0 00-.408-.336l-.322.04-.375.048-.522.078-.592.09c-.107.015-.205.035-.308.054l-.315.06-.67.13-.71.162-.37.085c-.124.029-.25.064-.376.097l-.774.207-.793.239c-.133.04-.268.08-.402.124l-.403.137-.406.14a8.982 8.982 0 00-.405.145l-.808.308c-.268.105-.532.222-.797.332-.132.056-.264.11-.394.168l-.387.179-.384.177c-.127.059-.253.117-.376.18l-.731.37c-.24.12-.469.253-.696.375-.226.124-.449.243-.658.371l-.615.365c-.2.116-.384.241-.565.355l-.515.33-.456.313-.399.275c-.123.085-.232.169-.333.242l-.346.255a.363.363 0 00-.084.497l2.985 4.389a.363.363 0 00.479.112l.268-.151c.089-.05.185-.107.294-.164l.352-.184.399-.208.45-.216c.158-.073.317-.157.49-.23.17-.076.348-.153.53-.233.18-.083.37-.155.563-.233.194-.075.388-.16.592-.232l.617-.222c.103-.04.21-.073.316-.107l.32-.103.323-.104c.109-.033.219-.063.328-.094.22-.061.438-.128.659-.185l.662-.164c.11-.029.22-.052.331-.074l.33-.07.326-.07.326-.057.637-.11.619-.086zM6.498 31.332l-.236.333-.237.336c-.079.113-.153.23-.23.344-.15.231-.306.46-.454.694l-.434.707-.107.176-.102.178-.203.356c-.276.468-.515.946-.759 1.4l-.333.683-.16.331-.148.327-.281.627-.246.593c-.077.19-.155.37-.221.546a724.101 724.101 0 01-.35.934l-.127.375-.128.38a.363.363 0 00.214.455l2.779 1.066a.363.363 0 00.458-.183l.144-.302.153-.318.191-.368.217-.419c.077-.147.165-.297.253-.457l.278-.494.313-.519.163-.27.176-.272.362-.559c.261-.37.517-.76.806-1.135l.212-.286.106-.143.112-.14.447-.563c.152-.185.31-.366.463-.548.077-.09.152-.183.231-.27a850.424 850.424 0 00.473-.523 6.4 6.4 0 01.237-.254l.473-.49c.154-.16.316-.309.468-.46.154-.149.303-.296.456-.431l.439-.4c.14-.13.285-.245.42-.361l.386-.33.342-.27.3-.239c.042-.035.1-.077.148-.114a751.073 751.073 0 00.401-.303.363.363 0 00.057-.525l-3.163-3.707a.363.363 0 00-.528-.026l-.234.225c-.04.04-.084.08-.129.124s-.089.085-.146.143l-.35.354-.398.403-.41.444c-.14.155-.292.312-.44.484l-.456.53c-.159.18-.313.373-.47.569-.158.196-.323.393-.48.6l-.48.635c-.082.106-.16.216-.238.327zM.748 44.326l-.064.318-.075.367c-.027.136-.053.297-.082.462l-.09.529c-.016.093-.034.189-.048.285l-.04.295c-.052.402-.12.834-.16 1.296l-.07.708c-.02.242-.033.49-.05.74-.04.503-.047 1.023-.064 1.55L0 51.074l.001.199a15967.511 15967.511 0 01.005.798v.2l.008.2.033.8.008.198.003.064.003.048.007.096.028.382c.01.127.02.253.028.379l.038.39a4774.53 4774.53 0 00.057.578l.024.186.092.727.107.694c.033.225.074.443.113.654l.01.05a.363.363 0 00.356.297h.98a.362.362 0 00.362-.385 25.017 25.017 0 00-.01-.169c-.012-.203-.027-.412-.032-.628l-.022-.664a2933.468 2933.468 0 01-.005-.87l.004-.176.008-.354.008-.359.017-.379.018-.382.005-.096.002-.048v-.006.009l.002-.012.001-.023.015-.186.06-.745.015-.187.021-.185.043-.37.042-.37.021-.183.028-.182c.074-.484.138-.96.23-1.416.044-.229.083-.453.128-.672l.142-.639c.086-.415.197-.802.288-1.16l.068-.262c.023-.084.049-.164.072-.243l.133-.447c.043-.14.078-.267.12-.394l.117-.355.102-.309a.363.363 0 00-.251-.465l-2.455-.654a.363.363 0 00-.45.278z" fill="#000"/><path d="M33.382 57.867l.146.478a6.15 6.15 0 01-7.684-4.077l-7.537-24.567-2.704-8.812-1.832-5.974h0c-.18-.585.01-1.114.372-1.454a1.496 1.496 0 011.128-.399c.433.034.847.267 1.107.714l-.433.251.433-.25 3.015 5.194 4.868 8.386 12.783 22.02.001.002c.222.387.422.831.56 1.281l-4.223 7.207zm0 0l.146.478a6.13 6.13 0 002.398-1.386m-2.544.908l2.544-.908m0 0a6.15 6.15 0 001.679-6.299l-1.68 6.299zm-5.7-6.397a2.27 2.27 0 113.101 3.314 2.27 2.27 0 01-3.102-3.314z" fill="#000" stroke="#fff" stroke-width="2"/></svg>